<!-- Generated by IcoMoon.io -->
<svg version="1.1" xmlns="http://www.w3.org/2000/svg" width="47" height="32" viewBox="0 0 47 32">
<title>house-bookshelves</title>
<path fill="#fff" d="M34.554 17.998c0 0-0.274 0.174-0.429-0.025s0.105-0.568-0.124-0.724-0.627 0.083-0.627 0.083c0 0 0.305 0.089 0.296 0.256s-0.157 0.232-0.175 0.157-0.166-0.44-0.414-0.287c-0.071 0.042-0.134 0.099-0.183 0.165s-0.084 0.143-0.103 0.224c0 0 0.578-0.062 0.613 0.156s-0.237-0.038-0.475-0.052c-0.239-0.014-0.456 0.021-0.44 0.165 0.005 0.128-0.002 0.255-0.023 0.381 0.131-0.108 0.296-0.167 0.465-0.164 0.262 0.015 0.253 0.182 0.014 0.168s-0.443 0.213-0.443 0.213c0 0 0.218 0.371 0.494 0.555s0.376 0.116 0.407-0.024c0.031-0.14-0.042-0.504 0.125-0.495s-0.276 0.629-0.063 0.666 0.385-0.026 0.441-0.166l0.058-0.14c0 0-0.075-0.363-0.042-0.504s0.072 0.004 0.109 0.174c0.038 0.17 0.062 0.577 0.134 0.558s0.306-0.317 0.361-0.433c0.055-0.116-0.307-0.472-0.303-0.544s0.283 0.064 0.327 0.139c0.032 0.057 0.060 0.115 0.086 0.174 0 0 0.175-0.109 0.17-0.444s-0.254-0.232-0.254-0.232z"></path>
<path fill="#263238" opacity="0.3" d="M34.554 17.998c0 0-0.274 0.174-0.429-0.025s0.105-0.568-0.124-0.724-0.627 0.083-0.627 0.083c0 0 0.305 0.089 0.296 0.256s-0.157 0.232-0.175 0.157-0.166-0.44-0.414-0.287c-0.071 0.042-0.134 0.099-0.183 0.165s-0.084 0.143-0.103 0.224c0 0 0.578-0.062 0.613 0.156s-0.237-0.038-0.475-0.052c-0.239-0.014-0.456 0.021-0.44 0.165 0.005 0.128-0.002 0.255-0.023 0.381 0.131-0.108 0.296-0.167 0.465-0.164 0.262 0.015 0.253 0.182 0.014 0.168s-0.443 0.213-0.443 0.213c0 0 0.218 0.371 0.494 0.555s0.376 0.116 0.407-0.024c0.031-0.14-0.042-0.504 0.125-0.495s-0.276 0.629-0.063 0.666 0.385-0.026 0.441-0.166l0.058-0.14c0 0-0.075-0.363-0.042-0.504s0.072 0.004 0.109 0.174c0.038 0.17 0.062 0.577 0.134 0.558s0.306-0.317 0.361-0.433c0.055-0.116-0.307-0.472-0.303-0.544s0.283 0.064 0.327 0.139c0.032 0.057 0.060 0.115 0.086 0.174 0 0 0.175-0.109 0.17-0.444s-0.254-0.232-0.254-0.232z"></path>
<path fill="#fff" d="M35.529 17.291c0 0-0.011 0.393-0.318 0.412s-0.497-0.491-0.811-0.369c-0.314 0.123-0.344 0.683-0.344 0.683s0.298-0.245 0.459-0.121c0.161 0.124 0.123 0.314 0.037 0.284s-0.554-0.134-0.57 0.218c-0.007 0.1 0.007 0.201 0.041 0.296s0.086 0.182 0.154 0.256c0 0 0.332-0.619 0.574-0.507s-0.2 0.211-0.377 0.44-0.291 0.47-0.134 0.553c0.131 0.082 0.254 0.176 0.367 0.282 0 0-0.042-0.324 0.153-0.576s0.354-0.128 0.178 0.101c-0.176 0.229-0.089 0.588-0.089 0.588s0.52 0.036 0.892-0.116c0.372-0.152 0.375-0.296 0.255-0.425s-0.534-0.302-0.411-0.462c0.123-0.16 0.442 0.705 0.624 0.517s0.236-0.402 0.134-0.553l-0.102-0.152c0 0-0.414-0.174-0.534-0.302s0.053-0.069 0.249 0.009c0.196 0.078 0.62 0.332 0.651 0.246s-0.109-0.523-0.188-0.655c-0.079-0.133-0.683-0.015-0.752-0.068s0.258-0.239 0.362-0.233c0.104 0.007 0.233 0.032 0.233 0.032s0.009-0.248-0.329-0.472c-0.339-0.224-0.402 0.094-0.402 0.094z"></path>
<path fill="#263238" opacity="0.2" d="M35.529 17.291c0 0-0.011 0.393-0.318 0.412s-0.497-0.491-0.811-0.369c-0.314 0.123-0.344 0.683-0.344 0.683s0.298-0.245 0.459-0.121c0.161 0.124 0.123 0.314 0.037 0.284s-0.554-0.134-0.57 0.218c-0.007 0.1 0.007 0.201 0.041 0.296s0.086 0.182 0.154 0.256c0 0 0.332-0.619 0.574-0.507s-0.2 0.211-0.377 0.44-0.291 0.47-0.134 0.553c0.131 0.082 0.254 0.176 0.367 0.282 0 0-0.042-0.324 0.153-0.576s0.354-0.128 0.178 0.101c-0.176 0.229-0.089 0.588-0.089 0.588s0.52 0.036 0.892-0.116c0.372-0.152 0.375-0.296 0.255-0.425s-0.534-0.302-0.411-0.462c0.123-0.16 0.442 0.705 0.624 0.517s0.236-0.402 0.134-0.553l-0.102-0.152c0 0-0.414-0.174-0.534-0.302s0.053-0.069 0.249 0.009c0.196 0.078 0.62 0.332 0.651 0.246s-0.109-0.523-0.188-0.655c-0.079-0.133-0.683-0.015-0.752-0.068s0.258-0.239 0.362-0.233c0.104 0.007 0.233 0.032 0.233 0.032s0.009-0.248-0.329-0.472c-0.339-0.224-0.402 0.094-0.402 0.094z"></path>
<path fill="#fff" d="M34.16 19.634c0 0-0.050 0.452-0.407 0.446s-0.527-0.615-0.901-0.503c-0.373 0.112-0.463 0.755-0.463 0.755s0.367-0.254 0.541-0.096c0.174 0.157 0.112 0.374 0.015 0.331s-0.626-0.207-0.678 0.198c-0.017 0.115-0.010 0.233 0.020 0.345s0.083 0.218 0.155 0.31c0 0 0.442-0.684 0.71-0.531s-0.25 0.225-0.476 0.473c-0.226 0.247-0.379 0.515-0.208 0.626 0.144 0.106 0.277 0.227 0.397 0.36 0 0-0.018-0.378 0.233-0.65s0.421-0.116 0.196 0.133c-0.225 0.249-0.158 0.671-0.158 0.671s0.597 0.091 1.041-0.049c0.444-0.139 0.46-0.306 0.333-0.465s-0.588-0.399-0.43-0.572c0.158-0.173 0.443 0.855 0.671 0.655s0.311-0.441 0.207-0.626l-0.109-0.185c0 0-0.461-0.239-0.588-0.399s0.068-0.074 0.286 0.034c0.219 0.108 0.685 0.442 0.727 0.345s-0.077-0.612-0.153-0.774c-0.076-0.162-0.787-0.081-0.861-0.149s0.321-0.252 0.44-0.233c0.089 0.015 0.177 0.034 0.264 0.058 0 0 0.034-0.286-0.336-0.576s-0.471 0.069-0.471 0.069z"></path>
<path fill="#263238" opacity="0.3" d="M34.16 19.634c0 0-0.050 0.452-0.407 0.446s-0.527-0.615-0.901-0.503c-0.373 0.112-0.463 0.755-0.463 0.755s0.367-0.254 0.541-0.096c0.174 0.157 0.112 0.374 0.015 0.331s-0.626-0.207-0.678 0.198c-0.017 0.115-0.010 0.233 0.020 0.345s0.083 0.218 0.155 0.31c0 0 0.442-0.684 0.71-0.531s-0.25 0.225-0.476 0.473c-0.226 0.247-0.379 0.515-0.208 0.626 0.144 0.106 0.277 0.227 0.397 0.36 0 0-0.018-0.378 0.233-0.65s0.421-0.116 0.196 0.133c-0.225 0.249-0.158 0.671-0.158 0.671s0.597 0.091 1.041-0.049c0.444-0.139 0.46-0.306 0.333-0.465s-0.588-0.399-0.43-0.572c0.158-0.173 0.443 0.855 0.671 0.655s0.311-0.441 0.207-0.626l-0.109-0.185c0 0-0.461-0.239-0.588-0.399s0.068-0.074 0.286 0.034c0.219 0.108 0.685 0.442 0.727 0.345s-0.077-0.612-0.153-0.774c-0.076-0.162-0.787-0.081-0.861-0.149s0.321-0.252 0.44-0.233c0.089 0.015 0.177 0.034 0.264 0.058 0 0 0.034-0.286-0.336-0.576s-0.471 0.069-0.471 0.069z"></path>
<path fill="#fff" d="M34.774 22.338c-0.181-0.203-0.566-0.203-0.791 0.317s-0.023 0.429-0.023 0.429 0.429-0.135 0.698-0.226c0.269-0.091 0.633-0.316 0.656-0.18s-0.181 0.271-0.43 0.316-0.904 0.225-0.837 0.361c0.067 0.136 0.226 0.541 0.226 0.541 0.193-0.164 0.397-0.314 0.61-0.451 0.294-0.181 0.475-0.113 0.317 0.090s-0.611 0.429-0.52 0.7c0.091 0.271 0.635 0.61 0.635 0.61s0.068-0.565 0.226-0.745c0.159-0.181 0.158 0.023 0.113 0.339-0.023 0.135-0.038 0.27-0.045 0.407l0.633 0.225c0.103-0.157 0.217-0.308 0.339-0.451l0.116-0.113c0 0-0.497-0.429-0.52-0.697s0.339 0 0.452 0.045c0.113 0.045 0.294 0.361 0.294 0.361s0.113-0.519 0.136-0.697l0.023-0.181c0 0-0.475-0.181-0.656-0.181s-0.271 0.135-0.271-0.045c0-0.181 0.181-0.293 0.385-0.271 0.184 0.030 0.366 0.076 0.543 0.135 0 0 0.136-0.113 0.090-0.452s-0.158-0.339-0.429-0.248c-0.271 0.091-0.453 0.291-0.656 0.291s-0.090-0.248 0.045-0.316c0.136-0.068 0.475-0.203 0.543-0.226s-0.362-0.339-0.588-0.384-0.519 0.116-0.497 0.339c0.043 0.472-0.635 0.565-0.816 0.358z"></path>
<path fill="#fff" d="M36.945 20.394c-0.246-0.145-0.518-0.149-0.652-0.302s0.129-0.232 0.269-0.174 0.465 0.225 0.527 0.261c0.061 0.037 0.019-0.495-0.095-0.697s-0.427-0.317-0.582-0.153c-0.329 0.345-0.842-0.107-0.807-0.377s-0.217-0.559-0.756-0.389c-0.539 0.17-0.339 0.264-0.339 0.264s0.384 0.235 0.631 0.381c0.247 0.146 0.654 0.27 0.566 0.376s-0.324 0.041-0.521-0.116c-0.197-0.157-0.763-0.534-0.821-0.394s-0.262 0.523-0.262 0.523c0.251 0.038 0.498 0.093 0.742 0.164 0.329 0.103 0.397 0.284 0.14 0.297s-0.725-0.179-0.873 0.067c-0.148 0.246-0.046 0.877-0.046 0.877s0.471-0.319 0.712-0.318c0.24 0.001 0.087 0.134-0.182 0.307-0.116 0.071-0.229 0.149-0.337 0.232l0.244 0.626c0.187-0.025 0.375-0.039 0.564-0.040l0.16 0.011c0 0 0-0.657 0.188-0.851s0.222 0.256 0.262 0.371c0.040 0.115-0.080 0.458-0.080 0.458s0.465-0.255 0.618-0.356l0.152-0.102c0 0-0.175-0.476-0.291-0.613s-0.28-0.116-0.144-0.232 0.341-0.058 0.457 0.112c0.097 0.159 0.182 0.326 0.253 0.498 0 0 0.175 0.029 0.401-0.228s0.15-0.339-0.097-0.483zM34.806 21.117c-0.181-0.090 0.248-0.271 0.248-0.271 0.159-0.024-0.067 0.361-0.248 0.27l-0.001 0.001zM35.11 20.274c-0.077-0.038 0.154-0.116 0.154-0.116 0.335 0.062-0.076 0.154-0.154 0.115l-0.001 0.001z"></path>
<path fill="#fff" d="M33.432 23.523c-0.198-0.116-0.417-0.12-0.524-0.243s0.103-0.186 0.216-0.139c0.113 0.047 0.374 0.181 0.424 0.21s0.015-0.398-0.077-0.559c-0.092-0.161-0.343-0.255-0.465-0.123-0.265 0.277-0.678-0.087-0.649-0.304s-0.175-0.45-0.61-0.313c-0.436 0.137-0.273 0.213-0.273 0.213s0.309 0.189 0.507 0.306c0.198 0.117 0.524 0.217 0.456 0.303s-0.26 0.033-0.419-0.094c-0.159-0.127-0.614-0.43-0.661-0.317s-0.21 0.424-0.21 0.424c0.202 0.031 0.401 0.075 0.597 0.132 0.265 0.083 0.319 0.229 0.112 0.24s-0.582-0.144-0.698 0.053c-0.116 0.198-0.037 0.706-0.037 0.706s0.379-0.256 0.573-0.256c0.193 0.001 0.070 0.108-0.146 0.247-0.094 0.057-0.185 0.119-0.272 0.187l0.197 0.504c0.15-0.020 0.302-0.031 0.454-0.033l0.129 0.009c0 0 0-0.529 0.152-0.685s0.179 0.206 0.211 0.298c0.032 0.093-0.065 0.369-0.065 0.369s0.376-0.205 0.497-0.287l0.122-0.081c0 0-0.141-0.384-0.236-0.493s-0.226-0.093-0.116-0.189c0.109-0.095 0.274-0.045 0.368 0.091 0.079 0.128 0.147 0.262 0.204 0.401 0 0 0.14 0.023 0.322-0.184s0.116-0.275-0.081-0.392zM31.71 24.104c-0.145-0.073 0.2-0.218 0.2-0.218 0.127-0.018-0.055 0.291-0.201 0.219l0.001-0.001zM31.955 23.425c-0.062-0.031 0.124-0.093 0.124-0.093 0.27 0.052-0.062 0.125-0.124 0.094v-0.001z"></path>
<path fill="#fff" d="M32.624 19.793c0 0-0.249 0.181-0.407 0s0.068-0.542-0.159-0.677-0.588 0.113-0.588 0.113c0 0 0.294 0.068 0.294 0.226s-0.136 0.225-0.158 0.158c-0.023-0.067-0.181-0.407-0.407-0.249-0.065 0.044-0.121 0.101-0.164 0.167s-0.072 0.14-0.085 0.217c0 0 0.542-0.091 0.588 0.113s-0.226-0.023-0.452-0.023c-0.226 0-0.43 0.045-0.407 0.181 0.012 0.12 0.012 0.241 0 0.361 0.117-0.11 0.27-0.174 0.43-0.181 0.248 0 0.248 0.158 0.023 0.158s-0.407 0.226-0.407 0.226 0.226 0.339 0.497 0.497c0.271 0.158 0.362 0.091 0.384-0.045s-0.068-0.474 0.090-0.474c0.158 0-0.226 0.61-0.023 0.632s0.362-0.045 0.407-0.181l0.045-0.135c0 0-0.091-0.339-0.068-0.474s0.068 0 0.113 0.158c0.045 0.158 0.091 0.542 0.158 0.519s0.272-0.316 0.317-0.429c0.045-0.113-0.317-0.429-0.317-0.497s0.272 0.045 0.317 0.113c0.033 0.051 0.063 0.104 0.090 0.158 0 0 0.158-0.113 0.136-0.429s-0.248-0.203-0.248-0.203z"></path>
<path fill="#fff" d="M18.967 3.073c-0.143-0.11-0.621-0.091-0.713 0.138s0.201 0.601 0.48 0.575c0.11-0.010 0.158-0.018 0.201-0.080l-0.393-0.383 0.425 0.342c0.012-0.022 0.022-0.046 0.029-0.070 0.005-0.017 0.009-0.035 0.013-0.055 0.030-0.137 0.092-0.364-0.043-0.467z"></path>
<path fill="#fff" d="M19.893 2.808v0.008c-0.038 0.17-0.233 0.267-0.397 0.252-0.023-0.002-0.045-0.006-0.067-0.012-0.039 0.061-0.062 0.13-0.070 0.201s0.002 0.144 0.028 0.211c0.007 0.019 0.016 0.038 0.027 0.055 0.048-0.039 0.565-0.48 0.565-0.48l-0.537 0.516c0.162 0.174 0.541 0.149 0.673-0.171s-0.036-0.535-0.222-0.58z"></path>
<path fill="#fff" d="M19.63 2.213c-0.278-0.058-0.527 0.065-0.524 0.355 0.002 0.064 0.016 0.127 0.043 0.185s0.065 0.11 0.113 0.153l0.287-0.39-0.241 0.426c0.054 0.037 0.116 0.059 0.181 0.065 0.164 0.014 0.359-0.083 0.397-0.253 0.040-0.19 0.021-0.479-0.257-0.54z"></path>
<path fill="#fff" d="M19.305 1.204c0 0-0.029 0.009-0.207 0.095-0.104 0.057-0.181 0.154-0.215 0.268s-0.020 0.237 0.037 0.341c0.049 0.098 0.135 0.172 0.238 0.208l0.072-0.691-0.030 0.7c0.014 0.001 0.027 0.001 0.041 0 0.116-0.012 0.298-0.15 0.316-0.433s-0.251-0.489-0.251-0.489z"></path>
<path fill="#fff" d="M18.492 1.833l0.537 0.429c0.005-0.019 0.007-0.039 0.005-0.058-0.025-0.245-0.27-0.388-0.432-0.439s-0.274 0.040-0.17 0.275 0.377 0.349 0.499 0.313c0.029-0.007 0.055-0.023 0.075-0.045l-0.514-0.475z"></path>
<path fill="#fff" d="M18.862 2.382c-0.082-0.006-0.162-0.030-0.234-0.072s-0.133-0.098-0.179-0.167c-0.057-0.005-0.114 0.012-0.159 0.048s-0.073 0.088-0.080 0.145c-0.055 0.256 0.13 0.523 0.397 0.49 0.084-0.004 0.163-0.038 0.225-0.096l-0.477-0.435 0.511 0.389c0.010-0.018 0.016-0.038 0.019-0.058 0.017-0.082 0.008-0.167-0.023-0.244z"></path>
<path fill="#fff" d="M18.859 3.804c-0.043 0.019-0.090 0.030-0.137 0.033-0.175 0.016-0.352-0.12-0.441-0.281-0.052 0.003-0.101 0.024-0.14 0.059s-0.065 0.081-0.074 0.133c-0.053 0.299 0.225 0.694 0.505 0.631 0.073-0.014 0.14-0.048 0.195-0.099l-0.612-0.588 0.648 0.55c0.037-0.047 0.061-0.104 0.069-0.163 0.031-0.090 0.026-0.188-0.013-0.274z"></path>
<path fill="#fff" d="M20.091 4.416c-0.206-0.238-0.451-0.025-0.451-0.025s-0.15 0.049-0.207 0.262c-0.017 0.065-0.015 0.133 0.008 0.196l0.619-0.36-0.604 0.394c0.058 0.107 0.179 0.174 0.349 0.125 0.271-0.074 0.492-0.352 0.286-0.591z"></path>
<path fill="#fff" d="M24.383 10.532h0.516l-0.454 0.189 1.141 2.697h-1.203v-2.887z"></path>
<path fill="#fff" d="M24.383 17.436h0.516l-0.454 0.189 1.141 2.698h-1.203v-2.887z"></path>
<path fill="#263238" d="M7.319 19.312c0 0-0.349-4.648-0.175-5.171s1.251-0.494 1.455-0.494c0.204 0 4.451 0 5.062 0.29s0.698 7.437 0.698 7.437h-6.749l-0.291-2.063z"></path>
<path fill="#263238" d="M14.591 18.935c0 0-0.698 0-0.838 0.697s0.41 3.573 0.451 4.387c0.041 0.813 0.184 1.946 0.184 1.946h2.473l0.553-7.030h-2.822z"></path>
<path fill="#636363" d="M17.414 18.935c0 0-0.698 0-0.873 0.697s0.233 3.573 0.233 4.387c0 0.813 0.087 1.946 0.087 1.946h0.873c0 0 0.087-2.092 0.087-2.382s0.349-3.312 0.175-3.922c-0.175-0.61-0.32-0.668-0.582-0.726z"></path>
<path fill="#fff" d="M10.039 13.952c0 0-2.313 0.944-2.313 1.046s0.785 2.833 1.076 3.254 0.495 0.886 0.582 1.060c0.087 0.174 0.465 0.61 0.771 0.61s0.669-0.363 1.644-0.509c0.975-0.145 1.847-0.131 2.022-0.261s-0.044-0.479-0.073-0.552-0.145-0.334-0.145-0.334c0 0 0.945 0.784 1.324 0.813s0.655-0.16 0.713-0.407c0.058-0.247-0.16-0.842-0.305-1.162s-0.829-0.828-1.135-1.22-0.698-0.857-0.975-1.177c-0.241-0.281-0.538-0.509-0.873-0.668-0.262-0.116-0.931-0.407-1.353-0.45s-0.96-0.044-0.96-0.044z"></path>
<path fill="#fff" d="M9.894 13.342l0.073 0.871 1.542 1.511 0.233-1.075 0.102-0.45c0 0-1.004-0.174-1.324-0.392s-0.625-0.465-0.625-0.465z"></path>
<path fill="#263238" d="M11.843 14.199c0 0-1.004-0.174-1.324-0.392s-0.625-0.465-0.625-0.465l0.073 0.871 0.39 0.382c0.303 0.085 0.605 0.127 0.81 0.048 0.228-0.083 0.446-0.191 0.649-0.323l0.027-0.121z"></path>
<path fill="#263238" d="M9.433 12.669c0 0-0.272-1.24-0.272-1.453s0.737-1.298 1.745-1.124c1.008 0.174 1.571 0.755 1.61 0.93s-0.116 0.523-0.116 0.523c0.031 0.101 0.050 0.205 0.058 0.31 0 0.116-0.175 0.619-0.175 0.619l-0.058-0.523c0 0-0.485 0.136-0.756 0.136s-0.737-0.174-0.737-0.174c0 0 0.097 0.31 0 0.465s-0.387 0.291-0.387 0.291c0 0-0.039 0.31-0.155 0.31-0.144-0.007-0.286-0.027-0.426-0.058-0.078-0.019-0.33-0.252-0.33-0.252z"></path>
<path fill="#fff" d="M9.879 12.805c0 0-0.039-0.465-0.427-0.349s-0.136 0.542 0.078 0.755c0.214 0.213 0.271 0.058 0.271 0.058s0.058 0.446 0.349 0.697c0.291 0.252 0.737 0.716 1.203 0.658s0.795-0.639 0.854-1.065c0.058-0.426 0.097-1.433 0.097-1.55-0.014-0.131-0.040-0.261-0.077-0.387 0 0-0.407 0.29-0.776 0.213s-0.756-0.232-0.931-0.232c-0.175 0-0.136 0.252-0.078 0.329s0.214 0.232 0.039 0.329c-0.175 0.097-0.407 0.193-0.407 0.193v0.407l-0.194-0.058z"></path>
<path fill="#263238" d="M11.331 13.59c0 0-0.233 0-0.361 0.011-0.077 0.013-0.155 0.016-0.233 0.010-0.053-0.010-0.116-0.053-0.010 0.053s0.425 0.232 0.595 0.254 0.287-0.032 0.414-0.116c0.127-0.084 0.233-0.17 0.17-0.191-0.088-0.015-0.176-0.023-0.265-0.021v0.053l-0.309-0.054z"></path>
<path fill="#fff" d="M12.672 15.783l0.102-0.261c0 0 0.131 0.131 0.48 0.131s0.916 0.247 0.916 0.247l0.044 0.073c0 0 0.102-0.305 0.291-0.363s0.495-0.261 0.538-0.32l0.044-0.058 0.204 0.174-0.902 1.191-1.687-0.654-0.029-0.16z"></path>
<path fill="#fff" d="M10.81 17.569l0.659-0.271c0 0 0.582-0.619 0.64-0.677s0.64-0.116 0.64-0.116l0.64 0.426c0 0 0.116 0.097 0 0.135s-0.368-0.077-0.368-0.077l-0.252-0.155-0.155 0.078 0.329 0.271c0 0 0.097 0.252 0.097 0.387-0.002 0.087-0.022 0.173-0.058 0.252l-0.194 0.271-0.582-0.291c0 0-0.349 0.252-0.427 0.291s-0.815-0.019-0.815-0.019l-0.155-0.504z"></path>
<path fill="#fff" d="M8.134 14.722c0 0-0.427 0.058-0.485 0.426s-0.446 3.467-0.329 3.816c0.116 0.349 2.269-0.252 2.346-0.29s1.299-0.407 1.319-0.484c0.020-0.077 0.058-0.717-0.116-0.755s-1.843 0.019-1.843 0.019l-0.233-2.014z"></path>
<path fill="#fff" d="M15.028 16.364c0 0-0.393 0.407-0.378 0.509s0.218-0.058 0.262-0.102c0.044-0.044 0.247-0.16 0.247-0.276s-0.044-0.247-0.131-0.131z"></path>
<path fill="#fff" d="M15.072 16.611c0 0 0.116 0.116 0.116 0.218s-0.247 0.436-0.364 0.436c-0.116 0-0.029-0.232 0.029-0.334s0.218-0.32 0.218-0.32z"></path>
<path fill="#fff" d="M15.188 16.828c0 0 0.145 0.044 0.145 0.174s-0.276 0.349-0.349 0.363-0.058-0.116 0-0.218c0.058-0.102 0.204-0.32 0.204-0.32z"></path>
<path fill="#fff" d="M15.334 17.003c0.030 0.074 0.040 0.154 0.029 0.232-0.015 0.145-0.233 0.233-0.305 0.233s-0.073-0.102-0.073-0.102c0.123-0.114 0.24-0.236 0.349-0.363z"></path>
<path fill="#fff" d="M10.759 27.447h-0.276l-0.138-1.83h0.553l-0.138 1.83z"></path>
<path fill="#fff" d="M8.228 27.447h-0.276l-0.138-1.83h0.553l-0.138 1.83z"></path>
<path fill="#fff" d="M17.363 27.447h-0.276l-0.138-1.83h0.553l-0.139 1.83z"></path>
<path fill="#fff" d="M14.832 27.447h-0.276l-0.138-1.83h0.553l-0.139 1.83z"></path>
<path fill="#263238" d="M16.977 22.115h-6.604v3.835h6.604v-3.835z"></path>
<path fill="#fff" d="M21.767 21.501c0 0 0.698-0.291 0.854-0.407s0.368 0.135 0.271 0.407c-0.097 0.271-0.349 0.755-0.736 0.988s-0.698 0.426-0.776 0.503c-0.078 0.077-0.058 0.368-0.387 0.485s-0.737-0.116-0.97-0.485-0.388-0.619-0.388-0.619c0 0 0.020-0.271 0.407-0.407s1.047-0.194 1.047-0.194l0.679-0.271z"></path>
<path fill="#fff" d="M13.821 19.153c0 0 0.46-0.111 0.577-0.053s0.504 0.427 0.504 0.427 2.347 0.038 2.521 0.116c0.175 0.078 1.978 1.453 2.366 1.646s0.717 0.368 0.717 0.368l-0.291 1.278v0.116l0.020 0.194c0 0-1.009-0.31-1.261-0.368s-1.299-0.6-1.396-0.6c-0.097 0-0.892-0.232-0.892-0.232s-0.116-0.077-1.377-0.193c-1.261-0.116-2.676-0.252-3.181-0.271s-1.164-0.058-1.416-0.155c-0.252-0.097-0.698-0.774-0.776-1.181s0.737-0.755 1.086-0.91c0.349-0.155 1.649-0.349 1.882-0.349s0.916 0.17 0.916 0.17z"></path>
<path fill="#fff" d="M14.262 19.719l-0.388 0.562 0.524-0.349z"></path>
<path fill="#fff" d="M20.216 21.404c0 0 0.563-0.446 0.679-0.581s0.505-0.872 0.582-1.104c0.077-0.233 0.272-0.349 0.407-0.174s0.233 0.523 0.31 0.678c0.077 0.155-0.038 0.91-0.271 1.162s-0.555 0.863-0.621 0.988c-0.175 0.329-0.446 0.368-0.621 0.387s-0.601-0.445-0.601-0.445l0.136-0.911z"></path>
<path fill="#fff" d="M11.586 20.107c0 0 0.582-0.116 1.105-0.058s1.59 0.387 2.036 0.503c0.446 0.116 1.241 0.174 1.61 0.31s1.338 0.31 2.075 0.31c0.736 0 1.862 0.097 1.862 0.097s-0.155 1.123-0.116 1.336c0.038 0.172 0.090 0.34 0.155 0.503 0 0-1.493 0.116-1.92 0.174s-2.153-0.213-2.444-0.291-0.717-0.193-0.989-0.193c-0.272 0-0.795 0.116-1.552 0.193s-1.823-0.252-1.958-0.271-0.621-0.194-0.737-0.271c-0.116-0.077-0.795-1.278-0.563-1.782s0.524-0.581 0.524-0.581z"></path>
<path fill="#fff" d="M15.153 22.061c0.374 0.074 0.77 0.301 1.306 0.511 0.715 0.279 2.146 0.254 2.331 0.279s0.653 0 0.653 0z"></path>
<path fill="#fff" d="M12.269 22.323l0.214 0.031c0.621 0.093 1.804-0.248 2.299-0.31z"></path>
<path fill="#fff" d="M11.643 22.261c0 0 0.112 0 0.403 0.034l-0.403-0.034z"></path>
<path fill="#263238" d="M7.871 18.935c0 0-0.698 0-0.838 0.697s0.407 3.573 0.451 4.387c0.044 0.813 0.184 1.946 0.184 1.946h2.473l0.553-7.030h-2.822z"></path>
<path fill="#636363" d="M10.694 18.935c0 0-0.698 0-0.873 0.697s0.233 3.573 0.233 4.387c0 0.813 0.087 1.946 0.087 1.946h0.873c0 0 0.087-2.092 0.087-2.382s0.349-3.312 0.175-3.922c-0.175-0.61-0.32-0.668-0.582-0.726z"></path>
<path fill="#fff" d="M16.374 27.447h-0.276l-0.138-1.83h0.553l-0.138 1.83z"></path>
<path fill="#fff" d="M18.73 27.447h-0.276l-0.138-1.83h0.553l-0.138 1.83z"></path>
<path fill="#fff" d="M19.835 27.447h-0.276l-0.138-1.83h0.553l-0.139 1.83z"></path>
<path fill="#fff" d="M22.163 27.447h-0.276l-0.138-1.83h0.553l-0.139 1.83z"></path>
<path fill="#263238" d="M16.032 23.234h6.077c0.112 0 0.219 0.044 0.298 0.123s0.123 0.186 0.123 0.298v2.978h-6.924v-2.978c0-0.055 0.011-0.111 0.032-0.162s0.053-0.098 0.092-0.137c0.039-0.039 0.086-0.070 0.138-0.091s0.107-0.032 0.162-0.031z"></path>
<path fill="#636363" d="M22.112 23.234h-2.211c-0.112 0-0.219 0.044-0.298 0.123s-0.123 0.186-0.123 0.298v2.978h3.055v-2.978c-0-0.112-0.045-0.219-0.124-0.298s-0.186-0.123-0.298-0.123z"></path>
</svg>
