<!-- Generated by IcoMoon.io -->
<svg version="1.1" xmlns="http://www.w3.org/2000/svg" width="41" height="32" viewBox="0 0 41 32">
<title>learning-languages</title>
<path fill="#fff" d="M6.039 28.176c0 0-2.17-3.817-1.669-4.787s1.781 0.775 1.781 0.775-1.113-3.558-0.5-5.111c0.613-1.553 1.668 0 1.72 1.1s-0.222 2.976-0.222 2.976 0.445-3.881 1.501-2.717c1.057 1.164-1.335 5.046-1.335 5.046s1.614-0.902 1.556 0.259c-0.057 1.162-1.947 2.2-1.947 2.2z"></path>
<path fill="#263238" d="M8.462 26.624h-3.753l0.375 4.434h3.003l0.375-4.434z"></path>
<path fill="#fff" d="M32.658 4.128l-4.246 0.264c-0.24 0.015-0.465 0.122-0.629 0.299s-0.253 0.41-0.25 0.651l0.021 1.709-1.234 0.131 1.244 0.643c0.002 0.124 0.028 0.246 0.077 0.359s0.12 0.216 0.208 0.302c0.089 0.086 0.193 0.154 0.308 0.199s0.237 0.068 0.361 0.065l4.122-0.075c0.239-0.004 0.468-0.1 0.639-0.268s0.271-0.395 0.28-0.634l0.095-2.671c0.005-0.131-0.017-0.262-0.066-0.384s-0.122-0.233-0.216-0.324-0.206-0.163-0.329-0.208c-0.123-0.045-0.254-0.065-0.385-0.056z"></path>
<path fill="#8c8c8c" d="M31.798 4.569h-2.781v1.754h2.781v-1.754z"></path>
<path fill="#696969" d="M31.798 4.569h-1.579v1.754h1.579v-1.754z"></path>
<path fill="#fff" d="M30.974 4.569h-1.133v1.754h1.133v-1.754z"></path>
<path fill="#263238" d="M28.997 7.742v-0.446c0-0.214 0.152-0.357 0.38-0.357s0.38 0.139 0.38 0.35c0 0.010-0.008 0.016-0.021 0.018l-0.073 0.005c-0.013 0-0.021 0-0.021-0.010v-0.010c0-0.070-0.028-0.138-0.078-0.188s-0.117-0.078-0.188-0.078c-0.070 0-0.138 0.028-0.188 0.078s-0.078 0.117-0.078 0.188v0.454c0 0.071 0.028 0.138 0.078 0.188s0.117 0.078 0.188 0.078c0.070 0 0.138-0.028 0.188-0.078s0.078-0.117 0.078-0.188c-0-0.003 0-0.005 0.001-0.008s0.003-0.005 0.005-0.007c0.002-0.002 0.005-0.003 0.007-0.004s0.005-0.001 0.008 0h0.073c0.012 0 0.021 0 0.021 0.008v0.008c0 0.213-0.152 0.354-0.38 0.354s-0.38-0.141-0.38-0.357z"></path>
<path fill="#263238" d="M29.974 7.036c-0.001-0.018 0.003-0.035 0.012-0.050s0.022-0.027 0.038-0.035c0.016-0.008 0.034-0.010 0.051-0.007s0.034 0.011 0.046 0.023c0.013 0.012 0.022 0.028 0.026 0.045s0.002 0.035-0.004 0.051-0.018 0.030-0.032 0.040c-0.015 0.010-0.032 0.015-0.049 0.015-0.011 0.001-0.022-0.001-0.033-0.005s-0.020-0.010-0.029-0.017c-0.008-0.008-0.015-0.017-0.019-0.027s-0.007-0.022-0.007-0.033zM30.005 8.067v-0.778c-0-0.003 0-0.006 0.001-0.008s0.002-0.005 0.004-0.007c0.002-0.002 0.004-0.004 0.007-0.005s0.005-0.002 0.008-0.001h0.073c0.003-0 0.006 0 0.008 0.001s0.005 0.003 0.007 0.005c0.002 0.002 0.004 0.004 0.005 0.007s0.001 0.006 0.001 0.008v0.778c0 0.003-0 0.006-0.001 0.008s-0.003 0.005-0.005 0.007c-0.002 0.002-0.004 0.004-0.007 0.005s-0.006 0.001-0.008 0.001h-0.073c-0.003 0-0.006-0-0.008-0.001s-0.005-0.003-0.007-0.005c-0.002-0.002-0.003-0.004-0.004-0.007s-0.001-0.005-0.001-0.008z"></path>
<path fill="#263238" d="M30.978 7.527v0.54c0 0.003-0 0.006-0.001 0.008s-0.002 0.005-0.004 0.007c-0.002 0.002-0.004 0.004-0.007 0.005s-0.005 0.002-0.008 0.001h-0.073c-0.003 0-0.006-0-0.008-0.001s-0.005-0.003-0.007-0.005c-0.002-0.002-0.004-0.005-0.005-0.007s-0.001-0.006-0.001-0.008v-0.058c0-0.007-0.005-0.010-0.010 0-0.033 0.032-0.073 0.057-0.116 0.074s-0.090 0.024-0.136 0.022c-0.138 0-0.267-0.066-0.267-0.237s0.123-0.263 0.333-0.263h0.189c0.001 0 0.002 0 0.003-0s0.002-0.001 0.003-0.002 0.001-0.002 0.002-0.003 0-0.002 0-0.003v-0.060c0.002-0.025-0.001-0.050-0.010-0.074s-0.023-0.045-0.041-0.062-0.040-0.030-0.064-0.037c-0.024-0.007-0.049-0.009-0.074-0.005-0.102 0-0.169 0.042-0.187 0.11-0 0.003-0.001 0.005-0.003 0.008s-0.003 0.004-0.006 0.006c-0.002 0.002-0.005 0.003-0.008 0.003s-0.005 0-0.008-0l-0.082-0.010c-0.013 0-0.021-0.007-0.020-0.017 0.021-0.119 0.141-0.2 0.308-0.2 0.198-0.003 0.306 0.109 0.306 0.269zM30.863 7.825v-0.125c0-0.001 0-0.002-0-0.003s-0.001-0.002-0.002-0.003-0.002-0.001-0.003-0.002-0.002-0-0.003-0h-0.17c-0.141 0-0.237 0.060-0.237 0.164s0.082 0.144 0.178 0.144c0.12 0.002 0.237-0.061 0.237-0.175z"></path>
<path fill="#263238" d="M31.213 7.875c-0.017-0.065-0.025-0.132-0.023-0.199-0.002-0.067 0.005-0.133 0.021-0.198 0.023-0.065 0.066-0.122 0.123-0.162s0.124-0.061 0.193-0.061c0.069 0 0.137 0.021 0.193 0.061s0.099 0.096 0.123 0.162c0.017 0.065 0.025 0.132 0.023 0.199 0.002 0.067-0.006 0.134-0.023 0.199-0.023 0.066-0.065 0.123-0.122 0.163s-0.124 0.062-0.194 0.062c-0.070 0-0.137-0.022-0.194-0.062s-0.099-0.098-0.122-0.163v-0.002zM31.737 7.842c0.010-0.054 0.015-0.109 0.013-0.164 0.002-0.055-0.002-0.11-0.013-0.164-0.013-0.046-0.040-0.086-0.078-0.114s-0.084-0.044-0.131-0.044c-0.047 0-0.093 0.015-0.131 0.044s-0.065 0.069-0.078 0.114c-0.018 0.109-0.018 0.219 0 0.328 0.013 0.046 0.040 0.086 0.078 0.114s0.084 0.044 0.131 0.044c0.047 0 0.093-0.015 0.131-0.044s0.065-0.069 0.078-0.114z"></path>
<path fill="#fff" d="M14.874 6.23l-1.679-0.455 0.379-2.493c0.018-0.118 0.009-0.239-0.026-0.353s-0.096-0.219-0.177-0.306c-0.081-0.087-0.181-0.155-0.293-0.199s-0.231-0.061-0.35-0.051l-3.565 0.295c-0.103 0.008-0.204 0.037-0.296 0.084s-0.174 0.112-0.242 0.192c-0.067 0.079-0.118 0.171-0.15 0.27s-0.044 0.203-0.035 0.307l0.262 3.27c0.015 0.193 0.101 0.374 0.241 0.508s0.323 0.212 0.516 0.22l2.744 0.108c0.194 0.008 0.384-0.056 0.534-0.18s0.249-0.299 0.278-0.491l0.071-0.467 1.788-0.259z"></path>
<path fill="#8c8c8c" d="M12.379 3.071h-2.781v1.754h2.781v-1.754z"></path>
<path fill="#fff" d="M12.379 3.496h-2.781v0.905h2.781v-0.905z"></path>
<path fill="#263238" d="M10.244 5.458h0.073c0.003-0 0.006 0 0.008 0.001s0.005 0.003 0.007 0.005 0.003 0.004 0.004 0.007 0.001 0.005 0.001 0.008v1.093c0 0.003-0 0.006-0.001 0.008s-0.002 0.005-0.004 0.007-0.004 0.004-0.007 0.005-0.005 0.002-0.008 0.001h-0.073c-0.003 0-0.006-0-0.008-0.001s-0.005-0.003-0.007-0.005c-0.002-0.002-0.004-0.004-0.005-0.007s-0.001-0.006-0.001-0.008v-0.492c0-0.001 0-0.002-0-0.003s-0.001-0.002-0.002-0.003-0.002-0.001-0.003-0.002-0.002-0-0.003-0h-0.513c-0.001-0-0.002 0-0.003 0s-0.002 0.001-0.003 0.002-0.001 0.002-0.002 0.003-0.001 0.002-0 0.003v0.492c0 0.003-0 0.006-0.001 0.008s-0.003 0.005-0.005 0.007c-0.002 0.002-0.005 0.004-0.007 0.005s-0.006 0.001-0.008 0.001h-0.073c-0.003 0-0.006-0-0.008-0.001s-0.005-0.003-0.007-0.005c-0.002-0.002-0.003-0.005-0.004-0.007s-0.001-0.006-0.001-0.008v-1.096c-0-0.003-0-0.006 0.001-0.008s0.002-0.005 0.004-0.007c0.002-0.002 0.004-0.004 0.007-0.005s0.006-0.001 0.008-0.001h0.073c0.003-0 0.006 0 0.008 0.001s0.005 0.003 0.007 0.005c0.002 0.002 0.004 0.005 0.005 0.007s0.001 0.006 0.001 0.008v0.485c-0 0.001 0 0.002 0 0.003s0.001 0.002 0.002 0.003 0.002 0.001 0.003 0.002 0.002 0 0.003 0h0.514c0.001 0 0.002 0 0.003-0s0.002-0.001 0.003-0.002 0.001-0.002 0.002-0.003 0-0.002 0-0.003v-0.485c0-0.005 0.003-0.010 0.007-0.013s0.009-0.005 0.014-0.005z"></path>
<path fill="#263238" d="M10.611 6.378c-0.017-0.065-0.024-0.132-0.022-0.199-0.002-0.067 0.005-0.133 0.021-0.198 0.024-0.065 0.066-0.122 0.123-0.161s0.124-0.061 0.193-0.061c0.069 0 0.137 0.021 0.193 0.061s0.1 0.096 0.123 0.161c0.017 0.065 0.025 0.132 0.023 0.199 0.002 0.067-0.006 0.134-0.023 0.199-0.023 0.066-0.065 0.123-0.122 0.163s-0.124 0.062-0.194 0.062-0.137-0.022-0.194-0.062c-0.057-0.040-0.099-0.097-0.122-0.163v-0.002zM11.136 6.344c0.010-0.054 0.015-0.109 0.013-0.164 0.002-0.055-0.002-0.11-0.013-0.164-0.013-0.046-0.040-0.086-0.077-0.115s-0.084-0.044-0.131-0.044c-0.047 0-0.093 0.016-0.131 0.044s-0.065 0.069-0.077 0.115c-0.011 0.054-0.015 0.109-0.013 0.164-0.002 0.055 0.002 0.11 0.013 0.164 0.013 0.046 0.040 0.086 0.077 0.115s0.084 0.044 0.131 0.044 0.093-0.016 0.131-0.044c0.038-0.029 0.065-0.069 0.077-0.115z"></path>
<path fill="#263238" d="M11.498 6.569v-1.093c-0-0.003 0-0.006 0.001-0.008s0.003-0.005 0.005-0.007 0.005-0.004 0.007-0.005 0.006-0.001 0.008-0.001h0.073c0.003-0 0.006 0 0.008 0.001s0.005 0.003 0.007 0.005c0.002 0.002 0.003 0.004 0.004 0.007s0.001 0.005 0.001 0.008v1.093c0 0.003-0 0.006-0.001 0.008s-0.002 0.005-0.004 0.007c-0.002 0.002-0.004 0.004-0.007 0.005s-0.005 0.002-0.008 0.001h-0.073c-0.003 0-0.006-0-0.008-0.001s-0.005-0.003-0.007-0.005-0.004-0.004-0.005-0.007-0.001-0.006-0.001-0.008z"></path>
<path fill="#263238" d="M12.463 6.033v0.54c0 0.003-0 0.006-0.001 0.008s-0.003 0.005-0.005 0.007c-0.002 0.002-0.005 0.004-0.007 0.005s-0.006 0.001-0.008 0.001h-0.073c-0.003 0-0.006-0-0.008-0.001s-0.005-0.003-0.007-0.005c-0.002-0.002-0.004-0.004-0.005-0.007s-0.001-0.006-0.001-0.008v-0.058c0-0.007-0.005-0.010-0.010 0-0.033 0.032-0.073 0.057-0.116 0.074s-0.090 0.024-0.136 0.022c-0.138 0-0.267-0.067-0.267-0.236s0.123-0.263 0.333-0.263h0.188c0.001 0 0.002 0 0.003-0s0.002-0.001 0.003-0.002 0.001-0.002 0.002-0.003 0.001-0.002 0-0.003v-0.070c0.003-0.025-0.001-0.050-0.009-0.074s-0.023-0.045-0.041-0.062c-0.018-0.017-0.040-0.030-0.064-0.038s-0.050-0.009-0.074-0.005c-0.102 0-0.168 0.043-0.186 0.111-0 0.003-0.001 0.005-0.003 0.008s-0.004 0.004-0.006 0.006c-0.002 0.002-0.005 0.002-0.008 0.003s-0.006 0-0.008-0.001l-0.082-0.009c-0.012 0-0.020-0.007-0.019-0.018 0.020-0.118 0.141-0.199 0.307-0.199 0.2 0.003 0.309 0.115 0.309 0.279zM12.345 6.327v-0.125c0-0.001 0-0.002-0-0.003s-0.001-0.002-0.002-0.003-0.002-0.001-0.003-0.002-0.002-0-0.003-0h-0.17c-0.141 0-0.237 0.060-0.237 0.164s0.082 0.144 0.179 0.144c0.122 0.002 0.236-0.060 0.236-0.176z"></path>
<path fill="#fff" d="M33.993 10.518h-2.184c-0.442 0-0.865 0.176-1.177 0.489s-0.488 0.737-0.488 1.179v0.616l-1.089-0.042 1.092 0.714v0.462c0 0.442 0.175 0.867 0.488 1.18s0.736 0.489 1.178 0.489h2.184c0.442-0 0.865-0.176 1.177-0.489s0.488-0.737 0.488-1.18v-1.75c0-0.219-0.043-0.436-0.127-0.639s-0.207-0.387-0.362-0.542-0.339-0.278-0.541-0.361c-0.202-0.084-0.419-0.126-0.638-0.126z"></path>
<path fill="#263238" d="M32.040 13.63h0.073c0.003-0 0.005 0 0.008 0.001s0.005 0.002 0.007 0.004c0.002 0.002 0.003 0.004 0.004 0.007s0.001 0.005 0.001 0.008v1.093c0 0.003-0 0.006-0.001 0.008s-0.002 0.005-0.004 0.007c-0.002 0.002-0.004 0.004-0.007 0.005s-0.005 0.002-0.008 0.001h-0.073c-0.003 0-0.006-0-0.008-0.001s-0.005-0.003-0.007-0.005c-0.002-0.002-0.004-0.005-0.005-0.007s-0.001-0.006-0.001-0.008v-0.492c0-0.001 0-0.002-0-0.003s-0.001-0.002-0.002-0.003-0.002-0.001-0.003-0.002-0.002-0.001-0.003-0h-0.513c-0.001-0-0.002-0-0.003 0s-0.002 0.001-0.003 0.002c-0.001 0.001-0.001 0.002-0.002 0.003s-0 0.002-0 0.003v0.492c0 0.003-0 0.006-0.001 0.008s-0.003 0.005-0.005 0.007c-0.002 0.002-0.004 0.004-0.007 0.005s-0.006 0.001-0.008 0.001h-0.073c-0.003 0-0.006-0-0.008-0.001s-0.005-0.003-0.007-0.005c-0.002-0.002-0.004-0.005-0.005-0.007s-0.001-0.006-0.001-0.008v-1.093c-0-0.003 0-0.006 0.001-0.008s0.003-0.005 0.005-0.007 0.004-0.003 0.007-0.004 0.005-0.001 0.008-0.001h0.073c0.003-0 0.006 0 0.008 0.001s0.005 0.002 0.007 0.004c0.002 0.002 0.004 0.004 0.005 0.007s0.002 0.005 0.001 0.008v0.485c-0 0.001 0 0.002 0 0.003s0.001 0.002 0.002 0.003 0.002 0.001 0.003 0.002 0.002 0.001 0.003 0h0.513c0.001 0 0.002 0 0.003-0s0.002-0.001 0.003-0.002 0.001-0.002 0.002-0.003 0.001-0.002 0-0.003v-0.485c-0-0.003 0-0.006 0.001-0.008s0.003-0.005 0.005-0.007c0.002-0.002 0.004-0.003 0.007-0.004s0.005-0.001 0.008-0.001z"></path>
<path fill="#263238" d="M32.936 14.557c0.001-0.003 0.002-0.005 0.004-0.007s0.004-0.004 0.007-0.005c0.003-0.001 0.006-0.001 0.008-0.001s0.006 0.001 0.008 0.003l0.047 0.026c0.011 0.007 0.016 0.016 0.010 0.027-0.027 0.056-0.070 0.102-0.124 0.134s-0.115 0.047-0.177 0.043c-0.066 0.004-0.131-0.013-0.186-0.050s-0.096-0.090-0.117-0.153c-0.024-0.072-0.034-0.148-0.031-0.224-0.003-0.063 0.002-0.126 0.015-0.188 0.017-0.069 0.058-0.13 0.115-0.172s0.127-0.063 0.198-0.060c0.080-0.006 0.159 0.020 0.219 0.072s0.098 0.127 0.104 0.206c0.009 0.054 0.012 0.109 0.010 0.164 0 0.003-0 0.006-0.001 0.008s-0.003 0.005-0.005 0.007c-0.002 0.002-0.005 0.003-0.007 0.004s-0.006 0.001-0.008 0.001h-0.518c-0.001-0-0.002 0-0.003 0s-0.002 0.001-0.003 0.002c-0.001 0.001-0.001 0.002-0.002 0.003s-0.001 0.002-0 0.003c-0.001 0.040 0.002 0.080 0.010 0.119 0.012 0.048 0.041 0.091 0.081 0.12s0.089 0.043 0.139 0.039c0.043 0.002 0.085-0.009 0.122-0.031s0.066-0.054 0.085-0.092zM32.513 14.184c-0.009 0.036-0.013 0.073-0.013 0.111-0 0.001 0 0.002 0 0.003s0.001 0.002 0.002 0.003 0.002 0.001 0.003 0.002 0.002 0.001 0.003 0h0.416c0.001 0 0.002-0 0.003-0.001s0.002-0.001 0.002-0.002 0.001-0.002 0.002-0.003 0-0.002 0-0.003c-0.001-0.035-0.004-0.070-0.009-0.104-0.010-0.047-0.037-0.089-0.075-0.118s-0.086-0.043-0.133-0.041c-0.046-0.003-0.092 0.010-0.129 0.038s-0.062 0.068-0.072 0.113z"></path>
<path fill="#263238" d="M33.274 14.743v-1.093c-0-0.003 0-0.006 0.001-0.008s0.003-0.005 0.005-0.007 0.004-0.003 0.007-0.004 0.005-0.001 0.008-0.001h0.073c0.003-0 0.006 0 0.008 0.001s0.005 0.002 0.007 0.004 0.003 0.004 0.004 0.007 0.001 0.005 0.001 0.008v1.093c0 0.003 0 0.006-0.001 0.008s-0.002 0.005-0.004 0.007c-0.002 0.002-0.004 0.004-0.007 0.005s-0.006 0.001-0.008 0.001h-0.073c-0.003 0-0.006-0-0.008-0.001s-0.005-0.003-0.007-0.005c-0.002-0.002-0.004-0.005-0.005-0.007s-0.001-0.006-0.001-0.008z"></path>
<path fill="#263238" d="M33.65 14.743v-1.093c-0-0.003 0-0.005 0.001-0.008s0.002-0.005 0.004-0.007 0.004-0.003 0.007-0.004 0.005-0.001 0.008-0.001h0.073c0.003-0 0.006 0 0.008 0.001s0.005 0.002 0.007 0.004c0.002 0.002 0.004 0.004 0.005 0.007s0.002 0.005 0.001 0.008v1.093c0 0.003-0 0.006-0.001 0.008s-0.002 0.005-0.005 0.007c-0.002 0.002-0.004 0.004-0.007 0.005s-0.006 0.001-0.008 0.001h-0.073c-0.003 0-0.006-0-0.008-0.001s-0.005-0.003-0.007-0.005c-0.002-0.002-0.003-0.004-0.004-0.007s-0.001-0.005-0.001-0.008z"></path>
<path fill="#263238" d="M34.022 14.552c-0.017-0.065-0.025-0.132-0.023-0.199-0.002-0.067 0.005-0.133 0.021-0.198 0.024-0.065 0.067-0.121 0.123-0.161s0.124-0.061 0.193-0.061 0.137 0.021 0.193 0.061c0.057 0.040 0.1 0.096 0.123 0.161 0.017 0.065 0.024 0.132 0.022 0.199 0.002 0.067-0.005 0.134-0.022 0.199-0.023 0.066-0.065 0.123-0.122 0.163s-0.124 0.062-0.194 0.062c-0.069 0-0.137-0.022-0.194-0.062s-0.099-0.097-0.122-0.163v-0.002zM34.546 14.518c0.010-0.054 0.015-0.109 0.013-0.164 0.002-0.055-0.002-0.11-0.013-0.164-0.013-0.046-0.040-0.086-0.078-0.115s-0.084-0.044-0.131-0.044c-0.047 0-0.093 0.016-0.131 0.044s-0.065 0.069-0.077 0.115c-0.011 0.054-0.015 0.109-0.013 0.164-0.002 0.055 0.002 0.11 0.013 0.164 0.013 0.046 0.040 0.086 0.077 0.115s0.084 0.044 0.131 0.044c0.047 0 0.093-0.016 0.131-0.044s0.065-0.069 0.078-0.115z"></path>
<path fill="#fff" d="M34.304 11.246h-2.781v1.754h2.781v-1.754z"></path>
<path fill="#263238" d="M34.319 11.246h-2.781v0.17h2.781v-0.17z"></path>
<path fill="#263238" d="M34.319 11.511h-2.781v0.17h2.781v-0.17z"></path>
<path fill="#263238" d="M34.319 11.777h-2.781v0.17h2.781v-0.17z"></path>
<path fill="#263238" d="M34.319 12.042h-2.781v0.17h2.781v-0.17z"></path>
<path fill="#263238" d="M34.319 12.308h-2.781v0.17h2.781v-0.17z"></path>
<path fill="#263238" d="M34.319 12.574h-2.781v0.17h2.781v-0.17z"></path>
<path fill="#263238" d="M34.319 12.84h-2.781v0.17h2.781v-0.17z"></path>
<path fill="#263238" d="M32.871 11.246h-1.348v0.934h1.348v-0.934z"></path>
<path fill="#fff" d="M31.576 11.324l0.012 0.026 0.026 0.004-0.019 0.021 0.004 0.029-0.024-0.013-0.023 0.013 0.004-0.029-0.019-0.021 0.026-0.004 0.011-0.026z"></path>
<path fill="#fff" d="M31.576 11.498l0.012 0.026 0.026 0.004-0.019 0.021 0.004 0.029-0.024-0.014-0.023 0.014 0.004-0.029-0.019-0.021 0.026-0.004 0.011-0.026z"></path>
<path fill="#fff" d="M31.576 11.67l0.012 0.026 0.026 0.004-0.019 0.021 0.004 0.029-0.024-0.014-0.023 0.014 0.004-0.029-0.019-0.021 0.026-0.004 0.011-0.026z"></path>
<path fill="#fff" d="M31.576 11.842l0.012 0.026 0.026 0.005-0.019 0.020 0.004 0.029-0.024-0.013-0.023 0.013 0.004-0.029-0.019-0.020 0.026-0.005 0.011-0.026z"></path>
<path fill="#fff" d="M31.576 12.015l0.012 0.026 0.026 0.004-0.019 0.021 0.004 0.029-0.024-0.014-0.023 0.014 0.004-0.029-0.019-0.021 0.026-0.004 0.011-0.026z"></path>
<path fill="#fff" d="M31.699 11.425l0.011 0.026 0.026 0.004-0.019 0.021 0.004 0.029-0.023-0.013-0.024 0.013 0.004-0.029-0.019-0.021 0.026-0.004 0.012-0.026z"></path>
<path fill="#fff" d="M31.699 11.598l0.011 0.026 0.026 0.004-0.019 0.021 0.004 0.029-0.023-0.014-0.024 0.014 0.004-0.029-0.019-0.021 0.026-0.004 0.012-0.026z"></path>
<path fill="#fff" d="M31.699 11.771l0.011 0.026 0.026 0.004-0.019 0.021 0.004 0.029-0.023-0.013-0.024 0.013 0.004-0.029-0.019-0.021 0.026-0.004 0.012-0.026z"></path>
<path fill="#fff" d="M31.699 11.943l0.011 0.026 0.026 0.004-0.019 0.021 0.004 0.029-0.023-0.013-0.024 0.013 0.004-0.029-0.019-0.021 0.026-0.004 0.012-0.026z"></path>
<path fill="#fff" d="M31.822 11.324l0.012 0.026 0.026 0.004-0.020 0.021 0.005 0.029-0.024-0.013-0.024 0.013 0.005-0.029-0.020-0.021 0.027-0.004 0.011-0.026z"></path>
<path fill="#fff" d="M31.822 11.498l0.012 0.026 0.026 0.004-0.020 0.021 0.005 0.029-0.024-0.014-0.024 0.014 0.005-0.029-0.020-0.021 0.027-0.004 0.011-0.026z"></path>
<path fill="#fff" d="M31.822 11.67l0.012 0.026 0.026 0.004-0.020 0.021 0.005 0.029-0.024-0.014-0.024 0.014 0.005-0.029-0.020-0.021 0.027-0.004 0.011-0.026z"></path>
<path fill="#fff" d="M31.822 11.842l0.012 0.026 0.026 0.005-0.020 0.020 0.005 0.029-0.024-0.013-0.024 0.013 0.005-0.029-0.020-0.020 0.027-0.005 0.011-0.026z"></path>
<path fill="#fff" d="M31.822 12.015l0.012 0.026 0.026 0.004-0.020 0.021 0.005 0.029-0.024-0.014-0.024 0.014 0.005-0.029-0.020-0.021 0.027-0.004 0.011-0.026z"></path>
<path fill="#fff" d="M31.946 11.425l0.011 0.026 0.026 0.004-0.019 0.021 0.004 0.029-0.023-0.013-0.024 0.013 0.004-0.029-0.019-0.021 0.026-0.004 0.012-0.026z"></path>
<path fill="#fff" d="M31.946 11.598l0.011 0.026 0.026 0.004-0.019 0.021 0.004 0.029-0.023-0.014-0.024 0.014 0.004-0.029-0.019-0.021 0.026-0.004 0.012-0.026z"></path>
<path fill="#fff" d="M31.946 11.771l0.011 0.026 0.026 0.004-0.019 0.021 0.004 0.029-0.023-0.013-0.024 0.013 0.004-0.029-0.019-0.021 0.026-0.004 0.012-0.026z"></path>
<path fill="#fff" d="M31.946 11.943l0.011 0.026 0.026 0.004-0.019 0.021 0.004 0.029-0.023-0.013-0.024 0.013 0.004-0.029-0.019-0.021 0.026-0.004 0.012-0.026z"></path>
<path fill="#fff" d="M32.069 11.324l0.011 0.026 0.026 0.004-0.019 0.021 0.005 0.029-0.024-0.013-0.024 0.013 0.004-0.029-0.019-0.021 0.026-0.004 0.012-0.026z"></path>
<path fill="#fff" d="M32.069 11.498l0.011 0.026 0.026 0.004-0.019 0.021 0.005 0.029-0.024-0.014-0.024 0.014 0.004-0.029-0.019-0.021 0.026-0.004 0.012-0.026z"></path>
<path fill="#fff" d="M32.069 11.67l0.011 0.026 0.026 0.004-0.019 0.021 0.005 0.029-0.024-0.014-0.024 0.014 0.004-0.029-0.019-0.021 0.026-0.004 0.012-0.026z"></path>
<path fill="#fff" d="M32.069 11.842l0.011 0.026 0.026 0.005-0.019 0.020 0.005 0.029-0.024-0.013-0.024 0.013 0.004-0.029-0.019-0.020 0.026-0.005 0.012-0.026z"></path>
<path fill="#fff" d="M32.069 12.015l0.011 0.026 0.026 0.004-0.019 0.021 0.005 0.029-0.024-0.014-0.024 0.014 0.004-0.029-0.019-0.021 0.026-0.004 0.012-0.026z"></path>
<path fill="#fff" d="M32.191 11.425l0.012 0.026 0.026 0.004-0.019 0.021 0.004 0.029-0.024-0.013-0.024 0.013 0.005-0.029-0.019-0.021 0.026-0.004 0.011-0.026z"></path>
<path fill="#fff" d="M32.191 11.598l0.012 0.026 0.026 0.004-0.019 0.021 0.004 0.029-0.024-0.014-0.024 0.014 0.005-0.029-0.019-0.021 0.026-0.004 0.011-0.026z"></path>
<path fill="#fff" d="M32.191 11.771l0.012 0.026 0.026 0.004-0.019 0.021 0.004 0.029-0.024-0.013-0.024 0.013 0.005-0.029-0.019-0.021 0.026-0.004 0.011-0.026z"></path>
<path fill="#fff" d="M32.191 11.943l0.012 0.026 0.026 0.004-0.019 0.021 0.004 0.029-0.024-0.013-0.024 0.013 0.005-0.029-0.019-0.021 0.026-0.004 0.011-0.026z"></path>
<path fill="#fff" d="M32.315 11.324l0.011 0.026 0.026 0.004-0.019 0.021 0.004 0.029-0.023-0.013-0.024 0.013 0.004-0.029-0.019-0.021 0.026-0.004 0.012-0.026z"></path>
<path fill="#fff" d="M32.315 11.498l0.011 0.026 0.026 0.004-0.019 0.021 0.004 0.029-0.023-0.014-0.024 0.014 0.004-0.029-0.019-0.021 0.026-0.004 0.012-0.026z"></path>
<path fill="#fff" d="M32.315 11.67l0.011 0.026 0.026 0.004-0.019 0.021 0.004 0.029-0.023-0.014-0.024 0.014 0.004-0.029-0.019-0.021 0.026-0.004 0.012-0.026z"></path>
<path fill="#fff" d="M32.315 11.842l0.011 0.026 0.026 0.005-0.019 0.020 0.004 0.029-0.023-0.013-0.024 0.013 0.004-0.029-0.019-0.020 0.026-0.005 0.012-0.026z"></path>
<path fill="#fff" d="M32.315 12.015l0.011 0.026 0.026 0.004-0.019 0.021 0.004 0.029-0.023-0.014-0.024 0.014 0.004-0.029-0.019-0.021 0.026-0.004 0.012-0.026z"></path>
<path fill="#fff" d="M32.438 11.425l0.011 0.026 0.027 0.004-0.020 0.021 0.005 0.029-0.024-0.013-0.024 0.013 0.005-0.029-0.020-0.021 0.027-0.004 0.011-0.026z"></path>
<path fill="#fff" d="M32.438 11.598l0.011 0.026 0.027 0.004-0.020 0.021 0.005 0.029-0.024-0.014-0.024 0.014 0.005-0.029-0.020-0.021 0.027-0.004 0.011-0.026z"></path>
<path fill="#fff" d="M32.438 11.771l0.011 0.026 0.027 0.004-0.020 0.021 0.005 0.029-0.024-0.013-0.024 0.013 0.005-0.029-0.020-0.021 0.027-0.004 0.011-0.026z"></path>
<path fill="#fff" d="M32.438 11.943l0.011 0.026 0.027 0.004-0.020 0.021 0.005 0.029-0.024-0.013-0.024 0.013 0.005-0.029-0.020-0.021 0.027-0.004 0.011-0.026z"></path>
<path fill="#fff" d="M32.561 11.324l0.012 0.026 0.026 0.004-0.019 0.021 0.004 0.029-0.024-0.013-0.023 0.013 0.004-0.029-0.019-0.021 0.026-0.004 0.011-0.026z"></path>
<path fill="#fff" d="M32.561 11.498l0.012 0.026 0.026 0.004-0.019 0.021 0.004 0.029-0.024-0.014-0.023 0.014 0.004-0.029-0.019-0.021 0.026-0.004 0.011-0.026z"></path>
<path fill="#fff" d="M32.561 11.67l0.012 0.026 0.026 0.004-0.019 0.021 0.004 0.029-0.024-0.014-0.023 0.014 0.004-0.029-0.019-0.021 0.026-0.004 0.011-0.026z"></path>
<path fill="#fff" d="M32.561 11.842l0.012 0.026 0.026 0.005-0.019 0.020 0.004 0.029-0.024-0.013-0.023 0.013 0.004-0.029-0.019-0.020 0.026-0.005 0.011-0.026z"></path>
<path fill="#fff" d="M32.561 12.015l0.012 0.026 0.026 0.004-0.019 0.021 0.004 0.029-0.024-0.014-0.023 0.014 0.004-0.029-0.019-0.021 0.026-0.004 0.011-0.026z"></path>
<path fill="#fff" d="M32.685 11.425l0.011 0.026 0.026 0.004-0.019 0.021 0.005 0.029-0.024-0.013-0.024 0.013 0.004-0.029-0.019-0.021 0.026-0.004 0.012-0.026z"></path>
<path fill="#fff" d="M32.685 11.598l0.011 0.026 0.026 0.004-0.019 0.021 0.005 0.029-0.024-0.014-0.024 0.014 0.004-0.029-0.019-0.021 0.026-0.004 0.012-0.026z"></path>
<path fill="#fff" d="M32.685 11.771l0.011 0.026 0.026 0.004-0.019 0.021 0.005 0.029-0.024-0.013-0.024 0.013 0.004-0.029-0.019-0.021 0.026-0.004 0.012-0.026z"></path>
<path fill="#fff" d="M32.685 11.943l0.011 0.026 0.026 0.004-0.019 0.021 0.005 0.029-0.024-0.013-0.024 0.013 0.004-0.029-0.019-0.021 0.026-0.004 0.012-0.026z"></path>
<path fill="#fff" d="M32.807 11.324l0.012 0.026 0.026 0.004-0.019 0.021 0.004 0.029-0.024-0.013-0.024 0.013 0.005-0.029-0.019-0.021 0.026-0.004 0.011-0.026z"></path>
<path fill="#fff" d="M32.807 11.498l0.012 0.026 0.026 0.004-0.019 0.021 0.004 0.029-0.024-0.014-0.024 0.014 0.005-0.029-0.019-0.021 0.026-0.004 0.011-0.026z"></path>
<path fill="#fff" d="M32.807 11.67l0.012 0.026 0.026 0.004-0.019 0.021 0.004 0.029-0.024-0.014-0.024 0.014 0.005-0.029-0.019-0.021 0.026-0.004 0.011-0.026z"></path>
<path fill="#fff" d="M32.807 11.842l0.012 0.026 0.026 0.005-0.019 0.020 0.004 0.029-0.024-0.013-0.024 0.013 0.005-0.029-0.019-0.020 0.026-0.005 0.011-0.026z"></path>
<path fill="#fff" d="M32.807 12.015l0.012 0.026 0.026 0.004-0.019 0.021 0.004 0.029-0.024-0.014-0.024 0.014 0.005-0.029-0.019-0.021 0.026-0.004 0.011-0.026z"></path>
<path fill="#fff" d="M13.402 13.055h-1.436c-0.216-0.675-0.678-1.244-1.294-1.592s-1.341-0.451-2.030-0.288c-0.689 0.164-1.29 0.582-1.684 1.171s-0.552 1.305-0.441 2.005c0.11 0.7 0.48 1.333 1.036 1.771s1.257 0.651 1.962 0.594c0.705-0.057 1.364-0.378 1.843-0.9s0.744-1.205 0.742-1.914c0-0.021 0-0.042 0-0.063l1.302-0.784z"></path>
<path fill="#263238" d="M7.93 14.84c-0.051 0.089-0.108 0.174-0.171 0.254-0.021-0.031-0.044-0.060-0.070-0.088 0.177-0.237 0.309-0.505 0.39-0.789l0.134 0.040c-0.007 0.016-0.020 0.020-0.039 0.018-0.044 0.131-0.095 0.259-0.154 0.384l0.047 0.013c0 0.010-0.011 0.018-0.032 0.019v1.031h-0.106v-0.882zM9.038 14.879c0.013-0.060 0.030-0.151 0.043-0.239h-0.322v0.947c0 0.117-0.042 0.138-0.269 0.138-0.008-0.039-0.022-0.076-0.040-0.112 0.040 0 0.082 0 0.11 0h0.065c0.021 0 0.028-0.007 0.028-0.028v-0.945h-0.26c-0.042 0.109-0.097 0.212-0.164 0.307-0.025-0.025-0.052-0.048-0.082-0.066 0.133-0.2 0.224-0.424 0.267-0.66l0.134 0.036c0 0.011-0.014 0.018-0.035 0.016-0.022 0.090-0.050 0.179-0.082 0.266h0.772c-0.017 0.12-0.041 0.239-0.073 0.356l-0.093-0.016zM8.52 14.933c-0.005 0.011-0.016 0.018-0.036 0.018-0.047 0.194-0.131 0.378-0.246 0.541-0.027-0.021-0.056-0.040-0.086-0.056 0.115-0.163 0.195-0.348 0.237-0.543l0.131 0.039zM9.108 15.479c-0.049-0.196-0.123-0.384-0.222-0.559l0.096-0.034c0.102 0.173 0.179 0.359 0.23 0.554l-0.104 0.039z"></path>
<path fill="#263238" d="M9.882 14.555l0.061 0.016-0.010 0.023c-0.012 0.24-0.065 0.475-0.156 0.697 0.071 0.051 0.135 0.11 0.192 0.176l-0.066 0.089c-0.051-0.063-0.109-0.119-0.173-0.169-0.074 0.14-0.185 0.257-0.32 0.339-0.019-0.032-0.042-0.062-0.068-0.089 0.13-0.073 0.235-0.183 0.304-0.316-0.059-0.045-0.121-0.086-0.184-0.125l-0.020 0.071-0.093-0.048c0.041-0.143 0.091-0.349 0.138-0.558h-0.164v-0.103h0.184c0.026-0.121 0.048-0.238 0.068-0.342l0.133 0.016c0 0.011-0.011 0.018-0.032 0.020-0.018 0.093-0.041 0.198-0.065 0.306h0.246l0.024-0.004zM9.59 14.662c-0.034 0.151-0.071 0.303-0.106 0.436 0.068 0.038 0.138 0.082 0.206 0.129 0.073-0.18 0.119-0.37 0.134-0.564h-0.234zM10.825 14.941v0.105h-0.391v0.537c0 0.125-0.048 0.144-0.335 0.141-0.010-0.037-0.023-0.074-0.040-0.108h0.194c0.055 0 0.071 0 0.071-0.034v-0.538h-0.396v-0.105h0.396v-0.276h0.053c0.089-0.079 0.17-0.168 0.24-0.264h-0.623v-0.103h0.705l0.021-0.007 0.086 0.054c-0.007 0.008-0.016 0.013-0.026 0.016-0.099 0.139-0.216 0.265-0.346 0.375v0.201l0.391 0.007z"></path>
<path fill="#263238" d="M10.687 11.956h-2.781v1.754h2.781v-1.754z"></path>
<path fill="#fff" d="M8.234 12.060l0.068 0.137 0.15 0.021-0.109 0.107 0.026 0.149-0.135-0.071-0.134 0.071 0.026-0.149-0.109-0.107 0.15-0.021 0.067-0.137z"></path>
<path fill="#fff" d="M8.671 12.006l0.035 0.071 0.077 0.011-0.056 0.054 0.013 0.077-0.070-0.036-0.069 0.036 0.013-0.077-0.056-0.054 0.078-0.011 0.034-0.071z"></path>
<path fill="#fff" d="M8.765 12.362l0.034 0.071 0.078 0.011-0.057 0.055 0.013 0.077-0.069-0.036-0.070 0.036 0.013-0.077-0.056-0.055 0.077-0.011 0.035-0.071z"></path>
<path fill="#fff" d="M8.534 12.595l0.034 0.070 0.078 0.011-0.056 0.055 0.013 0.077-0.070-0.037-0.069 0.037 0.013-0.077-0.056-0.055 0.078-0.011 0.034-0.070z"></path>
<path fill="#fff" d="M8.214 12.702l0.034 0.070 0.078 0.011-0.056 0.055 0.013 0.077-0.070-0.036-0.069 0.036 0.013-0.077-0.056-0.055 0.078-0.011 0.034-0.070z"></path>
<path fill="none" stroke="#263238" stroke-linejoin="round" stroke-linecap="round" stroke-miterlimit="4" stroke-width="0.3765" d="M24.916 8.921v-2.52"></path>
<path fill="none" stroke="#263238" stroke-linejoin="round" stroke-linecap="round" stroke-miterlimit="4" stroke-width="0.3765" d="M16.939 6.4v2.52"></path>
<path fill="#fff" d="M19.379 12.702c0 0 0.212 1.484 0.17 1.866s-0.127 0.763-1.185 0.339c-1.058-0.424-2.963 0.34-4.19 1.823s-3.555 6.444-3.555 7.038c0 0.593 0.465 1.395 1.311 1.526s2.836-2.289 2.836-2.289 0.846 4.79 0.846 5.169c0 0.378-0.379 2.883-0.379 2.883h11.978l-0.466-3.095 0.847-6.826c0 0 3.513 4.79 4.275 5.005s1.947-0.17 2.243-1.060c0.297-0.89-0.17-1.823-0.763-2.501s-4.317-6.656-4.996-7.207c-0.68-0.55-2.582-0.594-3.259-0.424s-1.82 0.424-2.117 0.254c-0.296-0.17-0.296-1.78 0-2.501 0.003 0.002-2.579 0.68-3.595 0.002z"></path>
<path fill="#fff" d="M28.873 24.865c0.567-0.307 1.109-0.659 1.621-1.052 0.735-0.565 1.658-0.827 2.58-0.732 0.844 0.091 1.302 1.143 1.324 2.195s-0.548 1.692-1.575 1.852c-1.027 0.16-2.238-0.068-2.99-0.251-0.398-0.101-0.803-0.178-1.211-0.229 0 0-0.981-1.51 0.251-1.784z"></path>
<path fill="#fff" d="M34.397 25.276c-0.022-1.053-0.479-2.104-1.324-2.195-0.922-0.095-1.845 0.167-2.58 0.732l-0.115 0.088c0.983 0.034 2.97 0.436 2.659 3.185 0.891-0.214 1.381-0.834 1.36-1.809z"></path>
<path fill="#fff" d="M19.379 12.702c0 0 0.212 1.484 0.17 1.866-0.032 0.286-0.088 0.574-0.559 0.519 0.675 1.105 2.635 3.699 4.464 0.164-0.213 0.013-0.385 0-0.477-0.051-0.296-0.17-0.296-1.78 0-2.501 0 0.004-2.582 0.683-3.597 0.004z"></path>
<path fill="#263238" d="M19.379 12.702c0 0 0.055 0.386 0.103 0.814 0.491 0.261 1.034 0.408 1.589 0.433 0.613 0.010 1.216-0.165 1.729-0.501 0.027-0.255 0.087-0.505 0.176-0.746 0 0-2.582 0.678-3.597 0z"></path>
<path fill="#263238" d="M17.053 7.571h-0.233c-0.287 0-0.519 0.233-0.519 0.52v1.99c0 0.287 0.233 0.52 0.519 0.52h0.233c0.287 0 0.519-0.233 0.519-0.52v-1.99c0-0.287-0.232-0.52-0.519-0.52z"></path>
<path fill="#fff" d="M17.066 7.573c-0.019 0-0.038 0-0.058 0h-0.144c-0.020 0-0.039 0-0.058 0v3.026c0.020 0 0.039 0 0.058 0h0.144c0.020 0 0.039 0 0.058 0v-3.026z"></path>
<path fill="#263238" d="M25.057 7.571h-0.233c-0.287 0-0.519 0.233-0.519 0.52v1.99c0 0.287 0.233 0.52 0.519 0.52h0.233c0.287 0 0.519-0.233 0.519-0.52v-1.99c0-0.287-0.232-0.52-0.519-0.52z"></path>
<path fill="#fff" d="M25.070 7.573c-0.019 0-0.038 0-0.058 0h-0.144c-0.020 0-0.039 0-0.058 0v3.026c0.019 0 0.039 0 0.058 0h0.144c0.020 0 0.039 0 0.058 0v-3.026z"></path>
<path fill="#fff" d="M14.936 9.964c-0.099 0.009-0.194 0.043-0.277 0.098s-0.151 0.13-0.197 0.219c-0.19 0.317-0.79 1.488-0.727 1.837s2.687 2.818 2.687 2.976c0 0.158-2.086 3.008-3.478 4.275s-2.497 2.691-2.687 3.831c-0.19 1.14 0.474 2.090 1.17 2.28s1.549-0.221 2.529-1.457c0.98-1.236 3.668-6.618 4.079-8.45 0 0 0.094-0.82-0.285-1.299s-1.328-1.583-1.328-1.583c0 0 0.19-2.185 0.032-2.343s-0.316 0.19-0.316 0.19-0.147-0.733-0.348-0.697c-0.22 0.039-0.284 0.317-0.284 0.317s-0.158-0.637-0.569-0.194z"></path>
<path fill="#fff" d="M14.332 17.89c-0.432 0.52-0.896 1.013-1.388 1.477-1.392 1.266-2.497 2.691-2.687 3.831s0.474 2.090 1.17 2.28c0.696 0.19 1.549-0.222 2.529-1.457 0.564-0.711 1.693-2.794 2.628-4.785-1.425-0.379-2.013-0.97-2.252-1.346z"></path>
<path fill="#fff" d="M17.544 6.001c0 0-0.055 4.408 0.111 5.235s1.65 2.232 3.358 2.287c1.708 0.055 3.053-1.515 3.218-2.342s0-4.132-0.027-5.455c-0.027-1.323-1.926-2.507-3.85-2.204s-2.92 1.432-2.81 2.48z"></path>
<path fill="#fff" d="M22.138 10.519c0 0-1.486 0.19-2.146-0.466 0 0 0.164 1.020 0.66 1.185s1.486-0.72 1.486-0.72z"></path>
<path fill="#263238" d="M22.468 4.843c0 0 0.713 2.292 1.795 2.885-0.024-0.786-0.052-1.524-0.061-2.003-0.028-1.323-1.926-2.507-3.85-2.204s-2.916 1.432-2.806 2.48c0 0-0.009 0.72-0.008 1.633 0.929-0.401 3.375-1.519 4.931-2.79z"></path>
<path fill="#263238" d="M22.763 13.104c0 0 0 0.999-0.748 2.592s-0.78 3.185-0.281 4.371 1.84 1.656 3.276 1.125c1.437-0.531 1.621-2.904 1.465-4.341s-1.556-3.123-1.871-3.966c-0.315-0.843-0.53-1.28-0.53-1.28s-0.811 1.124-1.311 1.373l-0.002 0.126z"></path>
<path fill="#263238" d="M26.61 21.943l-5.318-0.215c-0.235-0.009-0.432 0.173-0.442 0.408l-0.296 7.355c-0.009 0.235 0.173 0.433 0.408 0.443l5.318 0.215c0.235 0.009 0.432-0.173 0.442-0.408l0.296-7.355c0.009-0.235-0.173-0.433-0.408-0.443z"></path>
<path fill="#fff" d="M29.32 24.918c0 0-2.723-0.848-3.187-0.991s-3.139 1.858-3.246 2.144c-0.106 0.286 0.285 0.286 0.285 0.286s-0.164 0.285 0.082 0.428c0.078 0.052 0.16 0.097 0.246 0.134 0 0-0.142 0.322 0.143 0.429s0.678-0.179 0.678-0.179l0.642-0.464c0 0-0.772 0.946-0.607 1.144 0.227 0.271 0.372-0.020 0.372-0.020l0.887-1.053 0.891-0.429c0 0 0.713 0.429 1.855 0.464s1.392-0.464 1.392-0.464z"></path>
</svg>
