<!-- Generated by IcoMoon.io -->
<svg version="1.1" xmlns="http://www.w3.org/2000/svg" width="43" height="32" viewBox="0 0 43 32">
<title>online</title>
<path fill="#c8c8c8" d="M30.837 27.482c0.997-0.702 1.813-1.628 2.383-2.705 3.562-6.656 2.757-16.47-4.102-20.679-3.17-1.945-7.733-3.176-11.16-1.178-2.779 1.62-4.482 4.671-5.892 7.447-0.885 1.748-1.615 3.625-2.707 5.258-1.416 2.118-2.974 4.947-1.401 7.408 2.144 3.352 6.193 4.883 9.865 5.891 3.984 1.093 8.464 1.249 12.144-0.884 0.298-0.173 0.588-0.359 0.869-0.558z"></path>
<path fill="#fff" opacity="0.7" d="M30.837 27.482c0.997-0.702 1.813-1.628 2.383-2.705 3.562-6.656 2.757-16.47-4.102-20.679-3.17-1.945-7.733-3.176-11.16-1.178-2.779 1.62-4.482 4.671-5.892 7.447-0.885 1.748-1.615 3.625-2.707 5.258-1.416 2.118-2.974 4.947-1.401 7.408 2.144 3.352 6.193 4.883 9.865 5.891 3.984 1.093 8.464 1.249 12.144-0.884 0.298-0.173 0.588-0.359 0.869-0.558z"></path>
<path fill="#263238" d="M26.050 4.552h-16.991v15.086h16.991v-15.086z"></path>
<path fill="#fff" d="M25.728 4.185h-16.991v15.086h16.991v-15.086z"></path>
<path fill="#fff" d="M22.419 10.273h0.845v-0.843h-0.845v0.843z"></path>
<path fill="#fff" d="M23.525 10.273h0.845v-0.843h-0.845v0.843z"></path>
<path fill="#fff" d="M22.419 12.262h0.845v-0.843h-0.845v0.843z"></path>
<path fill="#fff" d="M23.525 12.262h0.845v-0.843h-0.845v0.843z"></path>
<path fill="#fff" d="M22.419 14.252h0.845v-0.843h-0.845v0.843z"></path>
<path fill="#fff" d="M23.525 14.252h0.845v-0.843h-0.845v0.843z"></path>
<path fill="#fff" d="M14.342 10.273h0.845v-0.843h-0.845v0.843z"></path>
<path fill="#fff" d="M15.448 10.273h0.845v-0.843h-0.845v0.843z"></path>
<path fill="#fff" d="M14.342 12.262h0.845v-0.843h-0.845v0.843z"></path>
<path fill="#fff" d="M15.448 12.262h0.845v-0.843h-0.845v0.843z"></path>
<path fill="#fff" d="M14.342 14.252h0.845v-0.843h-0.845v0.843z"></path>
<path fill="#fff" d="M15.448 14.252h0.845v-0.843h-0.845v0.843z"></path>
<path fill="#fff" d="M10.909 17.149h-0.931v0.929h0.931v-0.929z"></path>
<path fill="#fff" d="M14.708 17.149h-0.931v0.929h0.931v-0.929z"></path>
<path fill="#fff" d="M18.658 17.149h-0.931v0.929h0.931v-0.929z"></path>
<path fill="#fff" d="M25.728 4.185h-16.991v2.357h16.991v-2.357z"></path>
<path fill="#dbdbdb" d="M25.728 4.185h-0.64v15.086h0.64v-15.086z"></path>
<path fill="#949494" d="M25.728 6.452h-0.64v2.912h0.64v-2.912z"></path>
<path fill="#dbdbdb" d="M25.728 4.185h-16.991v1.146h16.991v-1.146z"></path>
<path fill="#fff" d="M16.299 4.518h-6.701v0.477h6.701v-0.477z"></path>
<path fill="#263238" d="M14.672 7.495c0-0.147 0.078-0.231 0.22-0.231s0.219 0.084 0.219 0.231v0.477c0 0.147-0.077 0.231-0.219 0.231s-0.22-0.084-0.22-0.231v-0.477zM14.817 7.981c0 0.065 0.029 0.090 0.075 0.090s0.075-0.025 0.075-0.090v-0.497c0-0.066-0.029-0.091-0.075-0.091s-0.075 0.025-0.075 0.091v0.497z"></path>
<path fill="#263238" d="M15.334 7.528v0.664h-0.13v-0.918h0.181l0.149 0.549v-0.549h0.129v0.918h-0.149l-0.18-0.664z"></path>
<path fill="#263238" d="M15.766 7.274h0.145v0.787h0.24v0.131h-0.383l-0.002-0.918z"></path>
<path fill="#263238" d="M16.213 7.274h0.145v0.918h-0.145v-0.918z"></path>
<path fill="#263238" d="M16.591 7.528v0.664h-0.128v-0.918h0.181l0.149 0.549v-0.549h0.128v0.918h-0.147l-0.183-0.664z"></path>
<path fill="#263238" d="M17.168 7.661h0.199v0.131h-0.199v0.268h0.249v0.131h-0.394v-0.918h0.394v0.131h-0.249l-0.001 0.256z"></path>
<path fill="#263238" d="M17.669 7.274h0.447v0.131h-0.151v0.787h-0.145v-0.787h-0.151v-0.131z"></path>
<path fill="#263238" d="M18.324 7.661h0.198v0.131h-0.198v0.268h0.249v0.131h-0.394v-0.918h0.394v0.131h-0.249v0.256z"></path>
<path fill="#263238" d="M18.858 7.263c0.141 0 0.213 0.084 0.213 0.231v0.029h-0.137v-0.038c0-0.066-0.026-0.091-0.072-0.091s-0.072 0.025-0.072 0.091c0 0.186 0.282 0.224 0.282 0.487 0 0.147-0.073 0.231-0.215 0.231s-0.213-0.084-0.213-0.231v-0.057h0.137v0.066c0 0.065 0.029 0.089 0.075 0.089s0.075-0.024 0.075-0.089c0-0.186-0.282-0.224-0.282-0.487-0.004-0.147 0.070-0.231 0.21-0.231z"></path>
<path fill="#263238" d="M19.113 7.274h0.447v0.131h-0.151v0.787h-0.143v-0.787h-0.151l-0.002-0.131z"></path>
<path fill="#263238" d="M10.703 16.925h-0.146l-0.025-0.167h-0.175l-0.025 0.167h-0.135l0.147-0.918h0.212l0.148 0.918zM10.373 16.634h0.139l-0.070-0.464-0.070 0.464z"></path>
<path fill="#263238" d="M14.441 16.217v0.032c0 0.095-0.029 0.155-0.093 0.186 0.078 0.030 0.108 0.099 0.108 0.196v0.075c0 0.142-0.075 0.218-0.219 0.218h-0.227v-0.917h0.218c0.15 0 0.214 0.070 0.214 0.209zM14.153 16.137v0.242h0.057c0.053 0 0.087-0.024 0.087-0.097v-0.051c0-0.066-0.023-0.095-0.074-0.095h-0.070zM14.153 16.51v0.282h0.083c0.049 0 0.075-0.022 0.075-0.091v-0.079c0-0.086-0.027-0.112-0.093-0.112h-0.065z"></path>
<path fill="#263238" d="M18.428 16.583v0.124c0 0.147-0.073 0.231-0.215 0.231s-0.216-0.084-0.216-0.231v-0.477c0-0.147 0.073-0.231 0.216-0.231s0.215 0.084 0.215 0.231v0.090h-0.136v-0.102c0-0.066-0.029-0.091-0.075-0.091s-0.075 0.025-0.075 0.091v0.497c0 0.066 0.029 0.090 0.075 0.090s0.075-0.024 0.075-0.090v-0.131h0.136z"></path>
<path fill="#000" opacity="0.09" d="M31.608 17.853h-0.116l-0.020-0.132h-0.141l-0.020 0.132h-0.105l0.117-0.728h0.168l0.117 0.728zM31.347 17.622h0.11l-0.055-0.369-0.055 0.369z"></path>
<path fill="#000" opacity="0.09" d="M33.24 17.292v0.026c0.004 0.029-0 0.059-0.014 0.085s-0.034 0.048-0.060 0.062c0.029 0.013 0.053 0.036 0.069 0.064s0.021 0.061 0.017 0.092v0.062c0.003 0.023 0 0.047-0.008 0.070s-0.021 0.043-0.037 0.059c-0.017 0.017-0.037 0.029-0.060 0.037s-0.046 0.010-0.070 0.007h-0.18v-0.73h0.173c0.118 0 0.169 0.055 0.169 0.167zM33.012 17.23v0.193h0.045c0.042 0 0.069-0.019 0.069-0.077v-0.040c0-0.052-0.017-0.075-0.059-0.075h-0.055zM33.012 17.526v0.224h0.065c0.039 0 0.062-0.017 0.062-0.072v-0.062c0-0.067-0.022-0.088-0.074-0.088l-0.054-0.002z"></path>
<path fill="#000" opacity="0.09" d="M34.892 17.584v0.096c0 0.117-0.058 0.183-0.171 0.183s-0.171-0.067-0.171-0.183v-0.378c0-0.117 0.059-0.183 0.171-0.183s0.171 0.067 0.171 0.183v0.071h-0.108v-0.081c0-0.052-0.023-0.072-0.059-0.072s-0.062 0.019-0.062 0.072v0.393c0 0.052 0.023 0.071 0.062 0.071s0.059-0.019 0.059-0.071v-0.101h0.108z"></path>
<path fill="#9e9e9e" d="M28.092 28.474l0.401-6.078 0.295-2.89-0.81-0.902-0.406-0.295c0 0-0.572 0.497-0.978 0.607s-0.796 0.221-0.796 0.221c0 0-1.384 2.595-1.495 3.773s-0.295 5.541-0.295 5.541l0.154 0.022h3.93z"></path>
<path fill="#263238" d="M26.027 19.076c0.069 0.491 0.107 0.986 0.114 1.482 0 0 0.416-0.166 0.748-0.746 0.183-0.311 0.341-0.637 0.472-0.973l-1.334 0.237z"></path>
<path fill="#fff" d="M28.092 28.474l0.361-5.465c-0.354 0.18-1.052 0.478-1.823 0.491-0.923 0.015-2.067-0.7-2.067-0.7l-0.257 0.101c0 0.003 0 0.007 0 0.010-0.111 1.181-0.295 5.541-0.295 5.541l0.154 0.022h3.928z"></path>
<path fill="#fff" d="M27.491 25.415c0 1.408 0.049 2.762 0.062 3.058h2.72c0.037-0.439 0.272-3.17 0.392-4.148 0.131-1.070 0.994-2.662 0.994-3.232s0.175-0.48-0.613-0.894c-0.788-0.415-2.525-1.309-2.765-1.419s-0.503-0.373-0.503-0.373c0 0 0.087 0.546 0.062 2.029s-0.349 3.388-0.349 4.979z"></path>
<path fill="#000" opacity="0.04000000000000001" d="M27.778 18.412c0.032 0.258 0.051 0.518 0.056 0.778v-0.725c-0.035-0.032-0.056-0.053-0.056-0.053z"></path>
<path fill="#000" opacity="0.04000000000000001" d="M31.354 21.964v0.186c0.021-0.056 0.042-0.111 0.062-0.165v-0.022h0.008c0.008-0.021 0.016-0.042 0.023-0.062h-0.031v-0.774h0.241c0-0.009 0-0.019 0-0.029s0-0.022 0-0.034h-0.241v-0.663c-0.019-0.012-0.040-0.023-0.062-0.035v0.698h-0.654v-0.777h0.506l-0.117-0.062h-0.389v-0.205l-0.062-0.033v0.236h-0.654v-0.576l-0.062-0.032v0.608h-0.654v-0.775h0.326l-0.121-0.062h-0.205v-0.105l-0.062-0.032v0.137h-0.654v-0.469c-0.022-0.011-0.042-0.022-0.062-0.031v0.5h-0.648c0 0.020 0 0.041 0 0.062h0.648v0.777h-0.642c0 0.021 0 0.041 0 0.062h0.642v0.777h-0.654v-0.295c-0.012 0.303-0.035 0.622-0.062 0.945v0.186h-0.016l-0.006 0.062h0.022v0.779h-0.093l-0.006 0.062h0.103v0.777h-0.177l-0.006 0.062h0.183v0.777h-0.243l-0.004 0.062h0.249v0.777h-0.276c0 0.021 0 0.042 0 0.062h0.277v0.777h-0.275c0 0.021 0 0.042 0 0.062h0.274v0.777h-0.262c0 0.021 0 0.042 0 0.062h0.261v1.476h0.062v-1.478h0.65v1.476h0.062v-1.476h0.654v1.476h0.062v-1.476h0.654v1.476h0.062v-1.476h0.419c0-0.020 0-0.041 0.006-0.062h-0.425v-0.775h0.498c0-0.020 0.004-0.041 0.006-0.062h-0.505v-0.777h0.576c0-0.021 0.004-0.041 0.006-0.062h-0.582v-0.777h0.654v0.083l0.027-0.238c0.009-0.070 0.020-0.142 0.035-0.216v-0.468h0.117l0.019-0.062h-0.135v-0.777h0.405c0.008-0.020 0.016-0.042 0.024-0.062h-0.429v-0.777l0.654-0.002zM30.7 21.127h0.654v0.777h-0.654v-0.777zM28.488 26.936h-0.654v-0.775h0.654v0.775zM28.488 26.097h-0.654v-0.777h0.654v0.777zM28.488 25.258h-0.654v-0.775h0.654v0.775zM28.488 24.419h-0.654v-0.777h0.654v0.777zM28.488 23.58h-0.654v-0.775h0.654v0.775zM28.488 22.741h-0.654v-0.777h0.654v0.777zM28.488 21.902h-0.654v-0.775h0.654v0.775zM29.204 26.936h-0.654v-0.775h0.654v0.775zM29.204 26.097h-0.654v-0.777h0.654v0.777zM29.204 25.258h-0.654v-0.775h0.654v0.775zM29.204 24.419h-0.654v-0.777h0.654v0.777zM29.204 23.58h-0.654v-0.775h0.654v0.775zM29.204 22.741h-0.654v-0.777h0.654v0.777zM29.204 21.902h-0.654v-0.775h0.654v0.775zM29.204 21.063h-0.654v-0.777h0.654v0.777zM29.204 20.224h-0.654v-0.775h0.654v0.775zM29.921 26.936h-0.654v-0.775h0.654v0.775zM29.921 26.097h-0.654v-0.777h0.654v0.777zM29.921 25.258h-0.654v-0.775h0.654v0.775zM29.921 24.419h-0.654v-0.777h0.654v0.777zM29.921 23.58h-0.654v-0.775h0.654v0.775zM29.921 22.741h-0.654v-0.777h0.654v0.777zM29.921 21.902h-0.654v-0.775h0.654v0.775zM29.921 21.063h-0.654v-0.777h0.654v0.777zM30.637 24.419h-0.654v-0.777h0.654v0.777zM30.637 23.58h-0.654v-0.775h0.654v0.775zM30.637 22.741h-0.654v-0.777h0.654v0.777zM30.637 21.902h-0.654v-0.775h0.654v0.775zM30.637 21.063h-0.654v-0.777h0.654v0.777z"></path>
<path fill="#263238" d="M27.778 18.412c0 0 0.087 0.546 0.062 2.029-0.005 0.373-0.030 0.776-0.062 1.191 0.075-0.102 0.316-0.43 0.374-0.449 0.065-0.022 0.416 0.306 0.7 0.349s0.394 0.044 0.088-0.284c-0.306-0.328-0.436-1.287-0.547-2.008-0.021-0.154-0.055-0.306-0.102-0.455h-0.008c-0.243-0.112-0.505-0.374-0.505-0.374z"></path>
<path fill="#fff" d="M21.658 28.474h3.061c0.007-0.239 0.095-3.28 0.155-4.832 0.062-1.616 1.161-4.067 1.161-4.067s0.147-0.346-0.009-0.501c-0.156-0.155-0.53-0.093-0.81 0.124s-2.866 1.336-3.022 1.492c-0.156 0.155-0.125 0.684-0.187 1.305s-1.090 4.91-1.090 4.91c0 0-0.28 0.062-0.374 0.124s-0.093 0.249-0.093 0.249 0.125 0.031 0.498 0.218c0.344 0.172 0.661 0.868 0.71 0.979z"></path>
<path fill="#000" opacity="0.2" d="M25.622 20.286v0.318c0.021-0.057 0.042-0.113 0.062-0.166v-0.152h0.058l0.024-0.062h-0.083v-0.775h0.392c0.004-0.019 0.009-0.040 0.012-0.062h-0.405v-0.39c-0.021 0.003-0.041 0.006-0.062 0.011v0.379h-0.654v-0.042l-0.062 0.032v0.011h-0.021l-0.125 0.062h0.146v0.777h-0.654v-0.535l-0.062 0.029v0.503h-0.654v-0.198l-0.062 0.029v0.169h-0.362l-0.132 0.062h0.494v0.779h-0.654v-0.702l-0.062 0.030v0.672h-0.654v-0.157c-0.035 0.226-0.056 0.455-0.062 0.684v0.311h-0.022l-0.006 0.062h0.028v0.778h-0.168l-0.013 0.062h0.181v0.777h-0.35c-0.004 0.020-0.009 0.042-0.014 0.062h0.363v0.777h-0.539c-0.005 0.021-0.009 0.042-0.014 0.062h0.553v0.777h-0.654v-0.342l-0.062 0.268v0.070h-0.016l-0.014 0.062h0.031v0.78h-0.213l-0.015 0.062h0.228v0.777h-0.529c-0.064 0.017-0.126 0.038-0.187 0.062v0.338c0.019 0.008 0.039 0.016 0.062 0.027v-0.365h0.654v0.87c0.022 0.031 0.042 0.062 0.062 0.094v-0.963h0.654v1.476h0.062v-1.479h0.654v1.476h0.062v-1.476h0.654v1.476h0.062v-1.476h0.654v1.476h0.062v-1.476h0.512v-0.062h-0.512v-0.775h0.538v-0.062h-0.538v-0.777h0.564v-0.062h-0.564v-0.777h0.593c0-0.021 0-0.042 0-0.062h-0.593v-0.777h0.623c0-0.020 0-0.041 0.003-0.062h-0.626v-0.777h0.654v0.459c0.016-0.132 0.037-0.268 0.062-0.407v-0.053h0.010c0.004-0.020 0.008-0.041 0.012-0.062h-0.022v-0.777h0.209c0.006-0.020 0.012-0.041 0.017-0.062h-0.226v-0.777h0.467c0.007-0.020 0.014-0.042 0.021-0.062h-0.488v-0.777l0.654-0.002zM24.968 19.449h0.654v0.777h-0.654v-0.777zM22.039 26.938h-0.654v-0.777h0.654v0.777zM22.039 26.099h-0.654v-0.777h0.654v0.777zM22.756 26.938h-0.654v-0.777h0.654v0.777zM22.756 26.099h-0.654v-0.777h0.654v0.777zM22.756 25.26h-0.654v-0.777h0.654v0.777zM22.756 24.421h-0.654v-0.777h0.654v0.777zM22.756 23.582h-0.654v-0.777h0.654v0.777zM22.756 22.743h-0.654v-0.777h0.654v0.777zM22.756 21.904h-0.654v-0.777h0.654v0.777zM23.472 26.938h-0.654v-0.777h0.654v0.777zM23.472 26.099h-0.654v-0.777h0.654v0.777zM23.472 25.26h-0.654v-0.777h0.654v0.777zM23.472 24.421h-0.654v-0.777h0.654v0.777zM23.472 23.582h-0.654v-0.777h0.654v0.777zM23.472 22.743h-0.654v-0.777h0.654v0.777zM23.472 21.904h-0.654v-0.777h0.654v0.777zM24.189 26.938h-0.654v-0.777h0.654v0.777zM24.189 26.099h-0.654v-0.777h0.654v0.777zM24.189 25.26h-0.654v-0.777h0.654v0.777zM24.189 24.421h-0.654v-0.777h0.654v0.777zM24.189 23.582h-0.654v-0.777h0.654v0.777zM24.189 22.743h-0.654v-0.777h0.654v0.777zM24.189 21.904h-0.654v-0.777h0.654v0.777zM24.189 21.065h-0.654v-0.777h0.654v0.777zM24.905 22.743h-0.654v-0.777h0.654v0.777zM24.905 21.904h-0.654v-0.777h0.654v0.777zM24.905 21.065h-0.654v-0.777h0.654v0.777z"></path>
<path fill="#263238" d="M20.45 27.28c0 0 0.125 0.031 0.498 0.218s0.716 0.994 0.716 0.994h0.604c0.038-0.113 0.131-0.525-0.292-1.026-0.498-0.59-1.059-0.559-1.059-0.559s-0.28 0.062-0.374 0.124c-0.093 0.062-0.093 0.249-0.093 0.249z"></path>
<path fill="#263238" d="M25.65 19c-0.134 0.354-0.451 1.154-0.714 1.535-0.343 0.497-0.966 0.901-0.748 1.088s0.841-0.404 0.841-0.404 0.156 0.435 0.187 0.559c0.002 0.006 0.004 0.011 0.008 0.015 0.225-0.755 0.495-1.496 0.81-2.218 0 0 0.147-0.346-0.009-0.501-0.080-0.081-0.217-0.102-0.376-0.074z"></path>
<path fill="#9e9e9e" d="M24.922 18.344c0 0 0.588 0.843 1.113 1.231s0.974-0.155 1.325-0.738c0.351-0.583 0.584-1.011 0.76-1.516s0-1.341-0.701-2.001c-0.701-0.661-2.338-1.633-2.747-1.127s-0.799 1.616-0.526 2.565c0.163 0.571 0.425 1.108 0.776 1.587z"></path>
<path fill="#263238" d="M25.177 17.051c0.019 0.101-0.005 0.19-0.053 0.198s-0.101-0.066-0.12-0.167 0.005-0.19 0.053-0.198c0.048-0.009 0.101 0.066 0.12 0.167z"></path>
<path fill="#263238" d="M26.911 17.078c0.018 0.101-0.006 0.186-0.053 0.198s-0.101-0.066-0.12-0.167 0.005-0.19 0.053-0.198c0.048-0.009 0.101 0.066 0.12 0.167z"></path>
<path fill="#263238" d="M24.733 14.621c0 0 0.865 1.969 0.974 2.023s0.325-0.593 0.325-0.593 0.297 0.539 0.65 0.701c0.353 0.162 0.46-0.108 0.46-0.108 0.177 0.099 0.348 0.207 0.514 0.324l0.135 0.108 0.135 0.485c0 0-0.406 1.322-0.27 1.484s0.892-0.054 0.892-0.054c0 0-0.187 0.27 0.054 0.27s0.676 0.054 1.298-0.782c0.622-0.837 0.676-2.185 0.676-2.185s0.297 0.323 0.325-0.081c0.027-0.405-0.352-1.079-0.352-1.079s0.595 0.594 0.541-0.027c-0.054-0.62-0.406-1.322-0.541-1.483s-0.947-0.621-0.947-0.621 0.325-0.054 0.082-0.432c-0.243-0.378-1.136-0.485-1.46-0.485s-1.001 0.108-1.001 0.108c0 0 0.433-0.836-0.027-0.891s-1.271 0.836-1.271 0.836-0.81-0.648-1.055-0.513c-0.245 0.135-0.081 0.324-0.081 0.324s-1.054 0.081-1.352 0.54c-0.298 0.459 0.054 0.728 0.054 0.728s-1.893 1.295-1.596 1.78c0.297 0.485 0.839 0.027 0.839 0.027s-0.758 1.942-0.649 2.077c0.108 0.135 0.623-0.054 0.623-0.054s-0.027 1.564 0.379 1.727c0.406 0.162 0.487-0.135 0.487-0.135s0.216 0.216 0.703 0.242c0.487 0.027 0.649-0.54 0.649-0.54s-0.541-1.268-0.513-2.32c0.027-1.052 0.322-1.401 0.322-1.401z"></path>
<path fill="#9e9e9e" d="M25.822 16.893c0 0-0.195 1.011-0.039 1.224s0.702 0 0.74-0.116z"></path>
<path fill="#9e9e9e" d="M19.41 27.647c0 0 0.978-0.275 1.279-0.325s0.903 0.5 1.004 0.8c0.1 0.3-0.028 0.367-0.028 0.367l-2.004-0.067-0.25-0.776z"></path>
<path fill="#9e9e9e" d="M19.765 27.55c0 0 0.738 0.276 0.923 0.387s0.129 0.331 0.019 0.441c-0.133 0.111-0.292 0.187-0.462 0.221-0.172 0.010-0.345 0.010-0.517 0-0.221-0.019-0.424 0.019-0.609 0.019s-0.738-0.055-0.738-0.055l-0.166-0.111c0 0-0.312 0.092-0.553 0.186s-0.166-0.111 0.018-0.258c0.184-0.147 0.646-0.515 0.72-0.552s1.015-0.311 1.015-0.311l0.35 0.032z"></path>
<path fill="#9e9e9e" d="M20.041 27.623c0 0-0.48-0.221-0.609-0.221s-1.052 0.311-1.181 0.405c-0.129 0.094-0.259 0.976-0.166 1.031s0.166-0.111 0.187-0.221c0.020-0.11 0.277-0.7 0.277-0.7l-0.187 0.939c0 0 0.074 0.147 0.148 0.018s0.535-1.012 0.572-1.068c0.048-0.051 0.105-0.095 0.166-0.129 0 0-0.092 0.405-0.166 0.792s-0.018 0.497 0.093 0.515c0.111 0.018 0.166-0.239 0.221-0.368s0.295-0.866 0.295-0.866z"></path>
<path fill="#9e9e9e" d="M20.575 27.992c0 0-0.553 0.57-0.628 0.699s-0.073 0.147 0.13 0.147c0.203 0 0.831-0.405 0.885-0.461s0.037-0.221-0.092-0.331c-0.041-0.032-0.090-0.054-0.141-0.063s-0.104-0.007-0.154 0.009z"></path>
<path fill="#9e9e9e" d="M24.030 27.928c0 0-0.738 0.238-0.92 0.373s-0.443 0.283-0.386 0.329c0.057 0.045 0.239 0 0.295-0.045s0.318-0.091 0.318-0.091 0.306-0.181 0.545-0.328c0.239-0.147 0.42-0.306 0.148-0.237z"></path>
<path fill="#9e9e9e" d="M28.106 26.682c0 0-2.056 0.373-2.8 0.633s-1.040 0.442-1.412 0.704c-0.372 0.262-1.126 0.758-1.014 0.845s0.503-0.218 0.569-0.283c0.066-0.065 0.546-0.262 0.546-0.262l0.322-0.164c0 0-0.484 0.595-0.659 0.746s-0.057 0.245 0.075 0.202 0.379-0.304 0.379-0.304l0.799-0.525c0 0-0.328 0.459-0.482 0.589s0.175 0.241 0.241 0.131c0.066-0.109 0.394-0.393 0.394-0.393s0.547-0.283 0.678-0.393c0.131-0.109 0.459-0.415 0.459-0.415l2.45 0.196c0 0 0.153-0.087 0.066-0.589s-0.613-0.72-0.613-0.72z"></path>
<path fill="#fff" d="M29.768 22.82l1.203 2.968-1.947 0.676 0.547 1.593c0 0 1.398 0.004 2.492-0.062s1.862-0.724 1.687-1.509c-0.175-0.785-0.831-1.921-1.356-3.273s-0.363-2.16-0.603-2.574c-0.241-0.415-0.919-0.524-0.919-0.524l-0.374-0.062z"></path>
<path fill="#263238" opacity="0.2" d="M33.566 27.311v-0.311h0.163c0.007-0.020 0.013-0.041 0.017-0.062h-0.18v-0.777h0.093c-0.007-0.020-0.014-0.041-0.021-0.062h-0.072v-0.19c-0.020-0.052-0.041-0.104-0.062-0.157v0.347h-0.654v-0.777h0.47c-0.009-0.020-0.018-0.041-0.027-0.062h-0.442v-0.777h0.087c-0.010-0.020-0.019-0.041-0.029-0.062h-0.059v-0.13c-0.020-0.046-0.042-0.092-0.062-0.139v0.268h-0.654v-0.777h0.436c-0.009-0.021-0.017-0.041-0.026-0.062h-0.411v-0.777h0.117c-0.007-0.020-0.013-0.042-0.019-0.062h-0.097v-0.354c-0.024-0.098-0.044-0.192-0.062-0.282v0.636h-0.654v-0.777h0.628l-0.011-0.062h-0.617v-0.777h0.512l-0.009-0.062h-0.502v-0.762c-0.055-0.029-0.111-0.056-0.168-0.079h-0.548v-0.139l-0.062-0.011v0.15h-0.184l-0.017 0.062h0.201v0.779h-0.405l-0.016 0.062h0.422v0.777h-0.627l-0.017 0.062h0.644v0.777h-0.654v-0.737l-0.062 0.235v0.497h-0.132l-0.016 0.062h0.148v0.393l0.062 0.154v-0.543h0.654v0.777h-0.561l0.025 0.062h0.536v0.777h-0.218l0.026 0.062h0.196v0.483l0.062 0.154v-0.636h0.651v0.777h-0.598l0.026 0.062h0.572v0.777h-0.654v-0.215l-0.062 0.022v0.193h-0.557l-0.18 0.062h0.020v0.777h-0.654v-0.559l-0.062 0.022v0.535h-0.018l0.080 0.234v-0.172h0.654v1.056h0.062v-1.056h0.654v1.048h0.062v-1.047h0.654v1.027h0.062v-1.027h0.654v0.994l0.062-0.005v-0.989h0.654v0.853l0.062-0.024v-0.829h0.654v0.39c0.022-0.026 0.043-0.051 0.062-0.077zM30.637 26.938h-0.654v-0.777h0.654v0.777zM31.354 26.938h-0.654v-0.777h0.654v0.777zM31.354 24.421h-0.654v-0.777h0.654v0.777zM31.354 23.582h-0.654v-0.777h0.654v0.777zM31.354 22.743h-0.654v-0.777h0.654v0.777zM31.354 21.904h-0.654v-0.777h0.654v0.777zM31.354 21.065h-0.654v-0.777h0.654v0.777zM32.071 26.938h-0.654v-0.777h0.654v0.777zM32.071 26.099h-0.654v-0.777h0.654v0.777zM32.071 25.26h-0.654v-0.777h0.654v0.777zM32.071 24.421h-0.654v-0.777h0.654v0.777zM32.071 23.582h-0.654v-0.777h0.654v0.777zM32.787 26.938h-0.654v-0.777h0.654v0.777zM32.787 26.099h-0.654v-0.777h0.654v0.777zM32.787 25.26h-0.654v-0.777h0.654v0.777zM32.849 26.938v-0.777h0.654v0.777l-0.654 0.001z"></path>
<path fill="#263238" d="M29.593 26.223c0 0 0.442 0.422 0.573 0.749s0.083 1.215-0.004 1.302-1.715 0.076-1.983-0.257c-0.070-0.087 0.408-0.288 0.168-0.768s-0.35-0.523-0.35-0.523-0.197-0.109 0.175-0.349c0.372-0.24 1.225-0.414 1.422-0.153z"></path>
<path fill="#263238" d="M33.472 29.588h-1.615l-0.202-3.185h2.019l-0.202 3.185z"></path>
<path fill="#fff" d="M33.764 26.408h-2.198v0.464h2.198v-0.464z"></path>
<path fill="#fff" d="M33.764 26.426h-2.198l0.219-0.275h1.758l0.22 0.275z"></path>
<path fill="#fff" d="M33.531 28.654l0.080-1.268h-1.894l0.080 1.268h1.733z"></path>
<path fill="#263238" d="M24.165 29.8l1.99-0.525v0.268l-1.99 0.556v-0.3z"></path>
<path fill="#fff" d="M26.155 29.275h-10.405l-2.011 0.525h10.426l1.99-0.525z"></path>
<path fill="#fff" d="M24.165 23.802h-10.426v6.298h10.426v-6.298z"></path>
<path fill="#263238" d="M24.165 24.713c-2.268 0.108-3.619 2.193-5.626 3.59-1.829 1.274-4.089 1.492-4.798 1.526v0.271h10.423v-5.387z"></path>
<path fill="#fff" d="M24.165 29.8h-10.426v0.3h10.426v-0.3z"></path>
<path fill="#fff" d="M10.652 27.722c0 0-0.869-1.386-0.171-2.166s1.824-0.405 2.056 0.318-0.261 1.935-0.261 1.935l-1.624-0.087z"></path>
<path fill="#fff" d="M10.681 26.134c-0.145 0-0.695-0.202-0.869-0.462s-0.204-0.838 0.29-0.838c0.493 0 0.666 0.866 0.666 0.866l0.029 0.318z"></path>
<path fill="#fff" d="M11.127 25.594c-0.13-0.062-0.531-0.49-0.571-0.8s0.194-0.84 0.634-0.622c0.441 0.218 0.208 1.072 0.208 1.072l-0.117 0.297z"></path>
<path fill="#fff" d="M11.652 25.74c-0.072-0.124-0.169-0.702-0.030-0.981s0.628-0.592 0.872-0.165c0.244 0.426-0.423 1.007-0.423 1.007l-0.262 0.183z"></path>
<path fill="#fff" d="M11.825 26.775c-0.024-0.143 0.085-0.717 0.312-0.932s0.794-0.339 0.876 0.145c0.082 0.484-0.748 0.799-0.748 0.799l-0.312 0.081z"></path>
<path fill="#263238" d="M12.588 27.239h-2.375v2.369h2.375v-2.369z"></path>
</svg>
