<!-- Generated by IcoMoon.io -->
<svg version="1.1" xmlns="http://www.w3.org/2000/svg" width="48" height="32" viewBox="0 0 48 32">
<title>podcast-audience</title>
<path fill="#263238" d="M23.813 24.138c-0.866-0.001-1.697-0.348-2.31-0.965s-0.957-1.454-0.958-2.327v-1.108c0-0.048 0.019-0.093 0.052-0.127s0.079-0.053 0.126-0.053h0.445c0.047 0 0.093 0.019 0.126 0.053s0.052 0.079 0.052 0.127-0.019 0.093-0.052 0.127c-0.033 0.034-0.079 0.052-0.126 0.052h-0.265v0.929c0 0.778 0.307 1.524 0.853 2.075s1.287 0.859 2.059 0.859c0.772 0 1.513-0.309 2.059-0.859s0.853-1.296 0.853-2.075v-0.929h-0.267c-0.047 0-0.092-0.019-0.126-0.052s-0.052-0.079-0.052-0.127 0.019-0.093 0.052-0.127c0.033-0.034 0.079-0.053 0.126-0.053h0.445c0.047 0 0.092 0.019 0.126 0.053s0.052 0.079 0.052 0.127v1.108c-0.001 0.873-0.346 1.71-0.959 2.327s-1.444 0.964-2.311 0.965z"></path>
<path fill="#263238" d="M27.259 26.892v-0.358c0-0.047-0.009-0.094-0.027-0.137s-0.044-0.083-0.077-0.116-0.072-0.060-0.116-0.078c-0.043-0.018-0.089-0.027-0.136-0.027h-6.18c-0.047-0-0.093 0.009-0.136 0.027s-0.082 0.044-0.116 0.078c-0.033 0.033-0.059 0.073-0.077 0.116s-0.027 0.090-0.027 0.137v0.358h6.892z"></path>
<path fill="#263238" d="M24.16 26.612c0.006-0.026 0.009-0.052 0.009-0.078v-2.575h-0.712v2.575c0 0.026 0.003 0.053 0.009 0.078h0.694z"></path>
<path fill="#e8e8e8" d="M26.014 16.411c0.005-0.294-0.048-0.587-0.157-0.86s-0.27-0.522-0.475-0.732c-0.205-0.21-0.449-0.377-0.719-0.49s-0.559-0.172-0.851-0.172-0.582 0.059-0.851 0.172c-0.27 0.114-0.514 0.281-0.719 0.49s-0.366 0.459-0.475 0.732-0.162 0.566-0.157 0.86v4.435c0.010 0.581 0.246 1.136 0.658 1.544s0.966 0.636 1.543 0.636 1.132-0.229 1.543-0.636c0.412-0.408 0.648-0.962 0.658-1.544v-4.435z"></path>
<path fill="#fff" d="M22.901 16.644h-1.29v0.538h1.29c0.071 0 0.139-0.028 0.189-0.079s0.078-0.119 0.078-0.19c0-0.071-0.028-0.14-0.078-0.19s-0.118-0.079-0.189-0.079z"></path>
<path fill="#fff" d="M26.014 16.644h-1.289c-0.071 0-0.139 0.028-0.189 0.079s-0.078 0.119-0.078 0.19c0 0.071 0.028 0.14 0.078 0.19s0.118 0.079 0.189 0.079h1.289v-0.538z"></path>
<path fill="#fff" d="M23.813 16.644c-0.053 0-0.104 0.016-0.148 0.045s-0.078 0.072-0.098 0.121c-0.020 0.049-0.025 0.103-0.015 0.155s0.036 0.1 0.073 0.138 0.085 0.063 0.137 0.074c0.052 0.010 0.105 0.005 0.154-0.015s0.090-0.055 0.12-0.099c0.029-0.044 0.045-0.096 0.045-0.149 0-0.071-0.028-0.14-0.078-0.19s-0.118-0.079-0.189-0.079z"></path>
<path fill="#fff" d="M23.813 17.731c-0.053 0-0.104 0.016-0.148 0.045s-0.078 0.072-0.098 0.121c-0.020 0.049-0.025 0.103-0.015 0.155s0.036 0.1 0.073 0.138c0.037 0.038 0.085 0.063 0.137 0.074s0.105 0.005 0.154-0.015c0.049-0.020 0.090-0.055 0.12-0.099s0.045-0.096 0.045-0.149c0-0.071-0.028-0.14-0.078-0.19s-0.118-0.079-0.189-0.079z"></path>
<path fill="#fff" d="M23.813 18.816c-0.053 0-0.104 0.016-0.148 0.045s-0.078 0.071-0.098 0.121c-0.020 0.049-0.025 0.103-0.015 0.155s0.036 0.1 0.073 0.138 0.085 0.063 0.137 0.074c0.052 0.010 0.105 0.005 0.154-0.015s0.090-0.055 0.12-0.099c0.029-0.044 0.045-0.096 0.045-0.149 0-0.071-0.028-0.14-0.078-0.19s-0.118-0.079-0.189-0.079z"></path>
<path fill="#fff" d="M22.901 17.731h-1.29v0.538h1.29c0.071 0 0.139-0.028 0.189-0.079s0.078-0.119 0.078-0.19-0.028-0.14-0.078-0.19c-0.050-0.050-0.118-0.079-0.189-0.079z"></path>
<path fill="#fff" d="M26.014 17.731h-1.289c-0.071 0-0.139 0.028-0.189 0.079s-0.078 0.119-0.078 0.19 0.028 0.14 0.078 0.19c0.050 0.050 0.118 0.079 0.189 0.079h1.289v-0.538z"></path>
<path fill="#fff" d="M22.901 18.816h-1.29v0.538h1.29c0.071 0 0.139-0.028 0.189-0.079s0.078-0.119 0.078-0.19c0-0.071-0.028-0.14-0.078-0.19s-0.118-0.079-0.189-0.079z"></path>
<path fill="#fff" d="M26.014 18.816h-1.289c-0.071 0-0.139 0.028-0.189 0.079s-0.078 0.119-0.078 0.19c0 0.071 0.028 0.14 0.078 0.19s0.118 0.079 0.189 0.079h1.289v-0.538z"></path>
<path fill="#263238" d="M21.611 20.845c0.010 0.581 0.246 1.136 0.658 1.544s0.966 0.636 1.543 0.636 1.132-0.229 1.543-0.636c0.412-0.408 0.648-0.962 0.658-1.544h-4.402z"></path>
<path fill="#e8e8e8" d="M42.483 19.728c2.749-2.769 2.749-7.258 0-10.027s-7.205-2.769-9.953 0c-2.749 2.769-2.749 7.258 0 10.027s7.205 2.769 9.953 0z"></path>
<path fill="#fff" d="M36.497 11.782h-4.917c-0.248 0-0.449 0.202-0.449 0.452v4.953c0 0.25 0.201 0.452 0.449 0.452h4.917c0.248 0 0.449-0.202 0.449-0.452v-4.953c0-0.249-0.201-0.452-0.449-0.452z"></path>
<path fill="#000" opacity="0.010000000000000002" d="M31.68 17.639h1.94l1.236-5.857h-2.019l-1.234 5.851c0.025 0.004 0.051 0.006 0.077 0.006z"></path>
<path fill="#000" opacity="0.010000000000000002" d="M35.679 11.782h-0.485l-1.236 5.857h0.485l1.236-5.857z"></path>
<path fill="#fff" d="M36.397 17.785h-4.717c-0.184-0-0.359-0.074-0.489-0.204s-0.203-0.308-0.204-0.492v-4.754c0-0.185 0.073-0.363 0.203-0.493s0.306-0.204 0.49-0.205h4.717c0.184 0 0.36 0.074 0.49 0.205s0.203 0.308 0.204 0.494v4.754c-0.001 0.185-0.074 0.362-0.204 0.493s-0.306 0.204-0.49 0.204zM31.68 11.928c-0.107 0-0.209 0.043-0.285 0.119s-0.118 0.179-0.118 0.287v4.754c0 0.108 0.043 0.211 0.118 0.288s0.178 0.119 0.285 0.119h4.717c0.053 0 0.106-0.011 0.154-0.031s0.094-0.050 0.131-0.088c0.038-0.038 0.067-0.083 0.087-0.132s0.031-0.102 0.030-0.156v-4.754c0-0.053-0.010-0.106-0.031-0.155s-0.050-0.094-0.087-0.132-0.082-0.068-0.131-0.088c-0.049-0.020-0.101-0.031-0.154-0.031h-4.717z"></path>
<path fill="#fff" d="M43.335 11.782h-4.917c-0.248 0-0.449 0.202-0.449 0.452v4.953c0 0.25 0.201 0.452 0.449 0.452h4.917c0.248 0 0.449-0.202 0.449-0.452v-4.953c0-0.249-0.201-0.452-0.449-0.452z"></path>
<path fill="#000" opacity="0.010000000000000002" d="M39.026 17.639h1.94l1.236-5.857h-2.018l-1.238 5.851c0.026 0.004 0.053 0.006 0.080 0.006z"></path>
<path fill="#000" opacity="0.010000000000000002" d="M43.024 11.782h-0.485l-1.236 5.857h0.486l1.236-5.857z"></path>
<path fill="#fff" d="M43.235 17.785h-4.717c-0.183-0-0.359-0.074-0.489-0.204s-0.203-0.308-0.204-0.492v-4.754c0-0.185 0.073-0.363 0.203-0.493s0.306-0.204 0.49-0.205h4.717c0.184 0 0.36 0.074 0.49 0.205s0.203 0.308 0.204 0.494v4.754c-0.001 0.185-0.074 0.362-0.204 0.493s-0.306 0.204-0.49 0.204zM38.518 11.928c-0.107 0-0.209 0.043-0.285 0.119s-0.118 0.179-0.118 0.287v4.754c0 0.108 0.042 0.211 0.118 0.288s0.178 0.119 0.285 0.119h4.717c0.053 0 0.106-0.011 0.154-0.031s0.094-0.050 0.131-0.088c0.037-0.038 0.067-0.083 0.087-0.132s0.031-0.102 0.030-0.156v-4.754c0-0.053-0.010-0.106-0.031-0.155s-0.050-0.094-0.087-0.132c-0.037-0.038-0.082-0.068-0.131-0.088s-0.102-0.031-0.154-0.031h-4.717z"></path>
<path fill="#e8e8e8" d="M37.697 28.382c1.748 0 3.166-0.21 3.166-0.469s-1.417-0.469-3.166-0.469-3.166 0.21-3.166 0.469c0 0.259 1.417 0.469 3.166 0.469z"></path>
<path fill="#fff" d="M39.096 25.18c0 0-0.008 1.314-0.146 1.53-0.165 0.256-0.281 0.614 0.154 0.711s0.695 0.582 1.214 0.614c0.519 0.032 0.572-0.192 0.346-0.372s-0.801-0.678-0.876-0.921 0.071-1.562 0.071-1.562h-0.763z"></path>
<path fill="#000" opacity="0.1" d="M39.789 25.943c0.028-0.387 0.069-0.763 0.069-0.763h-0.762c0 0 0 0.336-0.022 0.696 0.236 0.042 0.475 0.064 0.715 0.067z"></path>
<path fill="#bfbfbf" d="M40.661 27.663c-0.212-0.169-0.413-0.351-0.602-0.546-0.181 0.138-0.712 0.008-0.868-0.116-0.191-0.151-0.151-0.229-0.241-0.296l-0.003 0.006c-0.165 0.256-0.281 0.614 0.154 0.711s0.695 0.582 1.214 0.614c0.519 0.032 0.573-0.195 0.346-0.372z"></path>
<path fill="#fff" d="M36.165 24.704c0 0-0.572 1.202-0.788 1.348-0.261 0.175-0.52 0.458-0.163 0.709s0.389 0.793 0.851 1.016c0.462 0.223 0.606 0.035 0.476-0.212s-0.445-0.921-0.41-1.172 0.738-1.434 0.738-1.434l-0.705-0.256z"></path>
<path fill="#000" opacity="0.1" d="M36.165 24.704c0 0-0.205 0.431-0.415 0.808 0.17 0.17 0.365 0.311 0.579 0.418 0.219-0.428 0.541-0.968 0.541-0.968l-0.705-0.258z"></path>
<path fill="#bfbfbf" d="M36.542 27.563c-0.122-0.235-0.228-0.477-0.318-0.726-0.226 0.059-0.694-0.245-0.746-0.43-0.1-0.358-0.041-0.266-0.095-0.362l-0.005 0.004c-0.261 0.175-0.52 0.458-0.163 0.709s0.389 0.793 0.851 1.016 0.605 0.035 0.475-0.212z"></path>
<path fill="#263238" d="M39.188 16.199c0 0 0.875 4.224 0.933 5.602s-0.169 3.835-0.169 3.835l-0.971-0.064c0 0-0.006-0.726-0.104-1.738-0.058-0.601-0.24-1.302-0.219-2.012 0 0-0.923-2.758-0.889-3.968s0-1.558 0-1.558l1.419-0.098z"></path>
<path fill="#263238" d="M36.849 16.199c0 0-0.907 0.755-0.381 2.278 0.207 0.604 1.006 3.368 1.006 3.368-0.22 0.253-0.405 0.534-0.553 0.835-0.365 0.726-0.63 1.856-1.080 2.504l0.666 0.452c0 0 2.15-2.715 2.287-3.577s-0.508-4.309-0.508-4.309l-0.206-1.401-1.231-0.15z"></path>
<path fill="#fff" d="M40.873 13.336c-0.012-0.143-0.060-0.281-0.139-0.4 0.067-0.088 0.124-0.183 0.172-0.283 0.048-0.117-0.016-0.283-0.15-0.084s-0.281 0.343-0.228 0.591c0.028 0.16-0.001 0.325-0.081 0.465l0.309 0.244 0.617-0.493-0.5-0.040z"></path>
<path fill="#263238" d="M41.163 12.070l-0.519 0.142c-0.048 0.013-0.076 0.063-0.063 0.111l0.296 1.095c0.013 0.048 0.062 0.076 0.11 0.063l0.519-0.142c0.048-0.013 0.076-0.063 0.063-0.111l-0.296-1.095c-0.013-0.048-0.062-0.076-0.11-0.063z"></path>
<path fill="#e8e8e8" d="M41.277 12.147l-0.691 0.189 0.288 1.069 0.691-0.189-0.288-1.068z"></path>
<path fill="#263238" d="M41.138 12.517c-0.008-0.033-0.029-0.061-0.059-0.078s-0.064-0.022-0.096-0.014c-0.033 0.008-0.061 0.030-0.078 0.059s-0.022 0.064-0.014 0.097c0.008 0.032 0.050 0.182 0.064 0.236l0.246-0.067c-0.014-0.049-0.056-0.205-0.064-0.232z"></path>
<path fill="#263238" d="M41.115 12.923c0.030-0.008 0.057-0.028 0.074-0.055s0.023-0.059 0.018-0.091l-0.245 0.064c0.011 0.030 0.032 0.056 0.060 0.071s0.061 0.019 0.092 0.011z"></path>
<path fill="#263238" d="M41.345 13.056l-0.16 0.044-0.033-0.122c0.046-0.018 0.083-0.052 0.105-0.096s0.027-0.095 0.014-0.142l-0.018-0.064c-0-0.001-0.001-0.003-0.002-0.004s-0.002-0.002-0.003-0.003c-0.001-0.001-0.002-0.001-0.004-0.001s-0.003-0-0.004 0l-0.027 0.007c-0.001 0-0.003 0.001-0.004 0.002s-0.002 0.002-0.003 0.003-0.001 0.003-0.001 0.004 0 0.003 0.001 0.004c0 0.001 0.001 0.003 0.002 0.004s0.002 0.002 0.003 0.003c0.001 0.001 0.002 0.001 0.004 0.001s0.003 0 0.004-0l0.016-0.005 0.015 0.054c0.006 0.023 0.008 0.046 0.005 0.069s-0.010 0.046-0.022 0.066-0.027 0.038-0.045 0.052c-0.018 0.014-0.039 0.025-0.062 0.031s-0.046 0.008-0.069 0.005c-0.023-0.003-0.045-0.011-0.065-0.022s-0.038-0.027-0.052-0.046c-0.014-0.019-0.025-0.040-0.031-0.062l-0.015-0.054 0.016-0.004c0.003-0.001 0.005-0.003 0.006-0.005s0.002-0.005 0.001-0.008c-0-0.001-0.001-0.003-0.002-0.004s-0.002-0.002-0.003-0.003c-0.001-0.001-0.003-0.001-0.004-0.001s-0.003-0-0.004 0l-0.026 0.007c-0.001 0-0.003 0.001-0.004 0.002s-0.002 0.002-0.003 0.003-0.001 0.003-0.001 0.004 0 0.003 0 0.004l0.018 0.064c0.013 0.048 0.043 0.089 0.084 0.115s0.090 0.037 0.139 0.030l0.032 0.122-0.16 0.043c-0.003 0.001-0.005 0.002-0.008 0.004s-0.004 0.004-0.006 0.006-0.002 0.005-0.003 0.008c-0 0.003-0 0.006 0.001 0.009l0.006 0.021 0.404-0.111-0.006-0.021c-0.001-0.003-0.002-0.005-0.004-0.008s-0.004-0.004-0.006-0.006c-0.002-0.002-0.005-0.002-0.008-0.003s-0.006-0-0.008 0.001z"></path>
<path fill="#fff" d="M41.411 12.397c-0.064 0.007-0.116 0.107-0.097 0.249s0.149-0.012 0.156-0.057c0.008-0.045 0.062-0.204-0.060-0.192z"></path>
<path fill="#fff" d="M41.55 12.608c-0.017-0-0.034 0.003-0.049 0.011s-0.029 0.018-0.040 0.031c-0.011 0.013-0.018 0.028-0.023 0.045s-0.004 0.034-0.001 0.051c0.012 0.138 0.039 0.106 0.039 0.106 0.001 0.057 0.012 0.113 0.034 0.165 0.032 0.061 0.116-0.031 0.116-0.086s-0.009-0.344-0.076-0.321z"></path>
<path fill="#fff" d="M41.477 12.848c0 0 0.11-0.033 0.136-0.113l-0.136 0.113z"></path>
<path fill="#fff" d="M40.523 13.43c0.021-0.089 0.023-0.181 0.005-0.27-0.053-0.248 0.093-0.393 0.228-0.591s0.198-0.033 0.15 0.084c-0.048 0.1-0.106 0.195-0.172 0.283 0.086 0.116 0.134 0.256 0.139 0.4 0 0.047 0 0.186 0 0.186z"></path>
<path fill="#263238" d="M38.819 11.883c0.221-0.047 0.289-0.104 0.289-0.104-0.166-0.673 0.429-2.935-1.445-3.039s-0.826 3.101-0.826 3.101l0.204 0.026-0.105-0.645 0.244 0.661c0.722 0.079 1.184 0.064 1.475 0.027-0.039-0.291-0.044-0.585-0.012-0.877 0.037 0.287 0.096 0.571 0.176 0.849z"></path>
<path fill="#fff" d="M39.089 12.293v-0.020c-0.004 0.009-0.008 0.015 0 0.020z"></path>
<path fill="#fff" d="M40.446 13.625l-0.889 0.832 0.017-1.247c0.003-0.188-0.041-0.374-0.129-0.541s-0.215-0.308-0.372-0.411l0.034 3.281c0.874 0.056 1.652-1.671 1.652-1.671-0.032-0.061-0.076-0.114-0.13-0.156s-0.116-0.072-0.182-0.088z"></path>
<path fill="#000" opacity="0.1" d="M39.42 15.137c-0.132 0.012-0.162-0.243-0.16-0.49-0.037 0.093-0.062 0.191-0.073 0.291-0.011 0.282-0.011 0.562-0.007 0.801 0.995-0.454 1.007-0.859 1.262-1.273-0.163 0.208-0.768 0.648-1.022 0.671z"></path>
<path fill="#e8e8e8" d="M40.258 13.732l0.195-0.186 0.428 0.296-0.124 0.209-0.498-0.318z"></path>
<path fill="#fff" d="M39.424 13.824c-0.358 1.6-0.18 2.652-0.18 2.652s-0.865 0.618-2.682 0.094c0 0 0.33-0.827 0.241-1.459-0.054-0.388-0.416-1.785-0.416-1.785s-0.172-0.611-0.093-1.103c0.152-0.099 0.477-0.219 1.052-0.261 0.010-0.032 0.016-0.066 0.020-0.099 0.018-0.163 0.022-0.327 0.012-0.49-0.008-0.192-0.024-0.345-0.024-0.345h0.694c0 0 0.009 0.177 0.031 0.384 0.012 0.122 0.029 0.256 0.051 0.371 0.011 0.058 0.025 0.115 0.041 0.171 0.693 0.105 0.953 0.287 1.003 0.445 0.236 0.713 0.327 1.084 0.25 1.426z"></path>
<path fill="#263238" d="M38.080 11.524c-0.057 0.128-0.127 0.229-0.372 0.228-0.182 0-0.346-0.162-0.364-0.224 0.020-0.14 0-0.192-0.008-0.351 0.234-0.007 0.468 0.007 0.699 0.041 0.010 0.103 0.025 0.205 0.045 0.306z"></path>
<path fill="#fff" d="M38.542 10.154c0-0.095 0-0.153 0-0.153-0.051-0.248-0.356-0.261-0.497-0.261-0.148 0.005-0.296-0.021-0.433-0.076 0.045 0.109 0.12 0.202 0.215 0.27-0.522-0.117-0.563-0.395-0.543-0.545-0.186 0.653-0.426 0.681-0.426 0.681s0 0.058 0.011 0.152c-0.062 0.014-0.117 0.051-0.155 0.103s-0.055 0.116-0.050 0.18c-0.001 0.069 0.025 0.136 0.073 0.186s0.112 0.079 0.181 0.082c0.014-0.001 0.027-0.003 0.041-0.006 0.11 0.433 0.337 0.903 0.802 0.884s0.654-0.506 0.729-0.947c0.014 0.001 0.028 0.001 0.041 0 0.069-0.007 0.132-0.041 0.176-0.095s0.065-0.123 0.058-0.192c0-0.064-0.022-0.125-0.063-0.174s-0.097-0.081-0.16-0.091z"></path>
<path fill="#fff" d="M36.656 10.003l-0.070 0.003 0.010 0.253 0.070-0.003-0.010-0.253z"></path>
<path fill="#fff" d="M38.806 9.912l-0.071 0.003 0.010 0.253 0.070-0.003-0.010-0.253z"></path>
<path fill="#e8e8e8" d="M37.651 8.856c-0.299 0.012-0.582 0.141-0.789 0.359s-0.322 0.508-0.321 0.81c0 0.006 0.001 0.011 0.004 0.016s0.005 0.010 0.010 0.014 0.009 0.007 0.014 0.009c0.005 0.002 0.011 0.003 0.016 0.003h0.074c0.011-0.001 0.021-0.005 0.029-0.013s0.011-0.019 0.011-0.030c0.002-0.259 0.102-0.507 0.281-0.693s0.422-0.296 0.678-0.306 0.508 0.079 0.7 0.25c0.193 0.171 0.313 0.41 0.335 0.668 0.001 0.011 0.005 0.021 0.014 0.028s0.019 0.011 0.030 0.011h0.074c0.006-0 0.011-0.001 0.016-0.004s0.010-0.006 0.013-0.010 0.007-0.009 0.008-0.014c0.002-0.005 0.002-0.011 0.002-0.017-0.021-0.302-0.159-0.584-0.383-0.785s-0.517-0.308-0.817-0.296z"></path>
<path fill="#e8e8e8" d="M36.786 10.157h-0.016c-0.048 0.002-0.095 0.013-0.138 0.034s-0.083 0.049-0.115 0.085c-0.066 0.072-0.1 0.167-0.096 0.264s0.046 0.189 0.117 0.255c0.071 0.066 0.166 0.101 0.262 0.097h0.016l-0.029-0.735z"></path>
<path fill="#fff" d="M36.884 10.52c0.011 0.273 0.030 0.448-0.064 0.454s-0.133-0.172-0.144-0.448c-0.011-0.276 0.014-0.448 0.107-0.454s0.089 0.176 0.1 0.449z"></path>
<path fill="#e8e8e8" d="M38.622 10.083h0.017c0.048-0.002 0.096 0.006 0.141 0.022s0.086 0.042 0.121 0.075c0.035 0.033 0.064 0.072 0.084 0.116s0.031 0.091 0.033 0.139c0.002 0.048-0.006 0.096-0.022 0.142s-0.042 0.087-0.074 0.122c-0.032 0.035-0.072 0.064-0.115 0.084s-0.090 0.032-0.138 0.034h-0.017l-0.029-0.735z"></path>
<path fill="#fff" d="M38.549 10.453c0.011 0.273 0.006 0.448 0.1 0.448s0.118-0.182 0.107-0.455c-0.011-0.273-0.050-0.448-0.143-0.445s-0.075 0.179-0.064 0.452z"></path>
<path fill="#e8e8e8" d="M37.254 11.873c0 0 0.145 0.366 0.682 0.448 0 0-0.215 0.448-0.508 0.272-0.351-0.21-0.419-0.646-0.419-0.646l0.245-0.074z"></path>
<path fill="#e8e8e8" d="M38.239 11.918c0.002 0.097-0.030 0.192-0.091 0.268s-0.146 0.128-0.241 0.147c0 0 0.261 0.431 0.475 0.192s0.048-0.565 0.048-0.565l-0.191-0.042z"></path>
<path fill="#e8e8e8" d="M38.12 13.188c0 0.013-0.004 0.025-0.011 0.036s-0.017 0.019-0.029 0.024c-0.012 0.005-0.024 0.006-0.037 0.004s-0.024-0.009-0.033-0.018-0.015-0.020-0.017-0.033c-0.002-0.012-0.001-0.025 0.004-0.037s0.013-0.022 0.023-0.029c0.010-0.007 0.023-0.011 0.035-0.011 0.017 0 0.033 0.007 0.045 0.019s0.019 0.028 0.019 0.045z"></path>
<path fill="#e8e8e8" d="M38.206 14.449c0 0.013-0.004 0.025-0.011 0.036s-0.017 0.019-0.029 0.024c-0.012 0.005-0.024 0.006-0.037 0.004s-0.024-0.009-0.033-0.018-0.015-0.020-0.017-0.033c-0.002-0.012-0.001-0.025 0.004-0.037s0.013-0.022 0.023-0.029c0.010-0.007 0.023-0.011 0.035-0.011 0.017 0 0.033 0.007 0.045 0.019s0.019 0.028 0.019 0.045z"></path>
<path fill="#e8e8e8" d="M38.287 15.739c0 0.013-0.004 0.025-0.011 0.036s-0.017 0.019-0.029 0.023c-0.012 0.005-0.024 0.006-0.037 0.004s-0.024-0.009-0.033-0.018c-0.009-0.009-0.015-0.020-0.017-0.033s-0.001-0.025 0.004-0.037c0.005-0.012 0.013-0.022 0.023-0.029s0.023-0.011 0.035-0.011c0.017 0 0.033 0.007 0.045 0.019s0.019 0.028 0.019 0.045z"></path>
<path fill="#fff" d="M43.886 7.158h-12.873c-0.060 0-0.108 0.049-0.108 0.109v0.234c0 0.060 0.048 0.109 0.108 0.109h12.873c0.060 0 0.108-0.049 0.108-0.109v-0.234c0-0.060-0.048-0.109-0.108-0.109z"></path>
<path fill="#fff" d="M35.028 10.195c0 0-0.531-0.075-0.559 0.069s-0.013 0.373 0.079 0.448c0.173 0.142 0.141 0.408 0.141 0.408l0.445-0.043 0.011-0.224c0.023-0.073 0.064-0.139 0.119-0.192 0.16-0.152 0.097-0.32 0.069-0.523s-0.16-0.113-0.171-0.008c-0.003 0.094 0.004 0.187 0.023 0.279l-0.157-0.213z"></path>
<path fill="#fff" d="M35.153 10.392c0 0-0.127 0.026-0.227 0.207l0.227-0.207z"></path>
<path fill="#263238" d="M35.153 10.439h-0.643c-0.044 0.001-0.089-0.008-0.129-0.027s-0.075-0.048-0.102-0.084c-0.023-0.033-0.035-0.071-0.035-0.111s0.012-0.079 0.035-0.111l0.322-0.476c0.028-0.035 0.063-0.064 0.103-0.083s0.084-0.030 0.129-0.030c0.045 0 0.089 0.010 0.129 0.030s0.076 0.048 0.103 0.083l0.322 0.476c0.023 0.033 0.035 0.071 0.035 0.111s-0.012 0.079-0.035 0.111c-0.027 0.036-0.063 0.065-0.104 0.085s-0.086 0.028-0.131 0.027zM34.39 10.157c-0.012 0.017-0.019 0.037-0.019 0.058s0.007 0.041 0.019 0.058c0.014 0.019 0.032 0.033 0.053 0.043s0.044 0.015 0.067 0.014h0.642c0.023 0.001 0.046-0.004 0.067-0.014s0.039-0.025 0.053-0.043c0.012-0.017 0.019-0.037 0.019-0.058s-0.007-0.041-0.019-0.058l-0.322-0.475c-0.014-0.019-0.032-0.034-0.053-0.044s-0.044-0.015-0.068-0.014c-0.023-0.001-0.047 0.004-0.068 0.014s-0.039 0.026-0.053 0.045l-0.322 0.476 0.003-0.001z"></path>
<path fill="#fff" d="M34.639 10.201c0.033 0.169 0.013 0.229-0.064 0.22s-0.153-0.216-0.048-0.264c0.105-0.047 0.191-0.084 0.191-0.084 0.034-0.018 0.071-0.029 0.11-0.030s0.077 0.007 0.111 0.023c0.151-0.053 0.178 0.058 0.178 0.058s0.109 0.32 0.018 0.331c-0.091 0.011-0.166-0.267-0.166-0.267s0.114 0.305 0.010 0.31c-0.104 0.005-0.165-0.296-0.165-0.296s0.068 0.264-0.030 0.273c-0.099 0.009-0.146-0.275-0.146-0.275z"></path>
<path fill="#fff" d="M34.879 7.489h-0.104v2.101h0.104v-2.101z"></path>
<path fill="#fff" d="M34.937 9.557l-0.068 0.1c-0.004 0.006-0.010 0.010-0.017 0.014s-0.014 0.005-0.021 0.005c-0.007 0-0.014-0.002-0.021-0.005s-0.012-0.008-0.017-0.014l-0.067-0.1c-0.017-0.024 0.004-0.053 0.037-0.053h0.136c0.033 0 0.053 0.032 0.037 0.053z"></path>
<path fill="#fff" d="M34.887 8.852h-0.111c-0.030 0-0.055 0.025-0.055 0.056v0.466c0 0.031 0.025 0.056 0.055 0.056h0.111c0.031 0 0.055-0.025 0.055-0.056v-0.466c0-0.031-0.025-0.056-0.055-0.056z"></path>
<path fill="#fff" d="M34.887 7.086h-0.111c-0.030 0-0.055 0.025-0.055 0.056v0.466c0 0.031 0.025 0.056 0.055 0.056h0.111c0.031 0 0.055-0.025 0.055-0.056v-0.466c0-0.031-0.025-0.056-0.055-0.056z"></path>
<path fill="#263238" d="M33.641 10.439h-0.643c-0.045 0.001-0.089-0.008-0.129-0.027s-0.075-0.048-0.102-0.084c-0.023-0.033-0.035-0.071-0.035-0.111s0.012-0.079 0.035-0.111l0.321-0.476c0.028-0.035 0.063-0.064 0.104-0.083s0.085-0.030 0.129-0.030c0.045 0 0.089 0.010 0.129 0.030s0.076 0.048 0.104 0.083l0.321 0.476c0.023 0.033 0.035 0.071 0.035 0.111s-0.012 0.079-0.035 0.111c-0.027 0.036-0.063 0.065-0.103 0.085s-0.086 0.028-0.131 0.027zM32.879 10.157c-0.012 0.017-0.019 0.037-0.019 0.058s0.007 0.041 0.019 0.058c0.014 0.019 0.032 0.033 0.053 0.043s0.044 0.015 0.067 0.014h0.643c0.023 0.001 0.046-0.004 0.067-0.014s0.039-0.025 0.053-0.043c0.012-0.017 0.019-0.037 0.019-0.058s-0.006-0.041-0.019-0.058l-0.321-0.475c-0.014-0.019-0.032-0.034-0.053-0.044s-0.044-0.015-0.068-0.014c-0.023-0.001-0.046 0.004-0.068 0.014s-0.039 0.026-0.053 0.045l-0.322 0.476 0.002-0.001z"></path>
<path fill="#fff" d="M33.367 7.489h-0.104v2.101h0.104v-2.101z"></path>
<path fill="#fff" d="M33.425 9.557l-0.071 0.101c-0.004 0.006-0.010 0.010-0.017 0.014s-0.014 0.005-0.021 0.005-0.014-0.002-0.021-0.005c-0.007-0.003-0.012-0.008-0.017-0.014l-0.067-0.101c-0.016-0.024 0.005-0.053 0.037-0.053h0.136c0.033 0 0.056 0.032 0.040 0.053z"></path>
<path fill="#fff" d="M33.376 8.852h-0.111c-0.031 0-0.055 0.025-0.055 0.056v0.466c0 0.031 0.025 0.056 0.055 0.056h0.111c0.030 0 0.055-0.025 0.055-0.056v-0.466c0-0.031-0.025-0.056-0.055-0.056z"></path>
<path fill="#fff" d="M33.376 7.086h-0.111c-0.031 0-0.055 0.025-0.055 0.056v0.466c0 0.031 0.025 0.056 0.055 0.056h0.111c0.030 0 0.055-0.025 0.055-0.056v-0.466c0-0.031-0.025-0.056-0.055-0.056z"></path>
<path fill="#263238" d="M40.192 10.439h-0.643c-0.044 0.001-0.089-0.008-0.129-0.027s-0.075-0.048-0.102-0.084c-0.023-0.033-0.035-0.071-0.035-0.111s0.012-0.079 0.035-0.111l0.322-0.476c0.028-0.035 0.063-0.064 0.103-0.083s0.084-0.030 0.129-0.030c0.045 0 0.089 0.010 0.129 0.030s0.076 0.048 0.103 0.083l0.321 0.476c0.023 0.033 0.035 0.071 0.035 0.111s-0.012 0.079-0.035 0.111c-0.027 0.036-0.062 0.065-0.103 0.085s-0.086 0.029-0.13 0.027zM39.429 10.157c-0.012 0.017-0.019 0.037-0.019 0.058s0.007 0.041 0.019 0.058c0.014 0.019 0.032 0.033 0.053 0.043s0.044 0.015 0.067 0.014h0.643c0.023 0.001 0.046-0.004 0.067-0.014s0.039-0.025 0.053-0.043c0.012-0.017 0.019-0.037 0.019-0.058s-0.007-0.041-0.019-0.058l-0.321-0.475c-0.015-0.018-0.033-0.033-0.054-0.043s-0.044-0.015-0.067-0.015c-0.023 0-0.046 0.005-0.067 0.015s-0.039 0.025-0.054 0.043l-0.321 0.476 0.003-0.001z"></path>
<path fill="#fff" d="M39.917 7.489h-0.104v2.101h0.104v-2.101z"></path>
<path fill="#fff" d="M39.975 9.557l-0.067 0.1c-0.004 0.006-0.010 0.010-0.017 0.014s-0.014 0.005-0.021 0.005c-0.007 0-0.014-0.002-0.021-0.005s-0.012-0.008-0.017-0.014l-0.067-0.1c-0.017-0.024 0.004-0.053 0.037-0.053h0.136c0.032 0 0.053 0.032 0.037 0.053z"></path>
<path fill="#fff" d="M39.926 8.852h-0.111c-0.030 0-0.055 0.025-0.055 0.056v0.466c0 0.031 0.025 0.056 0.055 0.056h0.111c0.031 0 0.055-0.025 0.055-0.056v-0.466c0-0.031-0.025-0.056-0.055-0.056z"></path>
<path fill="#fff" d="M39.926 7.086h-0.111c-0.030 0-0.055 0.025-0.055 0.056v0.466c0 0.031 0.025 0.056 0.055 0.056h0.111c0.031 0 0.055-0.025 0.055-0.056v-0.466c0-0.031-0.025-0.056-0.055-0.056z"></path>
<path fill="#263238" d="M41.632 10.439h-0.643c-0.044 0.001-0.089-0.008-0.129-0.027s-0.075-0.048-0.102-0.084c-0.023-0.033-0.035-0.071-0.035-0.111s0.012-0.079 0.035-0.111l0.322-0.476c0.028-0.035 0.063-0.064 0.104-0.083s0.084-0.030 0.129-0.030c0.045 0 0.089 0.010 0.129 0.030s0.076 0.048 0.103 0.083l0.322 0.476c0.023 0.033 0.035 0.071 0.035 0.111s-0.012 0.079-0.035 0.111c-0.027 0.036-0.063 0.065-0.104 0.085s-0.086 0.028-0.131 0.027zM40.87 10.157c-0.012 0.017-0.019 0.037-0.019 0.058s0.007 0.041 0.019 0.058c0.014 0.019 0.032 0.033 0.053 0.043s0.044 0.015 0.067 0.014h0.643c0.023 0.001 0.046-0.004 0.067-0.014s0.039-0.025 0.053-0.043c0.012-0.017 0.019-0.037 0.019-0.058s-0.007-0.041-0.019-0.058l-0.322-0.475c-0.014-0.019-0.032-0.034-0.053-0.044s-0.044-0.015-0.068-0.014c-0.023-0.001-0.047 0.004-0.068 0.014s-0.039 0.026-0.053 0.045l-0.322 0.476 0.002-0.001z"></path>
<path fill="#fff" d="M41.358 7.489h-0.104v2.101h0.104v-2.101z"></path>
<path fill="#fff" d="M41.416 9.557l-0.068 0.101c-0.004 0.006-0.010 0.010-0.017 0.014s-0.014 0.005-0.021 0.005c-0.007 0-0.014-0.002-0.021-0.005s-0.012-0.008-0.017-0.014l-0.067-0.101c-0.017-0.024 0.004-0.053 0.037-0.053h0.136c0.033 0 0.053 0.032 0.038 0.053z"></path>
<path fill="#fff" d="M41.366 8.852h-0.111c-0.030 0-0.055 0.025-0.055 0.056v0.466c0 0.031 0.025 0.056 0.055 0.056h0.111c0.031 0 0.055-0.025 0.055-0.056v-0.466c0-0.031-0.025-0.056-0.055-0.056z"></path>
<path fill="#fff" d="M41.366 7.086h-0.111c-0.030 0-0.055 0.025-0.055 0.056v0.466c0 0.031 0.025 0.056 0.055 0.056h0.111c0.031 0 0.055-0.025 0.055-0.056v-0.466c0-0.031-0.025-0.056-0.055-0.056z"></path>
<path fill="#e8e8e8" d="M35.202 10.974l0.034 0.273-0.691 0.033 0.058-0.274 0.6-0.032z"></path>
<path fill="#fff" d="M36.374 13.271c0 0-1.2 1.112-1.477 1.129-0.068 0.004-0.127 0.047-0.184 0.008-0.127-0.087-0.311-0.271-0.284-1.020 0.014-0.41 0.26-2.116 0.26-2.116l0.445-0.020 0.108 1.92c0.381-0.398 1.044-0.95 1.044-0.95 0.207 0.667 0.088 1.049 0.088 1.049z"></path>
<path fill="#fff" d="M39.401 14.817c0.030-0.133 0.087-0.258 0.167-0.367l-0.167 0.367z"></path>
<path fill="#fff" d="M35.532 9.064v-0.765c0-0.037 0.015-0.072 0.041-0.098s0.061-0.041 0.098-0.041h1.192c0.037 0 0.072 0.015 0.098 0.041s0.041 0.062 0.041 0.098v0.765c0 0.037-0.015 0.072-0.041 0.099s-0.061 0.041-0.098 0.041h-0.415l0.033 0.291h-0.214v0.275l-0.254-0.448h0.208l-0.022-0.118h-0.529c-0.018-0-0.036-0.004-0.053-0.011s-0.032-0.017-0.045-0.030c-0.013-0.013-0.023-0.028-0.030-0.045s-0.010-0.035-0.010-0.053z"></path>
<path fill="#e8e8e8" d="M9.024 27.994c1.638 0 2.966-0.197 2.966-0.44s-1.328-0.44-2.966-0.44-2.966 0.197-2.966 0.44c0 0.243 1.328 0.44 2.966 0.44z"></path>
<path fill="#e8e8e8" d="M8.764 20.547c2.853 0 5.166-2.33 5.166-5.204s-2.313-5.204-5.166-5.204-5.166 2.33-5.166 5.204c0 2.874 2.313 5.204 5.166 5.204z"></path>
<path fill="#fff" d="M6.382 18.746c0 0 0.131 0.768-0.313 1.631h5.553c0 0-0.254-0.403-0.52-1.631h-4.72z"></path>
<path fill="#263238" d="M7.648 18.924c-0.304 0.025-0.595 0.133-0.842 0.314s-0.439 0.426-0.556 0.71c-0.060 0.146-0.122 0.294-0.181 0.432-0.338 0.788-0.018 1.934 0.846 1.934h3.962c0.783 0 0.997-0.999 0.81-1.752-0.121-0.484-0.364-0.97-0.78-1.31-0.555-0.458-2.178-0.415-3.259-0.328z"></path>
<path fill="#fff" d="M3.865 18.078c0 0-0.71 0.433-0.734 0.668h0.871l0.346-0.25-0.117 0.252h0.265c0 0 0.281-0.22 0.297-0.464l-0.029-0.205-0.508-0.228-0.391 0.228z"></path>
<path fill="#fff" d="M12.186 16.489c0 0-0.114-0.753-0.363-1.838s-0.738-1.17-0.738-1.17h-0.004c-0.635-0.275-2.287-0.424-2.287-0.424h-0.076c0 0-1.656 0.148-2.287 0.424h-0.004c0 0-0.492 0.087-0.742 1.17s-0.364 1.838-0.364 1.838c0 0-0.451 0.123-1.263 1.152-0.127 0.163-0.236 0.341-0.323 0.529 0 0 0.624-0.207 1.061 0.11 0 0 1.432-0.612 1.504-1.257 0-0.023 0.006-0.049 0.009-0.076 0.041 0.979 0.076 1.797 0.076 1.797h4.741c0 0 0.036-0.818 0.076-1.797 0 0.028 0.006 0.053 0.008 0.076 0.072 0.645 1.658 1.368 1.658 1.368 0.434-0.673 1.065-0.301 1.065-0.301l-1.745-1.601z"></path>
<path fill="#000" opacity="0.3" d="M6.297 17.024c0-0.019 0.005-0.041 0.008-0.064l-0.104-2.266c0 0-0.286 0.059-0.204 0.755s0.254 0.576 0.158 0.844c-0.096 0.268-0.468-0.039-0.591 0.192s0.689 0.182 0.353 0.777c-0.335 0.595-1.124 1.024-1.124 1.024s1.433-0.615 1.504-1.261z"></path>
<path fill="#000" opacity="0.09" d="M11.229 17.024c0-0.019 0.187 0.014 0 0l0.057-1.94c0 0-0.014 0.938 0.086 1.208s0.468-0.039 0.591 0.192c0.123 0.231-0.689 0.182-0.353 0.777s1.123 1.024 1.123 1.024-1.431-0.615-1.504-1.261z"></path>
<path fill="#000" opacity="0.3" d="M11.157 17.466c-0.031 0.734-0.055 1.28-0.055 1.28h-4.262c2.859 0 4.32-1.28 4.32-1.28h-0.003z"></path>
<path fill="#fff" d="M9.642 13.161c-0.077 0.388-0.449 0.528-0.898 0.528s-0.82-0.14-0.898-0.526h0.018c0.046-0.006 0.090-0.027 0.125-0.059s0.059-0.073 0.070-0.119c0.006-0.018 0.009-0.038 0.010-0.057v-0.455h1.372v0.455c-0 0.028 0.005 0.057 0.015 0.083 0.015 0.040 0.040 0.074 0.073 0.101s0.072 0.043 0.114 0.049z"></path>
<path fill="#263238" d="M9.43 12.813c-0.227 0.225-0.481 0.365-0.726 0.376-0.254 0.011-0.549-0.198-0.669-0.405 0.005-0.018 0.007-0.036 0.007-0.055v-0.14l1.372 0.015v0.125c0 0.029 0.035 0.064 0.015 0.083z"></path>
<path fill="#263238" d="M7.742 11.496c0 0-0.476-0.542-0.414-1.289s0.671-0.747 0.671-0.747c0 0 0.734-0.652 1.553-0.244s0.762 1.824 0.156 2.176l-1.966 0.104z"></path>
<path fill="#fff" d="M9.84 11.131c0.006-0.124 0.006-0.201 0.006-0.201-0.055-0.33-0.456-0.364-0.64-0.369-0.772-0.026-0.975-0.503-0.975-0.503-0.468-0.141-0.601 0.872-0.601 0.872s0 0.077 0.006 0.201c-0.083 0.016-0.157 0.061-0.209 0.128s-0.079 0.15-0.075 0.235c0 0.202 0.145 0.365 0.324 0.365 0.018-0 0.036-0.002 0.054-0.005l0.084 0.476c0.016 0.107 0.116 0.36 0.205 0.42 0.191 0.128 0.492 0.31 0.719 0.31 0.196 0 0.47-0.163 0.673-0.273 0.113-0.064 0.238-0.309 0.248-0.438l0.053-0.481c0.030-0.001 0.059-0.004 0.089-0.009 0.179 0 0.324-0.163 0.324-0.365 0.004-0.085-0.023-0.168-0.075-0.235s-0.127-0.112-0.209-0.128z"></path>
<path fill="#fff" d="M7.476 10.824h-0.084v0.301h0.084v-0.301z"></path>
<path fill="#fff" d="M10.038 10.824h-0.084v0.301h0.084v-0.301z"></path>
<path fill="#fff" d="M8.715 9.51c-0.357-0-0.699 0.139-0.956 0.389s-0.408 0.589-0.421 0.948c-0 0.007 0.001 0.013 0.003 0.020s0.006 0.012 0.011 0.017c0.005 0.005 0.010 0.009 0.016 0.011s0.013 0.004 0.019 0.004h0.089c0.013 0 0.025-0.005 0.035-0.014s0.015-0.021 0.015-0.034c0.014-0.308 0.146-0.599 0.367-0.812s0.516-0.332 0.822-0.332c0.306 0 0.6 0.119 0.822 0.332s0.353 0.504 0.367 0.812c0.001 0.013 0.006 0.025 0.015 0.035s0.022 0.014 0.035 0.014h0.088c0.007 0 0.013-0.001 0.019-0.004s0.012-0.006 0.016-0.011c0.005-0.005 0.008-0.010 0.011-0.017s0.004-0.013 0.003-0.020c-0.013-0.359-0.164-0.699-0.421-0.948s-0.6-0.389-0.956-0.389z"></path>
<path fill="#263238" d="M7.619 11.016h-0.019c-0.112 0.004-0.219 0.052-0.297 0.134s-0.122 0.191-0.122 0.304c0 0.113 0.044 0.222 0.122 0.304s0.184 0.13 0.297 0.134h0.019v-0.876z"></path>
<path fill="#fff" d="M7.722 11.456c0 0.324 0.014 0.536-0.097 0.536s-0.149-0.211-0.149-0.536c0-0.324 0.038-0.536 0.149-0.536s0.097 0.209 0.097 0.536z"></path>
<path fill="#263238" d="M9.811 11.016h0.019c0.112 0.004 0.219 0.052 0.297 0.134s0.122 0.191 0.122 0.304c0 0.113-0.044 0.222-0.122 0.304s-0.184 0.13-0.297 0.134h-0.019v-0.876z"></path>
<path fill="#fff" d="M9.707 11.456c0 0.324-0.013 0.536 0.098 0.536s0.149-0.211 0.149-0.536c0-0.324-0.038-0.536-0.149-0.536s-0.098 0.209-0.098 0.536z"></path>
<path fill="#263238" d="M8.043 11.594c0.027 0.054 0.089 0.117 0.227 0.12s0.162-0.052 0.165-0.106c-0.061 0.030-0.129 0.044-0.197 0.042s-0.135-0.022-0.194-0.057z"></path>
<path fill="#263238" d="M9.416 11.594c-0.027 0.054-0.089 0.117-0.227 0.12s-0.162-0.052-0.165-0.106c0.061 0.030 0.129 0.044 0.197 0.042s0.135-0.022 0.194-0.057z"></path>
<path fill="#263238" d="M8.752 13.888c0.219 0 0.433-0.068 0.612-0.195s0.315-0.307 0.388-0.514c-0.058-0.009-0.115-0.017-0.17-0.024-0.087 0.143-0.209 0.261-0.354 0.343s-0.309 0.125-0.475 0.125c-0.166 0-0.33-0.043-0.475-0.125s-0.267-0.2-0.354-0.343c-0.055 0.008-0.112 0.015-0.17 0.024 0.074 0.208 0.209 0.387 0.388 0.514s0.392 0.195 0.611 0.195z"></path>
<path fill="#fff" d="M11.22 10.573v-0.689c0-0.034-0.013-0.066-0.037-0.091s-0.056-0.037-0.090-0.037h-1.071c-0.034 0-0.066 0.014-0.090 0.037s-0.037 0.057-0.037 0.091v0.689c0 0.034 0.013 0.066 0.037 0.091s0.056 0.037 0.090 0.037h0.374l-0.030 0.262h0.191v0.248l0.228-0.404h-0.187l0.020-0.106h0.476c0.017 0 0.033-0.003 0.049-0.010s0.030-0.016 0.041-0.028c0.012-0.012 0.021-0.026 0.028-0.042s0.010-0.032 0.010-0.049z"></path>
<path fill="#fff" d="M14.511 18.413c0 0.203-0.318 0.331-0.708 0.331s-0.708-0.128-0.708-0.331c0-0.203 0.318-0.369 0.708-0.369s0.708 0.165 0.708 0.369z"></path>
<path fill="#fff" d="M13.345 18.67c0.019-0.005 0.034-0.112-0.138-0.192-0.119-0.055-0.123-0.113-0.054-0.185s0.186-0.132 0.276-0.106c0.147 0.042 0.244 0.35 0.309 0.283 0.099-0.026-0.020-0.308-0.196-0.401 0.318 0.079 0.333 0.448 0.479 0.419 0.112-0.022-0.081-0.388-0.248-0.496 0.107 0.050 0.201 0.125 0.273 0.219 0.106 0.156 0.118 0.208 0.191 0.186 0.094-0.030-0.13-0.372-0.158-0.409 0.141 0.056 0.168 0.175 0.211 0.223s0.064 0.128 0.123 0.097c0.060-0.031 0.004-0.143-0.036-0.208-0.191-0.31-0.508-0.362-0.811-0.324-0.239 0.031-0.513 0.132-0.659 0.324-0.037 0.048-0.059 0.106-0.062 0.166s0.011 0.121 0.042 0.173c0.051 0.108 0.233 0.281 0.458 0.23z"></path>
<path fill="#bfbfbf" d="M14.696 18.746h-11.692c-0.035 0-0.063 0.028-0.063 0.063v0.102c0 0.035 0.028 0.063 0.063 0.063h11.692c0.035 0 0.063-0.028 0.063-0.063v-0.102c0-0.035-0.028-0.063-0.063-0.063z"></path>
<path fill="#263238" d="M3.348 18.746l-0.86-2.634c-0.003-0.010-0.004-0.021-0.002-0.032s0.006-0.021 0.012-0.030c0.006-0.009 0.014-0.016 0.024-0.021s0.020-0.008 0.031-0.008h2.717l0.968 2.725h-2.888z"></path>
<path fill="#fff" d="M5.342 16.022l0.889 2.572h2.382v0.090c0 0.017-0.007 0.033-0.019 0.045s-0.028 0.019-0.045 0.019h-2.471l-0.856-2.62c-0.004-0.012-0.005-0.024-0.003-0.036s0.007-0.024 0.014-0.034 0.017-0.018 0.027-0.024c0.011-0.006 0.023-0.009 0.035-0.009l0.045-0.003z"></path>
<path fill="#fff" d="M4.081 17.384c-0.008-0.045-0.029-0.086-0.060-0.12 0.013-0.016 0.030-0.028 0.049-0.037s0.039-0.012 0.060-0.012c0.048 0.002 0.094 0.020 0.131 0.051s0.063 0.073 0.074 0.12c0.006 0.020 0.007 0.042 0.003 0.063s-0.013 0.040-0.026 0.057-0.030 0.030-0.049 0.039c-0.019 0.009-0.040 0.013-0.061 0.012-0.049-0.001-0.096-0.020-0.132-0.052 0.018-0.038 0.022-0.081 0.011-0.122z"></path>
<path fill="#fff" d="M9.586 18.746h0.868c0.116-0.085 0.209-0.197 0.273-0.327s0.096-0.272 0.094-0.417v-0.411c0-0.016-0.003-0.031-0.009-0.046s-0.015-0.028-0.026-0.039-0.024-0.020-0.038-0.026c-0.014-0.006-0.030-0.009-0.045-0.009h-1.365c-0.015 0-0.031 0.003-0.045 0.009s-0.027 0.015-0.038 0.026c-0.011 0.011-0.020 0.024-0.025 0.039s-0.009 0.030-0.009 0.046v0.411c-0.002 0.144 0.029 0.287 0.093 0.416s0.156 0.241 0.271 0.327z"></path>
<path fill="#fff" d="M11.069 17.648c-0.037-0.023-0.079-0.036-0.122-0.038s-0.086 0.007-0.125 0.027v0.148c0.038-0.006 0.076 0.001 0.109 0.022 0.123 0.072 0.097 0.218 0.011 0.367-0.039 0.084-0.107 0.152-0.191 0.192-0.025 0.062-0.057 0.12-0.095 0.175 0.163 0.036 0.313-0.104 0.429-0.307 0.137-0.239 0.179-0.472-0.017-0.586z"></path>
<path fill="#fff" d="M11.236 22.312h-4.757c-0.347 0-0.629 0.284-0.629 0.634v3.168c0 0.35 0.282 0.634 0.629 0.634h4.757c0.347 0 0.629-0.284 0.629-0.634v-3.168c0-0.35-0.282-0.634-0.629-0.634z"></path>
<path fill="#fff" d="M7.354 25.363l0.072 1.265 0.008 0.011c0.057 0.077 0.131 0.139 0.216 0.182s0.179 0.064 0.274 0.063c0.095-0.001 0.189-0.025 0.273-0.069s0.157-0.108 0.212-0.186l0.027-1.265h-1.083z"></path>
<path fill="#bfbfbf" d="M8.674 27.865c-0.482 0.085-0.975 0.085-1.457 0-0.045-0.045-0.084-0.096-0.115-0.151-0.049-0.087-0.076-0.185-0.080-0.285s0.015-0.2 0.057-0.291l0.29-0.522 1.151 0.013 0.259 0.476c0.062 0.113 0.089 0.242 0.077 0.371s-0.063 0.25-0.145 0.35c-0.012 0.014-0.024 0.027-0.037 0.039z"></path>
<path fill="#bfbfbf" d="M8.391 27.208c0.071 0.032 0.139 0.070 0.203 0.115l-0.203-0.115z"></path>
<path fill="#bfbfbf" d="M7.306 27.324c0.126-0.087 0.268-0.148 0.418-0.179s0.304-0.032 0.455-0.003z"></path>
<path fill="#263238" d="M6.734 20.141l0.508 5.868h1.315c0 0 0.13-3.584 0.213-5.911 0.005-0.138-0.017-0.276-0.066-0.405s-0.123-0.247-0.218-0.346c-0.095-0.099-0.209-0.178-0.336-0.232s-0.262-0.081-0.399-0.081c-0.141-0-0.28 0.029-0.409 0.085s-0.245 0.14-0.341 0.244c-0.096 0.104-0.169 0.227-0.215 0.361s-0.064 0.276-0.052 0.418z"></path>
<path fill="#fff" d="M9.492 25.363l0.072 1.265 0.008 0.011c0.057 0.077 0.131 0.139 0.216 0.182s0.179 0.064 0.274 0.063c0.095-0.001 0.189-0.025 0.273-0.069s0.157-0.108 0.212-0.186l0.027-1.265h-1.083z"></path>
<path fill="#bfbfbf" d="M10.813 27.865c-0.482 0.085-0.975 0.085-1.457 0-0.045-0.045-0.083-0.096-0.114-0.151-0.049-0.087-0.077-0.185-0.081-0.285s0.015-0.2 0.057-0.291l0.291-0.522 1.15 0.013 0.259 0.476c0.062 0.113 0.089 0.242 0.077 0.371s-0.063 0.25-0.145 0.35c-0.012 0.014-0.024 0.027-0.037 0.039z"></path>
<path fill="#bfbfbf" d="M10.53 27.208c0.071 0.031 0.139 0.070 0.203 0.115l-0.203-0.115z"></path>
<path fill="#bfbfbf" d="M9.446 27.324c0.126-0.087 0.268-0.148 0.418-0.179s0.304-0.032 0.455-0.003z"></path>
<path fill="#263238" d="M8.875 20.141l0.508 5.868h1.315c0 0 0.13-3.584 0.213-5.911 0.005-0.138-0.018-0.276-0.067-0.406s-0.124-0.247-0.22-0.346c-0.096-0.099-0.21-0.178-0.337-0.232s-0.263-0.081-0.4-0.080c-0.14 0-0.279 0.030-0.408 0.087s-0.244 0.14-0.339 0.244c-0.095 0.104-0.168 0.227-0.213 0.361s-0.063 0.276-0.052 0.417z"></path>
<path fill="#fff" d="M26.446 10.155v-2.731c0-0.132-0.052-0.259-0.145-0.352s-0.218-0.146-0.349-0.146h-4.253c-0.131 0-0.257 0.052-0.349 0.146s-0.145 0.22-0.145 0.352v2.731c0 0.132 0.052 0.259 0.145 0.352s0.218 0.146 0.349 0.146h1.481l-0.117 1.039h0.762v0.98l0.905-1.6h-0.742l0.078-0.42h1.886c0.131 0 0.257-0.052 0.349-0.146s0.145-0.22 0.145-0.352z"></path>
<path fill="#e8e8e8" d="M29.694 21.848l2.569 0.863-0.637 0.643 1.189 1.198-2.569-0.863 0.637-0.643-1.189-1.198z"></path>
<path fill="#e8e8e8" d="M17.956 21.848l-2.569 0.863 0.637 0.643-1.189 1.198 2.569-0.863-0.637-0.643 1.189-1.198z"></path>
<path fill="#e8e8e8" d="M23.753 2.057l-1.212 2.441h0.902v1.695l1.211-2.441h-0.902v-1.695z"></path>
</svg>
