<!-- Generated by IcoMoon.io -->
<svg version="1.1" xmlns="http://www.w3.org/2000/svg" width="43" height="32" viewBox="0 0 43 32">
<title>webinar</title>
<path fill="#cbcbcb" d="M36.684 15.185c-0.355-1.742-0.979-3.443-1.721-5.006-1.279-2.697-3.375-4.937-6.056-6.266-6.579-3.263-11.326-1.903-13.904 0.748s-1.831 7.205-4.612 9.176c-2.781 1.971-4.748 2.855-4.883 6.457s1.628 6.322 4.476 7.205c2.849 0.884 7.121 3.739 15.667 2.107s10.648-6.186 11.191-9.448c0.271-1.642 0.178-3.326-0.158-4.973z"></path>
<path fill="#fff" opacity="0.7" d="M36.684 15.185c-0.355-1.742-0.979-3.443-1.721-5.006-1.279-2.697-3.375-4.937-6.056-6.266-6.579-3.263-11.326-1.903-13.904 0.748s-1.831 7.205-4.612 9.176c-2.781 1.971-4.748 2.855-4.883 6.457s1.628 6.322 4.476 7.205c2.849 0.884 7.121 3.739 15.667 2.107s10.648-6.186 11.191-9.448c0.271-1.642 0.178-3.326-0.158-4.973z"></path>
<path fill="#c9c9c9" d="M16.652 5.239h-0.614v2.729h0.614v-2.729z"></path>
<path fill="#fff" d="M16.652 5.649h-0.614v0.266h0.614v-0.266z"></path>
<path fill="#fff" d="M16.652 7.343h-0.614v0.266h0.614v-0.266z"></path>
<path fill="#878787" d="M17.369 5.239h-0.86v2.729h0.86v-2.729z"></path>
<path fill="#c9c9c9" d="M17.308 5.239h-0.614v2.729h0.614v-2.729z"></path>
<path fill="#fff" d="M17.308 5.649h-0.614v0.266h0.614v-0.266z"></path>
<path fill="#fff" d="M17.308 7.343h-0.614v0.266h0.614v-0.266z"></path>
<path fill="#878787" d="M18.024 5.239h-0.86v2.729h0.86v-2.729z"></path>
<path fill="#c9c9c9" d="M17.963 5.239h-0.614v2.729h0.614v-2.729z"></path>
<path fill="#fff" d="M17.963 5.649h-0.614v0.266h0.614v-0.266z"></path>
<path fill="#fff" d="M17.963 7.343h-0.614v0.266h0.614v-0.266z"></path>
<path fill="#c9c9c9" d="M18.679 5.239h-0.86v2.729h0.86v-2.729z"></path>
<path fill="#fff" d="M19.24 7.996h1.443l0.384-0.348h-1.827v0.348z"></path>
<path fill="#fff" d="M20.903 8.013l-0.046-0.080-1.647-0.003 0.047 0.083h1.646z"></path>
<path fill="#c9c9c9" d="M18.404 5.296l-0.532 0.308 1.363 2.363 0.532-0.308-1.363-2.363z"></path>
<path fill="#fff" d="M18.609 5.65l-0.532 0.308 0.133 0.231 0.532-0.308-0.133-0.231z"></path>
<path fill="#fff" d="M19.455 7.116l-0.532 0.308 0.133 0.231 0.532-0.308-0.133-0.231z"></path>
<path fill="#c9c9c9" d="M21.057 7.672l-1.304-0.003-1.363-2.363 1.304 0.003 1.363 2.363z"></path>
<path fill="#cbcbcb" d="M21.768 6.614c0 0-0.237-0.085-0.305-0.459s-0.186-0.901-0.051-1.020c0.136-0.119 0.39-0.187 0.424 0.051s-0.017 0.697 0.034 0.799c0.051 0.102 0.22 0.034 0.22-0.17 0-0.336-0.136-0.68-0.087-1.020 0.068-0.47 0.543-0.521 0.593 0 0.029 0.288 0.037 0.583 0.037 0.872 0 0.119 0.203 0.187 0.186-0.102-0.012-0.204 0.136-0.442 0.339-0.374s0.034 0.969-0.034 1.122-0.492 0.181-0.492 0.181v0.391l-0.509 0.017-0.017-0.391c-0.104 0.060-0.22 0.095-0.339 0.102z"></path>
<path fill="#fff" d="M23.090 6.733l-0.104 0.852-0.049 0.402h-1.22l-0.049-0.402-0.042-0.345-0.062-0.507h1.525z"></path>
<path fill="#cbcbcb" d="M23.029 7.24l-0.042 0.345h-1.318l-0.042-0.345h1.402z"></path>
<path fill="#fff" d="M23.761 7.987h-7.832v0.52h7.832v-0.52z"></path>
<path fill="#fff" d="M23.761 7.987h-1.805v0.52h1.805v-0.52z"></path>
<path fill="#919191" d="M21.779 8.509c0.839 0.31 0.688 0.896 0.688 0.896h0.794v-0.896h-1.482z"></path>
<path fill="#fff" d="M22.047 8.509c0.838 0.31 0.687 0.896 0.687 0.896h0.795v-0.896h-1.482z"></path>
<path fill="#919191" d="M16.404 8.509c0.839 0.31 0.688 0.896 0.688 0.896h0.794v-0.896h-1.482z"></path>
<path fill="#fff" d="M16.672 8.509c0.838 0.31 0.687 0.896 0.687 0.896h0.795v-0.896h-1.482z"></path>
<path fill="#919191" d="M34.674 5.336h-7.024v9.772h7.024v-9.772z"></path>
<path fill="#cbcbcb" d="M34.37 5.76h-6.414v8.923h6.414v-8.923z"></path>
<path fill="#fff" opacity="0.5" d="M34.37 5.76h-6.414v8.923h6.414v-8.923z"></path>
<path fill="#263238" d="M23.887 18.485h-1.742v0.657h1.742v-0.657z"></path>
<path fill="#919191" d="M26.225 18.584h-6.935l0.328-5.387h6.936l-0.329 5.387z"></path>
<path fill="#263238" d="M26.026 18.584h-6.935l0.328-5.387h6.935l-0.328 5.387z"></path>
<path fill="#fff" d="M25.659 18.284h-6.165l0.292-4.789h6.165l-0.292 4.789z"></path>
<path fill="#919191" d="M23.866 17.57h-4.187l0.224-3.69h4.188l-0.225 3.69z"></path>
<path fill="#fff" d="M21.331 15.985c0 0-0.872 0.346-0.878 0.439s-0.176 1.146-0.176 1.146h2.594l-0.218-1.213-0.96-0.4-0.361 0.027z"></path>
<path fill="#fff" d="M21.356 15.772c-0.066 0.017-0.127 0.049-0.178 0.093-0.068 0.068-0.151 0.293-0.151 0.293l-0.003 0.266 0.344-0.186 0.349-0.023 0.327 0.306 0.042-0.466c0 0-0.050-0.267-0.156-0.28s-0.574-0.003-0.574-0.003z"></path>
<path fill="#fff" d="M21.345 15.519l-0.015 0.466 0.206 0.333 0.34-0.347 0.053-0.426-0.583-0.027z"></path>
<path fill="#fff" d="M22.184 14.974c-0.024 0.391-0.284 0.865-0.568 0.865s-0.486-0.476-0.462-0.865c0.024-0.389 0.271-0.708 0.558-0.708s0.496 0.317 0.472 0.708z"></path>
<path fill="#fff" d="M21.149 15.026c0 0-0.092-0.239-0.13-0.053s0.149 0.386 0.149 0.386l-0.020-0.333z"></path>
<path fill="#fff" d="M22.184 14.974c0 0 0.224-0.095 0.159 0.105-0.017 0.056-0.046 0.109-0.085 0.152s-0.088 0.078-0.143 0.101l0.069-0.358z"></path>
<path fill="#fff" d="M21.588 15.025c0.002-0.024-0.001-0.048-0.009-0.071s-0.021-0.043-0.037-0.061c-0.017-0.018-0.036-0.031-0.058-0.041s-0.046-0.014-0.070-0.014c-0.050 0.001-0.098 0.021-0.134 0.055s-0.059 0.081-0.063 0.131c-0.002 0.024 0.001 0.048 0.009 0.071s0.021 0.044 0.037 0.061c0.016 0.018 0.036 0.032 0.058 0.041s0.046 0.014 0.070 0.014c0.050-0.001 0.098-0.021 0.134-0.056s0.059-0.081 0.063-0.131z"></path>
<path fill="#fff" d="M22.040 15.026c0.002-0.024-0.001-0.048-0.009-0.071s-0.020-0.043-0.037-0.061c-0.016-0.018-0.036-0.031-0.058-0.041s-0.046-0.014-0.070-0.014c-0.050 0.001-0.098 0.021-0.134 0.055s-0.059 0.081-0.064 0.131c-0.002 0.024 0.001 0.048 0.009 0.071s0.021 0.044 0.037 0.061c0.016 0.018 0.036 0.032 0.058 0.041s0.046 0.014 0.070 0.014c0.050-0.001 0.098-0.021 0.134-0.056s0.059-0.081 0.063-0.131z"></path>
<path fill="#263238" d="M21.666 14.186c0 0-0.203-0.106-0.356-0.039s-0.265 0.426-0.258 0.519c0.024 0.122 0.057 0.242 0.098 0.36l0.161-0.466 0.423-0.186-0.069-0.187z"></path>
<path fill="#263238" d="M21.461 14.28c0 0 0.335-0.267 0.606-0.136 0.083 0.036 0.152 0.099 0.195 0.179s0.059 0.171 0.044 0.261c-0.004 0.068-0.009 0.373-0.009 0.373l-0.161 0.027-0.079-0.251c-0.092-0.036-0.181-0.079-0.267-0.126 0 0-0.359-0.047-0.328-0.326z"></path>
<path fill="#fff" d="M21.588 15.026l-0.024 0.387h0.093z"></path>
<path fill="#fff" d="M22.835 16.811l0.092-0.413 0.156-0.16 0.147-0.24h0.067l-0.081 0.254 0.206-0.12 0.133-0.213 0.077 0.039-0.19 0.494-0.301 0.146-0.052 0.2-0.253 0.014z"></path>
<path fill="#fff" d="M23.093 17.57l0.025-0.826-0.302-0.054-0.239 0.88h0.516z"></path>
<path fill="#fff" d="M23.847 17.877h-4.188l0.019-0.306h4.187l-0.018 0.306z"></path>
<path fill="#cbcbcb" d="M25.666 14.865h-1.409l0.060-0.973h1.409l-0.060 0.973z"></path>
<path fill="#fff" d="M25.666 14.865h-1.409l0.010-0.16h1.409l-0.010 0.16z"></path>
<path fill="#fff" d="M25.211 14.322l-0.366-0.22-0.026 0.439 0.393-0.22z"></path>
<path fill="#cbcbcb" d="M25.574 16.371h-1.409l0.059-0.972h1.409l-0.059 0.972z"></path>
<path fill="#fff" d="M25.574 16.371h-1.409l0.010-0.16h1.409l-0.009 0.16z"></path>
<path fill="#fff" d="M25.119 15.828l-0.366-0.22-0.026 0.439 0.393-0.22z"></path>
<path fill="#cbcbcb" d="M25.482 17.877h-1.409l0.059-0.973h1.409l-0.060 0.973z"></path>
<path fill="#fff" d="M25.482 17.877h-1.409l0.009-0.16h1.409l-0.010 0.16z"></path>
<path fill="#fff" d="M25.027 17.334l-0.366-0.22-0.027 0.439 0.393-0.22z"></path>
<path fill="#fff" d="M23.561 19.142h-1.030c0-0.103 0.041-0.202 0.113-0.274s0.171-0.114 0.274-0.114h0.254c0.103 0 0.201 0.041 0.274 0.114s0.113 0.172 0.113 0.274h0.001z"></path>
<path fill="#919191" d="M22.041 18.931h-5.034v0.211h5.034v-0.211z"></path>
<path fill="#fff" d="M22.039 18.931h-1.265v0.211h1.265v-0.211z"></path>
<path fill="#919191" d="M24.096 20.552l0.61 8.247c0.003 0.030 0.018 0.058 0.041 0.078s0.052 0.030 0.083 0.029c0.030-0.001 0.059-0.014 0.080-0.036s0.033-0.050 0.034-0.081l-0.092-8.237h-0.756z"></path>
<path fill="#fff" d="M24.556 20.552l0.322 8.342c0.019-0.010 0.035-0.025 0.046-0.044s0.017-0.040 0.017-0.061l-0.090-8.237h-0.295z"></path>
<path fill="#919191" d="M27.933 20.552l0.61 8.247c0.003 0.030 0.018 0.058 0.041 0.078s0.052 0.030 0.083 0.029 0.059-0.014 0.080-0.036c0.021-0.022 0.033-0.050 0.034-0.081l-0.092-8.237h-0.756z"></path>
<path fill="#fff" d="M28.357 20.552l0.376 8.33c0.014-0.011 0.025-0.025 0.033-0.041s0.012-0.034 0.012-0.052l-0.090-8.237h-0.331z"></path>
<path fill="#263238" d="M17.819 20.642l-0.61 8.157c-0.002 0.030-0.015 0.058-0.037 0.078s-0.051 0.032-0.081 0.032c-0.016 0-0.031-0.003-0.046-0.008s-0.028-0.014-0.039-0.025c-0.011-0.011-0.020-0.024-0.026-0.039s-0.009-0.030-0.009-0.046l0.090-8.17 0.759 0.022z"></path>
<path fill="#263238" d="M13.985 20.642l-0.61 8.157c-0.002 0.030-0.015 0.058-0.037 0.078s-0.051 0.032-0.081 0.032c-0.016-0-0.031-0.003-0.046-0.009s-0.027-0.015-0.039-0.026c-0.011-0.011-0.020-0.024-0.025-0.039s-0.009-0.030-0.009-0.046l0.090-8.17 0.756 0.024z"></path>
<path fill="#919191" d="M28.913 19.334h-15.913v1.285h15.913v-1.285z"></path>
<path fill="#fff" d="M28.913 19.334h-4.56v1.285h4.56v-1.285z"></path>
<path fill="#263238" d="M28.913 19.538h-15.913v0.354h15.913v-0.354z"></path>
<path fill="#919191" d="M29.142 19.149h-16.372v0.43h16.372v-0.43z"></path>
<path fill="#fff" d="M29.141 19.149h-4.496v0.43h4.496v-0.43z"></path>
<path fill="#fff" d="M24.314 11.185h-2.21c-0.115 0-0.226 0.046-0.307 0.127s-0.127 0.192-0.127 0.308v0.816c-0 0.057 0.011 0.114 0.033 0.166s0.054 0.101 0.094 0.141c0.040 0.040 0.088 0.072 0.141 0.094s0.109 0.033 0.166 0.033h1.157l-0.433 1.213 0.83-1.213h0.656c0.057 0 0.113-0.011 0.166-0.033s0.101-0.054 0.141-0.094 0.072-0.088 0.094-0.141c0.022-0.053 0.033-0.109 0.033-0.166v-0.816c0-0.115-0.046-0.226-0.127-0.308s-0.192-0.127-0.307-0.127z"></path>
<path fill="#263238" d="M22.617 12.213c0.087 0 0.158-0.071 0.158-0.158s-0.071-0.158-0.158-0.158c-0.087 0-0.158 0.071-0.158 0.158s0.071 0.158 0.158 0.158z"></path>
<path fill="#263238" d="M23.209 12.213c0.087 0 0.158-0.071 0.158-0.158s-0.071-0.158-0.158-0.158c-0.087 0-0.158 0.071-0.158 0.158s0.071 0.158 0.158 0.158z"></path>
<path fill="#263238" d="M23.959 12.055c0-0.031-0.009-0.062-0.027-0.088s-0.042-0.046-0.071-0.058c-0.029-0.012-0.061-0.015-0.091-0.009s-0.059 0.021-0.081 0.044c-0.022 0.022-0.037 0.050-0.043 0.081s-0.003 0.063 0.009 0.092c0.012 0.029 0.032 0.054 0.058 0.071s0.057 0.027 0.088 0.026c0.021 0 0.041-0.004 0.060-0.012s0.037-0.020 0.051-0.034c0.015-0.015 0.026-0.032 0.034-0.051s0.012-0.040 0.012-0.061z"></path>
<path fill="#fff" d="M16.674 16.914c-0.199-0.34-0.783-1.648-0.783-1.648 0.018-0.14 0.046-0.278 0.085-0.413 0.048-0.136 0.17-0.548 0.145-0.633s-0.376-0.243-0.412-0.255c-0.036-0.012 0.048-0.219-0.085-0.268s-0.182 0.024-0.182 0.024l-0.051 0.34-0.156 0.245c-0.065-0.050-0.133-0.095-0.203-0.136-0.109-0.061-0.364-0.086-0.377 0.012s0.204 0.182 0.279 0.243 0.17 0.353 0.256 0.438c0.078 0.085 0.151 0.174 0.218 0.267l0.049 0.158c0 0 0.166 1.603 0.186 2.002s0.079 1.455 0.199 1.614 0.14 0.26 0.475 0.14c0.335-0.12 0.398-0.279 0.475-0.638s0.082-1.154-0.117-1.492z"></path>
<path fill="#cbcbcb" d="M16.793 18.408c0.079-0.358 0.079-1.156-0.119-1.495-0.022-0.037-0.048-0.086-0.078-0.143-0.45-0.131-0.877 0.083-0.877 0.083l-0.108 0.048c0.014 0.167 0.025 0.306 0.029 0.391 0.020 0.398 0.079 1.455 0.199 1.614s0.14 0.26 0.475 0.14c0.335-0.12 0.4-0.278 0.48-0.637z"></path>
<path fill="#fff" d="M15.224 11.525c0.049 0.18 0.076 0.366 0.081 0.553 0 0.266-0.081 0.43 0.041 0.511s0.225 0.082 0.204 0.246c-0.008 0.090-0.044 0.176-0.102 0.245 0 0-0.041 0.839-0.081 0.921s-0.572-0.020-0.694-0.041c-0.123-0.021-0.469 0.143-0.694-0.306s-0.041-1.126 0.368-1.474c0.281-0.234 0.574-0.453 0.879-0.655z"></path>
<path fill="#fff" d="M15.641 17.221c0 0-0.068 0.311-0.128 0.476s-1.143 0.466-1.614 0.529c-0.31 0.039-0.623 0.059-0.936 0.062l0.030 0.86c0 0 0.913 0.018 0.977 0s1.601-0.707 1.601-0.707l0.663-0.087c0 0 0.279-0.068 0.29-0.285s-0.235-0.833-0.347-0.929c-0.112-0.096-0.348-0.35-0.49-0.194s-0.046 0.275-0.046 0.275z"></path>
<path fill="#cbcbcb" d="M13.605 18.766c0-0.372 0.095-0.381 0.204-0.529-0.28 0.031-0.562 0.048-0.844 0.050l-0.022 0.79c0 0 0.5 0.046 0.804 0.068-0.025 0.039-0.141-0.14-0.141-0.379z"></path>
<path fill="#cbcbcb" d="M16.553 20.438c-0.361-0.407-0.82-0.714-1.333-0.892l-1.191 0.509c-0.092-0.227-0.215-0.442-0.365-0.636l-0.223-0.272 0.143-0.78c0 0 0.857-0.589 0.968-0.844l0.004-0.008c0.172 0.267 0.92 1.423 1.060 1.535 0.159 0.128 0.635 0.143 0.841-0.048s0.302-0.318 0.254-0.604c0 0-0.317-0.684-0.492-0.987s-0.556-1.384-0.746-1.718c-0.136-0.239-0.192-0.408-0.288-0.521-0.067-0.115-0.146-0.223-0.235-0.322-0.191-0.204-0.715-0.255-0.826-0.302s-0.127-0.064-0.762-0.254c-0.635-0.19-1.35-0.302-1.858 0.095 0 0-0.682 0.812-0.95 2.148s-0.286 2.689-0.317 2.928c-0.031 0.239-0.302 1.4-0.381 2.069s0.617 1.339 1.045 1.547c0.429 0.208 2.27 0.239 3.35 0s2.794-1.321 2.794-1.321 0.063-0.669-0.492-1.321z"></path>
<path fill="#fff" d="M16.613 17.553c0.063 0.099 0.101 0.211 0.113 0.327 0 0.15 0.025 0.351-0.037 0.289s-0.088-0.277-0.088-0.277l0.013-0.339z"></path>
<path fill="#fff" d="M16.238 17.377c0 0 0.235-0.128 0.339 0.026s0.077 0.46 0 0.612c-0.077 0.152-0.164 0.007-0.153-0.128s-0.186-0.51-0.186-0.51z"></path>
<path fill="#fff" d="M16.149 17.214c0 0 0.235-0.128 0.339 0.026s0.076 0.459 0 0.612c-0.076 0.152-0.164 0.007-0.153-0.128s-0.186-0.51-0.186-0.51z"></path>
<path fill="#fff" d="M16.042 17.038c0 0 0.235-0.128 0.339 0.026s0.077 0.46 0 0.612c-0.077 0.152-0.164 0.007-0.153-0.128s-0.186-0.51-0.186-0.51z"></path>
<path fill="#263238" d="M15.446 10.887c0.004 0.244-0.059 0.485-0.182 0.696-0.347 0.532-0.674 0.47-0.814 0.901s-0.35 0.877-0.126 1.126c0.224 0.249 0.407 0.102 0.407 0.102s0.143 0.368-0.225 0.737c-0.368 0.368-1 0.225-1.164 0.164-0.103-0.040-0.199-0.095-0.286-0.164 0 0-0.102 0.287-0.61 0.287s-1.085-0.348-1.085-0.983c0-0.635 0.347-1.064 0.429-1.31s-0.143-1.003 0.203-1.473c0.347-0.47 0.882-0.816 1.289-0.816s1.201 0.224 1.204 0.225c0.054 0.029 0.397-0.111 0.49-0.105 0.341 0.019 0.465 0.3 0.469 0.613z"></path>
<path fill="#fff" d="M17.465 22.965c0 0 0.423 2.179 0.785 3.238s0.724 2.028 0.814 2.119c0.090 0.091 0.332 0.424 0.332 0.424-0.112 0.090-0.249 0.143-0.393 0.152-0.212 0-0.483-0.272-0.725-0.424s-0.271-0.242-0.755-0.424c-0.484-0.181-0.090-0.665 0.030-0.908 0.070-0.131 0.111-0.275 0.121-0.423-0.192-0.682-0.532-1.312-0.996-1.846-0.754-0.847-0.905-2.811-0.905-2.811l1.449-0.544 0.241 1.448z"></path>
<path fill="#cbcbcb" d="M19.004 28.214l-0.087 0.018c0 0-0.514-0.696-0.905-0.938-0.134-0.093-0.291-0.145-0.453-0.151-0.121 0.242-0.514 0.726-0.031 0.907s0.514 0.272 0.755 0.424c0.241 0.152 0.513 0.424 0.725 0.424 0.143-0.009 0.28-0.062 0.393-0.151 0 0-0.242-0.333-0.332-0.424-0.026-0.034-0.047-0.070-0.064-0.109z"></path>
<path fill="#cbcbcb" d="M18.761 28.811c-0.239-0.165-0.454-0.532-0.843-0.761-0.353-0.208-0.535-0.216-0.61-0.201 0.018 0.049 0.048 0.092 0.087 0.127s0.085 0.060 0.135 0.074c0.484 0.181 0.514 0.272 0.755 0.423 0.153 0.098 0.321 0.249 0.477 0.338z"></path>
<path fill="#cbcbcb" d="M19.004 28.897c-0.015-0-0.031-0.002-0.046-0.005 0.015 0.003 0.031 0.005 0.046 0.005z"></path>
<path fill="#fff" d="M14.773 19.682c0 0 1.451-0.515 1.587-0.175s0.757 1.608 0.53 2.128c-0.227 0.521-1.819-1.495-2.046-1.539s-0.098-0.262-0.072-0.414z"></path>
<path fill="#fff" d="M16.196 20.346c0 0 1.65-0.136 1.967 0.159s-0.768 3.829-1.356 4.939c-0.922 1.736-0.643 2.191-0.643 2.191s0.068 0.272 0.52 0.703c0.452 0.431 0.588 0.498 0.429 0.566s-0.836 0-0.904-0.046c-0.068-0.046-0.565-0.453-1.017-0.589s-0.385-0.227-0.181-0.635c0.204-0.408 0.181-0.068 0.407-0.77 0.271-0.865 0.485-1.747 0.64-2.641 0.12-0.728 0.303-1.527 0.252-2.268l-0.113-1.61z"></path>
<path fill="#263238" d="M17.404 21.452c-0.173-0.418-0.47-0.772-0.851-1.014-0.722-0.462-1.333-0.892-1.333-0.892l-1.191 0.509c0 0 0.29 0.494-1.202 0.743-1.149 0.192-2.204-0.086-2.773-0.421-0.079 0.395-0.162 0.834-0.204 1.155-0.079 0.668 0.619 1.336 1.048 1.544s3.882 0.636 4.812 0.037c1.694-1.085 1.694-1.66 1.694-1.66z"></path>
<path fill="#cbcbcb" d="M13.894 20.429c-0.159 0.131-0.47 0.272-1.067 0.369-1.149 0.192-2.204-0.086-2.773-0.421-0.020 0.101-0.041 0.204-0.061 0.309 0.39 0.235 1.209 0.634 2.133 0.52 1.102-0.135 1.592-0.437 1.767-0.777z"></path>
<path fill="#cbcbcb" d="M16.683 28.336c-0.452-0.43-0.52-0.701-0.52-0.701-0.015-0.014-0.027-0.031-0.035-0.050-0.030 0.032-0.123 0.093-0.349 0.006-0.196-0.076-0.382-0.204-0.578-0.29-0.047 0.084-0.092 0.136-0.191 0.335-0.204 0.408-0.271 0.499 0.181 0.635s0.95 0.544 1.017 0.589c0.068 0.045 0.746 0.113 0.904 0.046s0.023-0.137-0.429-0.568z"></path>
<path fill="#919191" d="M7.912 17.375c0 0 2.45-0.307 4.015 0.136l0.238 5.969h-3.673c0 0 0.237-3.206-0.58-6.105z"></path>
<path fill="#757575" d="M11.927 17.511c-1.565-0.443-4.015-0.136-4.015-0.136 0.262 0.966 0.436 1.954 0.52 2.951 1.368 0.684 2.621 1.579 3.713 2.651l-0.218-5.466z"></path>
<path fill="#fff" d="M16.546 29.062c-0.028 0-0.055-0.008-0.078-0.024s-0.040-0.038-0.050-0.064c-0.543-1.465-0.678-5.27-0.686-5.431-0.001-0.036 0.012-0.071 0.036-0.098s0.059-0.042 0.095-0.043c0.036-0.001 0.071 0.012 0.097 0.036s0.042 0.059 0.043 0.095c0 0.039 0.141 3.921 0.669 5.345 0.012 0.034 0.011 0.071-0.004 0.104s-0.042 0.058-0.076 0.071c-0.015 0.006-0.031 0.009-0.047 0.009z"></path>
<path fill="#fff" d="M13.592 29.062c-0.028-0-0.055-0.009-0.077-0.024s-0.040-0.038-0.050-0.064c-0.543-1.465-0.678-5.27-0.687-5.431-0.001-0.036 0.012-0.071 0.036-0.098s0.059-0.042 0.095-0.043c0.036-0.001 0.071 0.012 0.097 0.036s0.042 0.059 0.043 0.095c0 0.039 0.141 3.921 0.67 5.345 0.012 0.034 0.011 0.071-0.004 0.104s-0.042 0.058-0.076 0.071c-0.015 0.006-0.031 0.009-0.047 0.009z"></path>
<path fill="#919191" d="M16.51 23.477h-8.082v-0.272h7.813c0.072 0 0.141 0.029 0.192 0.080s0.079 0.12 0.079 0.192h-0.001z"></path>
<path fill="#fff" d="M16.509 23.411h-8.082v0.27h8.082v-0.27z"></path>
<path fill="#fff" d="M11.866 29.062c-0.020 0-0.041-0.004-0.059-0.012s-0.035-0.021-0.048-0.037c-0.013-0.016-0.022-0.034-0.027-0.054s-0.005-0.041-0.001-0.061c0.767-3.642 0.068-11.3 0.058-11.377-0.002-0.018 0-0.036 0.005-0.053s0.014-0.033 0.025-0.047c0.011-0.014 0.025-0.025 0.041-0.034s0.033-0.014 0.051-0.015c0.036-0.003 0.072 0.008 0.1 0.031s0.045 0.056 0.049 0.093c0.008 0.078 0.712 7.776-0.063 11.458-0.006 0.030-0.023 0.057-0.046 0.077s-0.054 0.031-0.084 0.031z"></path>
<path fill="#fff" d="M7.661 28.963c-0.013 0-0.025-0.002-0.037-0.005-0.034-0.010-0.064-0.033-0.081-0.064s-0.022-0.068-0.012-0.103c1.763-6.274 0.267-11.326 0.252-11.376-0.009-0.034-0.004-0.070 0.013-0.1s0.045-0.053 0.078-0.063c0.033-0.010 0.069-0.007 0.1 0.008s0.055 0.043 0.067 0.076c0.016 0.051 1.538 5.175-0.25 11.529-0.008 0.029-0.025 0.054-0.048 0.072s-0.052 0.028-0.082 0.028z"></path>
<path fill="#cbcbcb" d="M31.799 17.967c0 0-0.319 0.204-0.5-0.030s0.123-0.663-0.145-0.847c-0.268-0.184-0.731 0.096-0.731 0.096s0.356 0.105 0.345 0.3c-0.012 0.195-0.183 0.268-0.203 0.183s-0.193-0.515-0.482-0.336c-0.084 0.049-0.156 0.115-0.213 0.193s-0.098 0.167-0.12 0.262c0 0 0.674-0.072 0.714 0.181s-0.276-0.044-0.554-0.061c-0.278-0.016-0.532 0.024-0.514 0.193 0.006 0.149-0.003 0.299-0.026 0.446 0.152-0.127 0.345-0.195 0.543-0.192 0.306 0.018 0.294 0.213 0.016 0.197s-0.517 0.249-0.517 0.249 0.254 0.434 0.576 0.649c0.322 0.215 0.438 0.136 0.475-0.028s-0.049-0.59 0.146-0.578c0.195 0.012-0.322 0.736-0.074 0.778s0.448-0.029 0.513-0.193l0.068-0.164c0 0-0.087-0.425-0.049-0.59s0.083 0.005 0.128 0.204c0.044 0.199 0.072 0.675 0.157 0.652s0.357-0.37 0.421-0.506c0.064-0.137-0.358-0.552-0.353-0.636s0.33 0.076 0.381 0.163c0.037 0.066 0.070 0.134 0.1 0.204 0 0 0.204-0.128 0.198-0.519s-0.296-0.272-0.296-0.272z"></path>
<path fill="#263238" opacity="0.3" d="M31.799 17.967c0 0-0.319 0.204-0.5-0.030s0.123-0.663-0.145-0.847c-0.268-0.184-0.731 0.096-0.731 0.096s0.356 0.105 0.345 0.3c-0.012 0.195-0.183 0.268-0.203 0.183s-0.193-0.515-0.482-0.336c-0.084 0.049-0.156 0.115-0.213 0.193s-0.098 0.167-0.12 0.262c0 0 0.674-0.072 0.714 0.181s-0.276-0.044-0.554-0.061c-0.278-0.016-0.532 0.024-0.514 0.193 0.006 0.149-0.003 0.299-0.026 0.446 0.152-0.127 0.345-0.195 0.543-0.192 0.306 0.018 0.294 0.213 0.016 0.197s-0.517 0.249-0.517 0.249 0.254 0.434 0.576 0.649c0.322 0.215 0.438 0.136 0.475-0.028s-0.049-0.59 0.146-0.578c0.195 0.012-0.322 0.736-0.074 0.778s0.448-0.029 0.513-0.193l0.068-0.164c0 0-0.087-0.425-0.049-0.59s0.083 0.005 0.128 0.204c0.044 0.199 0.072 0.675 0.157 0.652s0.357-0.37 0.421-0.506c0.064-0.137-0.358-0.552-0.353-0.636s0.33 0.076 0.381 0.163c0.037 0.066 0.070 0.134 0.1 0.204 0 0 0.204-0.128 0.198-0.519s-0.296-0.272-0.296-0.272z"></path>
<path fill="#cbcbcb" d="M32.936 17.141c0 0-0.013 0.459-0.371 0.482s-0.579-0.576-0.945-0.432c-0.366 0.144-0.401 0.799-0.401 0.799s0.347-0.286 0.534-0.142c0.187 0.144 0.144 0.367 0.043 0.332s-0.645-0.157-0.664 0.255c-0.008 0.117 0.009 0.235 0.048 0.346s0.1 0.213 0.18 0.3c0 0 0.387-0.725 0.669-0.593s-0.233 0.247-0.439 0.515c-0.206 0.268-0.339 0.55-0.157 0.647 0.153 0.095 0.296 0.206 0.427 0.33 0 0-0.049-0.379 0.178-0.674s0.413-0.15 0.208 0.118c-0.206 0.268-0.104 0.689-0.104 0.689s0.606 0.041 1.040-0.136c0.434-0.177 0.437-0.346 0.297-0.496s-0.623-0.353-0.479-0.544 0.516 0.825 0.728 0.604c0.212-0.22 0.276-0.47 0.157-0.647l-0.119-0.177c0 0-0.483-0.204-0.623-0.354s0.062-0.080 0.29 0.011c0.229 0.091 0.723 0.388 0.758 0.287s-0.127-0.612-0.219-0.767c-0.092-0.155-0.796-0.017-0.876-0.079s0.3-0.28 0.422-0.272c0.091 0.008 0.182 0.020 0.271 0.037 0 0 0.011-0.291-0.384-0.553s-0.469 0.113-0.469 0.113z"></path>
<path fill="#263238" opacity="0.2" d="M32.936 17.141c0 0-0.013 0.459-0.371 0.482s-0.579-0.576-0.945-0.432c-0.366 0.144-0.401 0.799-0.401 0.799s0.347-0.286 0.534-0.142c0.187 0.144 0.144 0.367 0.043 0.332s-0.645-0.157-0.664 0.255c-0.008 0.117 0.009 0.235 0.048 0.346s0.1 0.213 0.18 0.3c0 0 0.387-0.725 0.669-0.593s-0.233 0.247-0.439 0.515c-0.206 0.268-0.339 0.55-0.157 0.647 0.153 0.095 0.296 0.206 0.427 0.33 0 0-0.049-0.379 0.178-0.674s0.413-0.15 0.208 0.118c-0.206 0.268-0.104 0.689-0.104 0.689s0.606 0.041 1.040-0.136c0.434-0.177 0.437-0.346 0.297-0.496s-0.623-0.353-0.479-0.544 0.516 0.825 0.728 0.604c0.212-0.22 0.276-0.47 0.157-0.647l-0.119-0.177c0 0-0.483-0.204-0.623-0.354s0.062-0.080 0.29 0.011c0.229 0.091 0.723 0.388 0.758 0.287s-0.127-0.612-0.219-0.767c-0.092-0.155-0.796-0.017-0.876-0.079s0.3-0.28 0.422-0.272c0.091 0.008 0.182 0.020 0.271 0.037 0 0 0.011-0.291-0.384-0.553s-0.469 0.113-0.469 0.113z"></path>
<path fill="#cbcbcb" d="M31.34 19.881c0 0-0.058 0.529-0.475 0.521s-0.61-0.719-1.050-0.587c-0.439 0.132-0.539 0.884-0.539 0.884s0.429-0.298 0.631-0.113c0.202 0.185 0.131 0.437 0.018 0.387s-0.73-0.243-0.79 0.231c-0.020 0.135-0.012 0.272 0.023 0.404s0.096 0.255 0.18 0.362c0 0 0.515-0.8 0.828-0.621s-0.292 0.263-0.555 0.553c-0.263 0.29-0.442 0.602-0.242 0.731 0.168 0.124 0.323 0.265 0.462 0.421 0 0-0.021-0.442 0.268-0.761s0.492-0.136 0.229 0.156c-0.263 0.292-0.184 0.784-0.184 0.784s0.697 0.105 1.214-0.058c0.517-0.163 0.536-0.358 0.389-0.544s-0.685-0.466-0.501-0.669c0.184-0.203 0.517 1 0.783 0.766s0.362-0.515 0.242-0.731l-0.121-0.216c0 0-0.538-0.279-0.685-0.466s0.079-0.086 0.334 0.040c0.255 0.126 0.798 0.516 0.848 0.403s-0.089-0.716-0.18-0.906c-0.092-0.19-0.917-0.095-1.004-0.174s0.374-0.294 0.513-0.272c0.103 0.017 0.206 0.040 0.307 0.068 0 0 0.039-0.334-0.391-0.674s-0.549 0.081-0.549 0.081z"></path>
<path fill="#263238" opacity="0.3" d="M31.34 19.881c0 0-0.058 0.529-0.475 0.521s-0.61-0.719-1.050-0.587c-0.439 0.132-0.539 0.884-0.539 0.884s0.429-0.298 0.631-0.113c0.202 0.185 0.131 0.437 0.018 0.387s-0.73-0.243-0.79 0.231c-0.020 0.135-0.012 0.272 0.023 0.404s0.096 0.255 0.18 0.362c0 0 0.515-0.8 0.828-0.621s-0.292 0.263-0.555 0.553c-0.263 0.29-0.442 0.602-0.242 0.731 0.168 0.124 0.323 0.265 0.462 0.421 0 0-0.021-0.442 0.268-0.761s0.492-0.136 0.229 0.156c-0.263 0.292-0.184 0.784-0.184 0.784s0.697 0.105 1.214-0.058c0.517-0.163 0.536-0.358 0.389-0.544s-0.685-0.466-0.501-0.669c0.184-0.203 0.517 1 0.783 0.766s0.362-0.515 0.242-0.731l-0.121-0.216c0 0-0.538-0.279-0.685-0.466s0.079-0.086 0.334 0.040c0.255 0.126 0.798 0.516 0.848 0.403s-0.089-0.716-0.18-0.906c-0.092-0.19-0.917-0.095-1.004-0.174s0.374-0.294 0.513-0.272c0.103 0.017 0.206 0.040 0.307 0.068 0 0 0.039-0.334-0.391-0.674s-0.549 0.081-0.549 0.081z"></path>
<path fill="#cbcbcb" d="M32.056 23.044c-0.211-0.238-0.659-0.238-0.922 0.37s-0.026 0.502-0.026 0.502c0 0 0.5-0.159 0.817-0.264s0.738-0.37 0.764-0.211c0.026 0.158-0.211 0.317-0.501 0.37s-1.054 0.264-0.975 0.425 0.264 0.634 0.264 0.634c0.225-0.192 0.463-0.368 0.712-0.528 0.343-0.211 0.554-0.133 0.37 0.105s-0.712 0.502-0.606 0.819c0.106 0.317 0.738 0.713 0.738 0.713s0.079-0.66 0.264-0.871c0.184-0.211 0.184 0.026 0.132 0.396-0.026 0.157-0.044 0.316-0.053 0.476l0.738 0.264c0.121-0.184 0.253-0.361 0.395-0.528l0.136-0.136c0 0-0.58-0.502-0.606-0.816s0.395 0 0.527 0.053c0.132 0.053 0.343 0.423 0.343 0.423s0.132-0.608 0.159-0.819l0.026-0.211c0 0-0.554-0.211-0.765-0.211s-0.316 0.158-0.316-0.052 0.211-0.344 0.448-0.317c0.215 0.036 0.426 0.089 0.633 0.158 0 0 0.158-0.132 0.105-0.528s-0.184-0.396-0.501-0.291c-0.316 0.105-0.528 0.344-0.765 0.344s-0.105-0.291 0.053-0.37c0.158-0.079 0.553-0.238 0.633-0.264s-0.422-0.396-0.686-0.449c-0.264-0.053-0.605 0.136-0.58 0.396 0.050 0.551-0.741 0.659-0.952 0.419z"></path>
<path fill="#cbcbcb" d="M34.588 20.769c-0.287-0.17-0.604-0.174-0.76-0.354s0.15-0.272 0.313-0.204c0.163 0.068 0.543 0.263 0.614 0.305s0.022-0.578-0.111-0.816c-0.133-0.237-0.497-0.37-0.678-0.179-0.383 0.403-0.981-0.126-0.941-0.441s-0.253-0.655-0.882-0.456c-0.629 0.198-0.395 0.309-0.395 0.309s0.448 0.275 0.735 0.445c0.288 0.17 0.762 0.316 0.66 0.44s-0.377 0.048-0.607-0.136c-0.23-0.184-0.89-0.625-0.958-0.461s-0.305 0.615-0.305 0.615c0.292 0.045 0.581 0.109 0.865 0.192 0.384 0.121 0.463 0.332 0.163 0.349s-0.845-0.209-1.017 0.078c-0.172 0.288-0.054 1.026-0.054 1.026s0.549-0.372 0.83-0.372c0.28 0.001 0.101 0.157-0.212 0.36-0.136 0.083-0.267 0.174-0.393 0.272l0.285 0.732c0.218-0.030 0.437-0.045 0.657-0.048l0.186 0.014c0 0 0-0.768 0.22-0.996s0.259 0.299 0.306 0.434-0.094 0.536-0.094 0.536c0 0 0.543-0.298 0.72-0.417l0.177-0.118c0 0-0.203-0.558-0.343-0.717s-0.326-0.136-0.167-0.272c0.159-0.136 0.397-0.068 0.533 0.132 0.114 0.186 0.212 0.381 0.295 0.583 0 0 0.203 0.033 0.467-0.267s0.178-0.399-0.109-0.569zM32.094 21.615c-0.211-0.106 0.29-0.317 0.29-0.317 0.185-0.026-0.079 0.424-0.29 0.317zM32.449 20.629c-0.090-0.045 0.18-0.136 0.18-0.136 0.389 0.073-0.090 0.181-0.18 0.136h0.001z"></path>
<path fill="#cbcbcb" d="M30.491 24.43c-0.231-0.136-0.486-0.139-0.61-0.284s0.12-0.218 0.252-0.163c0.132 0.054 0.437 0.212 0.494 0.246s0.018-0.466-0.090-0.655-0.4-0.298-0.546-0.144c-0.309 0.325-0.79-0.101-0.757-0.355s-0.203-0.527-0.712-0.367c-0.508 0.16-0.318 0.249-0.318 0.249s0.36 0.222 0.591 0.358c0.231 0.137 0.614 0.255 0.531 0.354s-0.303 0.039-0.488-0.109c-0.185-0.149-0.716-0.503-0.77-0.371s-0.245 0.495-0.245 0.495c0.235 0.036 0.468 0.088 0.696 0.155 0.309 0.097 0.372 0.267 0.13 0.28s-0.678-0.169-0.814 0.063c-0.136 0.232-0.043 0.826-0.043 0.826s0.442-0.3 0.667-0.3c0.225 0.001 0.081 0.126-0.17 0.29-0.109 0.067-0.215 0.14-0.316 0.219l0.229 0.589c0.175-0.024 0.352-0.036 0.529-0.037l0.15 0.010c0 0 0-0.618 0.177-0.801s0.208 0.241 0.245 0.349c0.037 0.109-0.075 0.432-0.075 0.432s0.438-0.241 0.58-0.336l0.142-0.096c0 0-0.164-0.449-0.275-0.577s-0.263-0.109-0.136-0.22c0.128-0.111 0.32-0.053 0.429 0.105 0.092 0.15 0.171 0.307 0.238 0.469 0 0 0.163 0.027 0.376-0.214s0.141-0.322-0.090-0.459zM28.484 25.109c-0.17-0.085 0.233-0.255 0.233-0.255 0.149-0.020-0.064 0.341-0.233 0.256v-0.001zM28.771 24.317c-0.073-0.037 0.145-0.109 0.145-0.109 0.313 0.061-0.073 0.145-0.145 0.109z"></path>
<path fill="#cbcbcb" d="M29.55 20.067c0 0-0.29 0.211-0.475 0s0.079-0.634-0.184-0.793c-0.264-0.158-0.685 0.132-0.685 0.132s0.343 0.079 0.343 0.264c0 0.185-0.158 0.264-0.184 0.185s-0.211-0.476-0.475-0.29c-0.076 0.051-0.141 0.117-0.191 0.195s-0.083 0.164-0.099 0.254c0 0 0.632-0.105 0.685 0.133s-0.263-0.026-0.527-0.026c-0.264 0-0.501 0.053-0.475 0.211 0.014 0.141 0.014 0.282 0 0.423 0.137-0.128 0.314-0.203 0.501-0.211 0.29 0 0.29 0.185 0.026 0.185s-0.475 0.264-0.475 0.264 0.264 0.396 0.58 0.581c0.316 0.185 0.422 0.105 0.448-0.053s-0.079-0.555 0.105-0.555-0.263 0.713-0.026 0.739c0.237 0.026 0.422-0.053 0.475-0.211l0.053-0.158c0 0-0.106-0.396-0.079-0.555s0.079 0 0.132 0.185c0.052 0.185 0.106 0.634 0.185 0.608s0.316-0.37 0.369-0.502c0.053-0.132-0.369-0.502-0.369-0.581s0.316 0.053 0.369 0.132c0.053 0.079 0.105 0.185 0.105 0.185s0.184-0.132 0.158-0.502c-0.026-0.37-0.29-0.238-0.29-0.238z"></path>
<path fill="#263238" d="M32.212 25.986h-2.038v2.94h2.038v-2.94z"></path>
</svg>
